<svg width="40" height="24" viewBox="0 0 40 24" fill="none" xmlns="http://www.w3.org/2000/svg">
<path d="M8.68132 13H27.298L19.1646 17.88C18.5146 18.27 18.5146 18.91 19.1646 19.3C19.8146 19.69 20.8646 19.69 21.5146 19.3L32.498 12.71C33.148 12.32 33.148 11.69 32.498 11.3L21.5313 4.69999C21.2199 4.51273 20.7972 4.4075 20.3563 4.4075C19.9155 4.4075 19.4927 4.51273 19.1813 4.69999C18.5313 5.08999 18.5313 5.71999 19.1813 6.10999L27.298 11H8.68132C7.76465 11 7.01465 11.45 7.01465 12C7.01465 12.55 7.76465 13 8.68132 13Z" fill="#6D7D8B"/>
</svg>
