<svg width="30" height="30" viewBox="0 0 30 30" fill="none" xmlns="http://www.w3.org/2000/svg">
<path fill-rule="evenodd" clip-rule="evenodd" d="M0 15C0 6.71998 6.71998 0 15 0C23.2799 0 29.9999 6.71998 29.9999 15C29.9999 23.2799 23.2799 29.9999 15 29.9999C6.71998 29.9999 0 23.2799 0 15ZM5.54998 16.05L10.935 21.4349C11.52 22.0199 12.48 22.0199 13.05 21.4349L24.4349 10.05C25.0199 9.46497 25.0199 8.51998 24.4349 7.93498C23.8499 7.34998 22.9049 7.34998 22.3199 7.93498L12 18.2549L7.66498 13.935C7.07998 13.35 6.13498 13.35 5.54998 13.935C5.26911 14.2152 5.11126 14.5957 5.11126 14.9925C5.11126 15.3892 5.26911 15.7697 5.54998 16.05Z" fill="#FFCC00"/>
</svg>
