<svg width="40" height="40" viewBox="0 0 40 40" fill="none" xmlns="http://www.w3.org/2000/svg">
<path fill-rule="evenodd" clip-rule="evenodd" d="M20 0C8.96 0 0 8.96 0 20C0 31.04 8.96 40 20 40C31.04 40 40 31.04 40 20C40 8.96 31.04 0 20 0ZM20 36C11.18 36 4 28.82 4 20C4 11.18 11.18 4 20 4C28.82 4 36 11.18 36 20C36 28.82 28.82 36 20 36ZM16 24.34L27.76 12.58C28.54 11.8 29.82 11.8 30.6 12.58C31.38 13.36 31.38 14.62 30.6 15.4L17.42 28.58C16.64 29.36 15.38 29.36 14.6 28.58L9.41996 23.4C8.63996 22.62 8.63996 21.36 9.41996 20.58C9.79362 20.2055 10.3009 19.995 10.83 19.995C11.359 19.995 11.8663 20.2055 12.24 20.58L16 24.34Z" fill="#6D7D8B"/>
</svg>
