<svg width="34" height="34" viewBox="0 0 34 34" fill="none" xmlns="http://www.w3.org/2000/svg">
<path fill-rule="evenodd" clip-rule="evenodd" d="M34 17C34 26.384 26.384 34 17 34C7.616 34 0 26.384 0 17C0 7.616 7.616 0 17 0C26.384 0 34 7.616 34 17ZM11.9 20.825C13.073 20.825 14.025 19.873 14.025 18.7C14.025 17.527 13.073 16.575 11.9 16.575C10.727 16.575 9.775 17.527 9.775 18.7C9.775 19.873 10.727 20.825 11.9 20.825ZM19.975 18.7C19.975 17.527 20.927 16.575 22.1 16.575C23.273 16.575 24.225 17.527 24.225 18.7C24.225 19.873 23.273 20.825 22.1 20.825C20.927 20.825 19.975 19.873 19.975 18.7ZM26.35 10.2C21.42 10.2 17.102 7.548 14.722 3.604C15.453 3.485 16.218 3.4 17 3.4C21.93 3.4 26.248 6.052 28.628 9.996C27.897 10.115 27.132 10.2 26.35 10.2ZM4.114 12.699C7.021 11.05 9.265 8.364 10.336 5.151C7.429 6.8 5.185 9.486 4.114 12.699ZM30.039 13.192C30.396 14.399 30.6 15.674 30.6 17C30.6 24.497 24.497 30.6 17 30.6C9.503 30.6 3.4 24.497 3.4 17C3.4 16.971 3.40198 16.942 3.40391 16.9137C3.40764 16.859 3.4112 16.8068 3.4 16.762C7.82 15.096 11.373 11.679 13.158 7.327C16.286 11.152 21.029 13.6 26.35 13.6C27.625 13.6 28.849 13.447 30.039 13.192Z" fill="#6D7D8B"/>
</svg>
