<svg width="35" height="35" viewBox="0 0 35 35" fill="none" xmlns="http://www.w3.org/2000/svg">
<g id="icon/action/favorite_border_24px">
<path id="icon/action/favorite_border.svg" fill-rule="evenodd" clip-rule="evenodd" d="M17.5005 7.68132C20.0671 4.67715 24.8213 3.45215 28.6713 6.07715C30.713 7.47715 31.9963 9.83965 32.0838 12.3188C32.2734 17.9771 27.2713 22.5126 19.6151 29.4542L19.4546 29.6001C18.3463 30.6209 16.6401 30.6209 15.5317 29.6146L15.3859 29.4834L15.2978 29.4034C7.69119 22.4923 2.71376 17.97 2.91714 12.3334C3.00464 9.83965 4.28797 7.47715 6.32964 6.07715C10.1796 3.43757 14.9338 4.67715 17.5005 7.68132ZM17.5005 27.4563L17.6463 27.3105C24.588 21.0251 29.1671 16.8688 29.1671 12.6542C29.1671 9.73757 26.9796 7.55007 24.063 7.55007C21.8171 7.55007 19.6296 8.99382 18.8713 10.9917H16.1442C15.3713 8.99382 13.1838 7.55007 10.938 7.55007C8.02131 7.55007 5.83381 9.73757 5.83381 12.6542C5.83381 16.8688 10.413 21.0251 17.3546 27.3105L17.5005 27.4563Z" fill="#6D7D8B"/>
</g>
</svg>
