<svg width="36" height="48" viewBox="0 0 36 48" fill="none" xmlns="http://www.w3.org/2000/svg">
<path fill-rule="evenodd" clip-rule="evenodd" d="M6.106 33.159C6.106 24.9668 12.7548 18.318 20.947 18.318C29.1392 18.318 35.788 24.9668 35.788 33.159C35.788 41.3512 29.1392 48 20.947 48C12.7548 48 6.106 41.3512 6.106 33.159ZM11.5972 34.1979L16.9251 39.5258C17.5039 40.1046 18.4537 40.1046 19.0177 39.5258L30.282 28.2615C30.8608 27.6827 30.8608 26.7477 30.282 26.1689C29.7032 25.5901 28.7682 25.5901 28.1894 26.1689L17.9788 36.3795L13.6897 32.1053C13.1109 31.5265 12.176 31.5265 11.5972 32.1053C11.3193 32.3826 11.1631 32.759 11.1631 33.1516C11.1631 33.5441 11.3193 33.9206 11.5972 34.1979Z" fill="#FFCC00"/>
</svg>
