<svg width="285" height="248" viewBox="0 0 285 248" fill="none" xmlns="http://www.w3.org/2000/svg">
<ellipse cx="226.281" cy="40.1387" rx="2.86432" ry="2.86705" fill="#D9D9D9"/>
<ellipse cx="226.281" cy="151.954" rx="2.86432" ry="2.86705" fill="#D9D9D9"/>
<ellipse cx="226.281" cy="114.682" rx="2.86432" ry="2.86705" fill="#D9D9D9"/>
<ellipse cx="226.281" cy="226.497" rx="2.86432" ry="2.86705" fill="#D9D9D9"/>
<ellipse cx="77.3367" cy="40.1387" rx="2.86432" ry="2.86705" fill="#D9D9D9"/>
<ellipse cx="77.3367" cy="151.954" rx="2.86432" ry="2.86705" fill="#D9D9D9"/>
<ellipse cx="77.3367" cy="114.682" rx="2.86432" ry="2.86705" fill="#D9D9D9"/>
<ellipse cx="77.3367" cy="226.497" rx="2.86432" ry="2.86705" fill="#D9D9D9"/>
<ellipse cx="226.281" cy="2.86705" rx="2.86432" ry="2.86705" fill="#D9D9D9"/>
<ellipse cx="226.281" cy="114.682" rx="2.86432" ry="2.86705" fill="#D9D9D9"/>
<ellipse cx="226.281" cy="77.4103" rx="2.86432" ry="2.86705" fill="#D9D9D9"/>
<ellipse cx="226.281" cy="189.225" rx="2.86432" ry="2.86705" fill="#D9D9D9"/>
<ellipse cx="77.3367" cy="2.86705" rx="2.86432" ry="2.86705" fill="#D9D9D9"/>
<ellipse cx="77.3367" cy="114.682" rx="2.86432" ry="2.86705" fill="#D9D9D9"/>
<ellipse cx="77.3367" cy="77.4103" rx="2.86432" ry="2.86705" fill="#D9D9D9"/>
<ellipse cx="77.3367" cy="189.225" rx="2.86432" ry="2.86705" fill="#D9D9D9"/>
<ellipse cx="226.281" cy="58.7745" rx="2.86432" ry="2.86705" fill="#D9D9D9"/>
<ellipse cx="226.281" cy="170.589" rx="2.86432" ry="2.86705" fill="#D9D9D9"/>
<ellipse cx="226.281" cy="133.318" rx="2.86432" ry="2.86705" fill="#D9D9D9"/>
<ellipse cx="226.281" cy="245.133" rx="2.86432" ry="2.86705" fill="#D9D9D9"/>
<ellipse cx="77.3367" cy="58.7745" rx="2.86432" ry="2.86705" fill="#D9D9D9"/>
<ellipse cx="77.3367" cy="170.589" rx="2.86432" ry="2.86705" fill="#D9D9D9"/>
<ellipse cx="77.3367" cy="133.318" rx="2.86432" ry="2.86705" fill="#D9D9D9"/>
<ellipse cx="77.3367" cy="245.133" rx="2.86432" ry="2.86705" fill="#D9D9D9"/>
<ellipse cx="226.281" cy="21.5029" rx="2.86432" ry="2.86705" fill="#D9D9D9"/>
<ellipse cx="226.281" cy="133.318" rx="2.86432" ry="2.86705" fill="#D9D9D9"/>
<ellipse cx="226.281" cy="96.0462" rx="2.86432" ry="2.86705" fill="#D9D9D9"/>
<ellipse cx="226.281" cy="207.861" rx="2.86432" ry="2.86705" fill="#D9D9D9"/>
<ellipse cx="77.3367" cy="21.5029" rx="2.86432" ry="2.86705" fill="#D9D9D9"/>
<ellipse cx="77.3367" cy="133.318" rx="2.86432" ry="2.86705" fill="#D9D9D9"/>
<ellipse cx="77.3367" cy="96.0462" rx="2.86432" ry="2.86705" fill="#D9D9D9"/>
<ellipse cx="77.3367" cy="207.861" rx="2.86432" ry="2.86705" fill="#D9D9D9"/>
<ellipse cx="151.809" cy="40.1387" rx="2.86432" ry="2.86705" fill="#D9D9D9"/>
<ellipse cx="151.809" cy="151.954" rx="2.86432" ry="2.86705" fill="#D9D9D9"/>
<ellipse cx="151.809" cy="114.682" rx="2.86432" ry="2.86705" fill="#D9D9D9"/>
<ellipse cx="151.809" cy="226.497" rx="2.86432" ry="2.86705" fill="#D9D9D9"/>
<ellipse cx="2.86432" cy="40.1387" rx="2.86432" ry="2.86705" fill="#D9D9D9"/>
<ellipse cx="2.86432" cy="151.954" rx="2.86432" ry="2.86705" fill="#D9D9D9"/>
<ellipse cx="2.86432" cy="114.682" rx="2.86432" ry="2.86705" fill="#D9D9D9"/>
<ellipse cx="2.86432" cy="226.497" rx="2.86432" ry="2.86705" fill="#D9D9D9"/>
<ellipse cx="151.809" cy="2.86705" rx="2.86432" ry="2.86705" fill="#D9D9D9"/>
<ellipse cx="151.809" cy="114.682" rx="2.86432" ry="2.86705" fill="#D9D9D9"/>
<ellipse cx="151.809" cy="77.4103" rx="2.86432" ry="2.86705" fill="#D9D9D9"/>
<ellipse cx="151.809" cy="189.225" rx="2.86432" ry="2.86705" fill="#D9D9D9"/>
<ellipse cx="2.86432" cy="2.86705" rx="2.86432" ry="2.86705" fill="#D9D9D9"/>
<ellipse cx="2.86432" cy="114.682" rx="2.86432" ry="2.86705" fill="#D9D9D9"/>
<ellipse cx="2.86432" cy="77.4103" rx="2.86432" ry="2.86705" fill="#D9D9D9"/>
<ellipse cx="2.86432" cy="189.225" rx="2.86432" ry="2.86705" fill="#D9D9D9"/>
<ellipse cx="151.809" cy="58.7745" rx="2.86432" ry="2.86705" fill="#D9D9D9"/>
<ellipse cx="151.809" cy="170.589" rx="2.86432" ry="2.86705" fill="#D9D9D9"/>
<ellipse cx="151.809" cy="133.318" rx="2.86432" ry="2.86705" fill="#D9D9D9"/>
<ellipse cx="151.809" cy="245.133" rx="2.86432" ry="2.86705" fill="#D9D9D9"/>
<ellipse cx="2.86432" cy="58.7745" rx="2.86432" ry="2.86705" fill="#D9D9D9"/>
<ellipse cx="2.86432" cy="170.589" rx="2.86432" ry="2.86705" fill="#D9D9D9"/>
<ellipse cx="2.86432" cy="133.318" rx="2.86432" ry="2.86705" fill="#D9D9D9"/>
<ellipse cx="2.86432" cy="245.133" rx="2.86432" ry="2.86705" fill="#D9D9D9"/>
<ellipse cx="151.809" cy="21.5029" rx="2.86432" ry="2.86705" fill="#D9D9D9"/>
<ellipse cx="151.809" cy="133.318" rx="2.86432" ry="2.86705" fill="#D9D9D9"/>
<ellipse cx="151.809" cy="96.0462" rx="2.86432" ry="2.86705" fill="#D9D9D9"/>
<ellipse cx="151.809" cy="207.861" rx="2.86432" ry="2.86705" fill="#D9D9D9"/>
<ellipse cx="2.86432" cy="21.5029" rx="2.86432" ry="2.86705" fill="#D9D9D9"/>
<ellipse cx="2.86432" cy="133.318" rx="2.86432" ry="2.86705" fill="#D9D9D9"/>
<ellipse cx="2.86432" cy="96.0462" rx="2.86432" ry="2.86705" fill="#D9D9D9"/>
<ellipse cx="2.86432" cy="207.861" rx="2.86432" ry="2.86705" fill="#D9D9D9"/>
<ellipse cx="263.517" cy="40.1387" rx="2.86432" ry="2.86705" fill="#D9D9D9"/>
<ellipse cx="263.517" cy="151.954" rx="2.86432" ry="2.86705" fill="#D9D9D9"/>
<ellipse cx="263.517" cy="114.682" rx="2.86432" ry="2.86705" fill="#D9D9D9"/>
<ellipse cx="263.517" cy="226.497" rx="2.86432" ry="2.86705" fill="#D9D9D9"/>
<ellipse cx="114.573" cy="40.1387" rx="2.86432" ry="2.86705" fill="#D9D9D9"/>
<ellipse cx="114.573" cy="151.954" rx="2.86432" ry="2.86705" fill="#D9D9D9"/>
<ellipse cx="114.573" cy="114.682" rx="2.86432" ry="2.86705" fill="#D9D9D9"/>
<ellipse cx="114.573" cy="226.497" rx="2.86432" ry="2.86705" fill="#D9D9D9"/>
<ellipse cx="263.517" cy="2.86705" rx="2.86432" ry="2.86705" fill="#D9D9D9"/>
<ellipse cx="263.517" cy="114.682" rx="2.86432" ry="2.86705" fill="#D9D9D9"/>
<ellipse cx="263.517" cy="77.4103" rx="2.86432" ry="2.86705" fill="#D9D9D9"/>
<ellipse cx="263.517" cy="189.225" rx="2.86432" ry="2.86705" fill="#D9D9D9"/>
<ellipse cx="114.573" cy="2.86705" rx="2.86432" ry="2.86705" fill="#D9D9D9"/>
<ellipse cx="114.573" cy="114.682" rx="2.86432" ry="2.86705" fill="#D9D9D9"/>
<ellipse cx="114.573" cy="77.4103" rx="2.86432" ry="2.86705" fill="#D9D9D9"/>
<ellipse cx="114.573" cy="189.225" rx="2.86432" ry="2.86705" fill="#D9D9D9"/>
<ellipse cx="263.517" cy="58.7745" rx="2.86432" ry="2.86705" fill="#D9D9D9"/>
<ellipse cx="263.517" cy="170.589" rx="2.86432" ry="2.86705" fill="#D9D9D9"/>
<ellipse cx="263.517" cy="133.318" rx="2.86432" ry="2.86705" fill="#D9D9D9"/>
<ellipse cx="263.517" cy="245.133" rx="2.86432" ry="2.86705" fill="#D9D9D9"/>
<ellipse cx="114.573" cy="58.7745" rx="2.86432" ry="2.86705" fill="#D9D9D9"/>
<ellipse cx="114.573" cy="170.589" rx="2.86432" ry="2.86705" fill="#D9D9D9"/>
<ellipse cx="114.573" cy="133.318" rx="2.86432" ry="2.86705" fill="#D9D9D9"/>
<ellipse cx="114.573" cy="245.133" rx="2.86432" ry="2.86705" fill="#D9D9D9"/>
<ellipse cx="263.517" cy="21.5029" rx="2.86432" ry="2.86705" fill="#D9D9D9"/>
<ellipse cx="263.517" cy="133.318" rx="2.86432" ry="2.86705" fill="#D9D9D9"/>
<ellipse cx="263.517" cy="96.0462" rx="2.86432" ry="2.86705" fill="#D9D9D9"/>
<ellipse cx="263.517" cy="207.861" rx="2.86432" ry="2.86705" fill="#D9D9D9"/>
<ellipse cx="114.573" cy="21.5029" rx="2.86432" ry="2.86705" fill="#D9D9D9"/>
<ellipse cx="114.573" cy="133.318" rx="2.86432" ry="2.86705" fill="#D9D9D9"/>
<ellipse cx="114.573" cy="96.0462" rx="2.86432" ry="2.86705" fill="#D9D9D9"/>
<ellipse cx="114.573" cy="207.861" rx="2.86432" ry="2.86705" fill="#D9D9D9"/>
<ellipse cx="189.045" cy="40.1387" rx="2.86432" ry="2.86705" fill="#D9D9D9"/>
<ellipse cx="189.045" cy="151.954" rx="2.86432" ry="2.86705" fill="#D9D9D9"/>
<ellipse cx="189.045" cy="114.682" rx="2.86432" ry="2.86705" fill="#D9D9D9"/>
<ellipse cx="189.045" cy="226.497" rx="2.86432" ry="2.86705" fill="#D9D9D9"/>
<ellipse cx="40.1004" cy="40.1387" rx="2.86432" ry="2.86705" fill="#D9D9D9"/>
<ellipse cx="40.1004" cy="151.954" rx="2.86432" ry="2.86705" fill="#D9D9D9"/>
<ellipse cx="40.1004" cy="114.682" rx="2.86432" ry="2.86705" fill="#D9D9D9"/>
<ellipse cx="40.1004" cy="226.497" rx="2.86432" ry="2.86705" fill="#D9D9D9"/>
<ellipse cx="189.045" cy="2.86705" rx="2.86432" ry="2.86705" fill="#D9D9D9"/>
<ellipse cx="189.045" cy="114.682" rx="2.86432" ry="2.86705" fill="#D9D9D9"/>
<ellipse cx="189.045" cy="77.4103" rx="2.86432" ry="2.86705" fill="#D9D9D9"/>
<ellipse cx="189.045" cy="189.225" rx="2.86432" ry="2.86705" fill="#D9D9D9"/>
<ellipse cx="40.1004" cy="2.86705" rx="2.86432" ry="2.86705" fill="#D9D9D9"/>
<ellipse cx="40.1004" cy="114.682" rx="2.86432" ry="2.86705" fill="#D9D9D9"/>
<ellipse cx="40.1004" cy="77.4103" rx="2.86432" ry="2.86705" fill="#D9D9D9"/>
<ellipse cx="40.1004" cy="189.225" rx="2.86432" ry="2.86705" fill="#D9D9D9"/>
<ellipse cx="189.045" cy="58.7745" rx="2.86432" ry="2.86705" fill="#D9D9D9"/>
<ellipse cx="189.045" cy="170.589" rx="2.86432" ry="2.86705" fill="#D9D9D9"/>
<ellipse cx="189.045" cy="133.318" rx="2.86432" ry="2.86705" fill="#D9D9D9"/>
<ellipse cx="189.045" cy="245.133" rx="2.86432" ry="2.86705" fill="#D9D9D9"/>
<ellipse cx="40.1004" cy="58.7745" rx="2.86432" ry="2.86705" fill="#D9D9D9"/>
<ellipse cx="40.1004" cy="170.589" rx="2.86432" ry="2.86705" fill="#D9D9D9"/>
<ellipse cx="40.1004" cy="133.318" rx="2.86432" ry="2.86705" fill="#D9D9D9"/>
<ellipse cx="40.1004" cy="245.133" rx="2.86432" ry="2.86705" fill="#D9D9D9"/>
<ellipse cx="189.045" cy="21.5029" rx="2.86432" ry="2.86705" fill="#D9D9D9"/>
<ellipse cx="189.045" cy="133.318" rx="2.86432" ry="2.86705" fill="#D9D9D9"/>
<ellipse cx="189.045" cy="96.0462" rx="2.86432" ry="2.86705" fill="#D9D9D9"/>
<ellipse cx="189.045" cy="207.861" rx="2.86432" ry="2.86705" fill="#D9D9D9"/>
<ellipse cx="40.1004" cy="21.5029" rx="2.86432" ry="2.86705" fill="#D9D9D9"/>
<ellipse cx="40.1004" cy="133.318" rx="2.86432" ry="2.86705" fill="#D9D9D9"/>
<ellipse cx="40.1004" cy="96.0462" rx="2.86432" ry="2.86705" fill="#D9D9D9"/>
<ellipse cx="40.1004" cy="207.861" rx="2.86432" ry="2.86705" fill="#D9D9D9"/>
<ellipse cx="244.899" cy="40.1387" rx="2.86432" ry="2.86705" fill="#D9D9D9"/>
<ellipse cx="244.899" cy="151.954" rx="2.86432" ry="2.86705" fill="#D9D9D9"/>
<ellipse cx="244.899" cy="114.682" rx="2.86432" ry="2.86705" fill="#D9D9D9"/>
<ellipse cx="244.899" cy="226.497" rx="2.86432" ry="2.86705" fill="#D9D9D9"/>
<ellipse cx="95.9546" cy="40.1387" rx="2.86432" ry="2.86705" fill="#D9D9D9"/>
<ellipse cx="95.9546" cy="151.954" rx="2.86432" ry="2.86705" fill="#D9D9D9"/>
<ellipse cx="95.9546" cy="114.682" rx="2.86432" ry="2.86705" fill="#D9D9D9"/>
<ellipse cx="95.9546" cy="226.497" rx="2.86432" ry="2.86705" fill="#D9D9D9"/>
<ellipse cx="244.899" cy="2.86705" rx="2.86432" ry="2.86705" fill="#D9D9D9"/>
<ellipse cx="244.899" cy="114.682" rx="2.86432" ry="2.86705" fill="#D9D9D9"/>
<ellipse cx="244.899" cy="77.4103" rx="2.86432" ry="2.86705" fill="#D9D9D9"/>
<ellipse cx="244.899" cy="189.225" rx="2.86432" ry="2.86705" fill="#D9D9D9"/>
<ellipse cx="95.9546" cy="2.86705" rx="2.86432" ry="2.86705" fill="#D9D9D9"/>
<ellipse cx="95.9546" cy="114.682" rx="2.86432" ry="2.86705" fill="#D9D9D9"/>
<ellipse cx="95.9546" cy="77.4103" rx="2.86432" ry="2.86705" fill="#D9D9D9"/>
<ellipse cx="95.9546" cy="189.225" rx="2.86432" ry="2.86705" fill="#D9D9D9"/>
<ellipse cx="244.899" cy="58.7745" rx="2.86432" ry="2.86705" fill="#D9D9D9"/>
<ellipse cx="244.899" cy="170.589" rx="2.86432" ry="2.86705" fill="#D9D9D9"/>
<ellipse cx="244.899" cy="133.318" rx="2.86432" ry="2.86705" fill="#D9D9D9"/>
<ellipse cx="244.899" cy="245.133" rx="2.86432" ry="2.86705" fill="#D9D9D9"/>
<ellipse cx="95.9546" cy="58.7745" rx="2.86432" ry="2.86705" fill="#D9D9D9"/>
<ellipse cx="95.9546" cy="170.589" rx="2.86432" ry="2.86705" fill="#D9D9D9"/>
<ellipse cx="95.9546" cy="133.318" rx="2.86432" ry="2.86705" fill="#D9D9D9"/>
<ellipse cx="95.9546" cy="245.133" rx="2.86432" ry="2.86705" fill="#D9D9D9"/>
<ellipse cx="244.899" cy="21.5029" rx="2.86432" ry="2.86705" fill="#D9D9D9"/>
<ellipse cx="244.899" cy="133.318" rx="2.86432" ry="2.86705" fill="#D9D9D9"/>
<ellipse cx="244.899" cy="96.0462" rx="2.86432" ry="2.86705" fill="#D9D9D9"/>
<ellipse cx="244.899" cy="207.861" rx="2.86432" ry="2.86705" fill="#D9D9D9"/>
<ellipse cx="95.9546" cy="21.5029" rx="2.86432" ry="2.86705" fill="#D9D9D9"/>
<ellipse cx="95.9546" cy="133.318" rx="2.86432" ry="2.86705" fill="#D9D9D9"/>
<ellipse cx="95.9546" cy="96.0462" rx="2.86432" ry="2.86705" fill="#D9D9D9"/>
<ellipse cx="95.9546" cy="207.861" rx="2.86432" ry="2.86705" fill="#D9D9D9"/>
<ellipse cx="170.427" cy="40.1387" rx="2.86432" ry="2.86705" fill="#D9D9D9"/>
<ellipse cx="170.427" cy="151.954" rx="2.86432" ry="2.86705" fill="#D9D9D9"/>
<ellipse cx="170.427" cy="114.682" rx="2.86432" ry="2.86705" fill="#D9D9D9"/>
<ellipse cx="170.427" cy="226.497" rx="2.86432" ry="2.86705" fill="#D9D9D9"/>
<ellipse cx="21.4825" cy="40.1387" rx="2.86432" ry="2.86705" fill="#D9D9D9"/>
<ellipse cx="21.4825" cy="151.954" rx="2.86432" ry="2.86705" fill="#D9D9D9"/>
<ellipse cx="21.4825" cy="114.682" rx="2.86432" ry="2.86705" fill="#D9D9D9"/>
<ellipse cx="21.4825" cy="226.497" rx="2.86432" ry="2.86705" fill="#D9D9D9"/>
<ellipse cx="170.427" cy="2.86705" rx="2.86432" ry="2.86705" fill="#D9D9D9"/>
<ellipse cx="170.427" cy="114.682" rx="2.86432" ry="2.86705" fill="#D9D9D9"/>
<ellipse cx="170.427" cy="77.4103" rx="2.86432" ry="2.86705" fill="#D9D9D9"/>
<ellipse cx="170.427" cy="189.225" rx="2.86432" ry="2.86705" fill="#D9D9D9"/>
<ellipse cx="21.4825" cy="2.86705" rx="2.86432" ry="2.86705" fill="#D9D9D9"/>
<ellipse cx="21.4825" cy="114.682" rx="2.86432" ry="2.86705" fill="#D9D9D9"/>
<ellipse cx="21.4825" cy="77.4103" rx="2.86432" ry="2.86705" fill="#D9D9D9"/>
<ellipse cx="21.4825" cy="189.225" rx="2.86432" ry="2.86705" fill="#D9D9D9"/>
<ellipse cx="170.427" cy="58.7745" rx="2.86432" ry="2.86705" fill="#D9D9D9"/>
<ellipse cx="170.427" cy="170.589" rx="2.86432" ry="2.86705" fill="#D9D9D9"/>
<ellipse cx="170.427" cy="133.318" rx="2.86432" ry="2.86705" fill="#D9D9D9"/>
<ellipse cx="170.427" cy="245.133" rx="2.86432" ry="2.86705" fill="#D9D9D9"/>
<ellipse cx="21.4825" cy="58.7745" rx="2.86432" ry="2.86705" fill="#D9D9D9"/>
<ellipse cx="21.4825" cy="170.589" rx="2.86432" ry="2.86705" fill="#D9D9D9"/>
<ellipse cx="21.4825" cy="133.318" rx="2.86432" ry="2.86705" fill="#D9D9D9"/>
<ellipse cx="21.4825" cy="245.133" rx="2.86432" ry="2.86705" fill="#D9D9D9"/>
<ellipse cx="170.427" cy="21.5029" rx="2.86432" ry="2.86705" fill="#D9D9D9"/>
<ellipse cx="170.427" cy="133.318" rx="2.86432" ry="2.86705" fill="#D9D9D9"/>
<ellipse cx="170.427" cy="96.0462" rx="2.86432" ry="2.86705" fill="#D9D9D9"/>
<ellipse cx="170.427" cy="207.861" rx="2.86432" ry="2.86705" fill="#D9D9D9"/>
<ellipse cx="21.4825" cy="21.5029" rx="2.86432" ry="2.86705" fill="#D9D9D9"/>
<ellipse cx="21.4825" cy="133.318" rx="2.86432" ry="2.86705" fill="#D9D9D9"/>
<ellipse cx="21.4825" cy="96.0462" rx="2.86432" ry="2.86705" fill="#D9D9D9"/>
<ellipse cx="21.4825" cy="207.861" rx="2.86432" ry="2.86705" fill="#D9D9D9"/>
<ellipse cx="282.136" cy="40.1387" rx="2.86432" ry="2.86705" fill="#D9D9D9"/>
<ellipse cx="282.136" cy="151.954" rx="2.86432" ry="2.86705" fill="#D9D9D9"/>
<ellipse cx="282.136" cy="114.682" rx="2.86432" ry="2.86705" fill="#D9D9D9"/>
<ellipse cx="282.136" cy="226.497" rx="2.86432" ry="2.86705" fill="#D9D9D9"/>
<ellipse cx="133.191" cy="40.1387" rx="2.86432" ry="2.86705" fill="#D9D9D9"/>
<ellipse cx="133.191" cy="151.954" rx="2.86432" ry="2.86705" fill="#D9D9D9"/>
<ellipse cx="133.191" cy="114.682" rx="2.86432" ry="2.86705" fill="#D9D9D9"/>
<ellipse cx="133.191" cy="226.497" rx="2.86432" ry="2.86705" fill="#D9D9D9"/>
<ellipse cx="282.136" cy="2.86705" rx="2.86432" ry="2.86705" fill="#D9D9D9"/>
<ellipse cx="282.136" cy="114.682" rx="2.86432" ry="2.86705" fill="#D9D9D9"/>
<ellipse cx="282.136" cy="77.4103" rx="2.86432" ry="2.86705" fill="#D9D9D9"/>
<ellipse cx="282.136" cy="189.225" rx="2.86432" ry="2.86705" fill="#D9D9D9"/>
<ellipse cx="133.191" cy="2.86705" rx="2.86432" ry="2.86705" fill="#D9D9D9"/>
<ellipse cx="133.191" cy="114.682" rx="2.86432" ry="2.86705" fill="#D9D9D9"/>
<ellipse cx="133.191" cy="77.4103" rx="2.86432" ry="2.86705" fill="#D9D9D9"/>
<ellipse cx="133.191" cy="189.225" rx="2.86432" ry="2.86705" fill="#D9D9D9"/>
<ellipse cx="282.136" cy="58.7745" rx="2.86432" ry="2.86705" fill="#D9D9D9"/>
<ellipse cx="282.136" cy="170.589" rx="2.86432" ry="2.86705" fill="#D9D9D9"/>
<ellipse cx="282.136" cy="133.318" rx="2.86432" ry="2.86705" fill="#D9D9D9"/>
<ellipse cx="282.136" cy="245.133" rx="2.86432" ry="2.86705" fill="#D9D9D9"/>
<ellipse cx="133.191" cy="58.7745" rx="2.86432" ry="2.86705" fill="#D9D9D9"/>
<ellipse cx="133.191" cy="170.589" rx="2.86432" ry="2.86705" fill="#D9D9D9"/>
<ellipse cx="133.191" cy="133.318" rx="2.86432" ry="2.86705" fill="#D9D9D9"/>
<ellipse cx="133.191" cy="245.133" rx="2.86432" ry="2.86705" fill="#D9D9D9"/>
<ellipse cx="282.136" cy="21.5029" rx="2.86432" ry="2.86705" fill="#D9D9D9"/>
<ellipse cx="282.136" cy="133.318" rx="2.86432" ry="2.86705" fill="#D9D9D9"/>
<ellipse cx="282.136" cy="96.0462" rx="2.86432" ry="2.86705" fill="#D9D9D9"/>
<ellipse cx="282.136" cy="207.861" rx="2.86432" ry="2.86705" fill="#D9D9D9"/>
<ellipse cx="133.191" cy="21.5029" rx="2.86432" ry="2.86705" fill="#D9D9D9"/>
<ellipse cx="133.191" cy="133.318" rx="2.86432" ry="2.86705" fill="#D9D9D9"/>
<ellipse cx="133.191" cy="96.0462" rx="2.86432" ry="2.86705" fill="#D9D9D9"/>
<ellipse cx="133.191" cy="207.861" rx="2.86432" ry="2.86705" fill="#D9D9D9"/>
<ellipse cx="207.663" cy="40.1387" rx="2.86432" ry="2.86705" fill="#D9D9D9"/>
<ellipse cx="207.663" cy="151.954" rx="2.86432" ry="2.86705" fill="#D9D9D9"/>
<ellipse cx="207.663" cy="114.682" rx="2.86432" ry="2.86705" fill="#D9D9D9"/>
<ellipse cx="207.663" cy="226.497" rx="2.86432" ry="2.86705" fill="#D9D9D9"/>
<ellipse cx="58.7185" cy="40.1387" rx="2.86432" ry="2.86705" fill="#D9D9D9"/>
<ellipse cx="58.7185" cy="151.954" rx="2.86432" ry="2.86705" fill="#D9D9D9"/>
<ellipse cx="58.7185" cy="114.682" rx="2.86432" ry="2.86705" fill="#D9D9D9"/>
<ellipse cx="58.7185" cy="226.497" rx="2.86432" ry="2.86705" fill="#D9D9D9"/>
<ellipse cx="207.663" cy="2.86705" rx="2.86432" ry="2.86705" fill="#D9D9D9"/>
<ellipse cx="207.663" cy="114.682" rx="2.86432" ry="2.86705" fill="#D9D9D9"/>
<ellipse cx="207.663" cy="77.4103" rx="2.86432" ry="2.86705" fill="#D9D9D9"/>
<ellipse cx="207.663" cy="189.225" rx="2.86432" ry="2.86705" fill="#D9D9D9"/>
<ellipse cx="58.7185" cy="2.86705" rx="2.86432" ry="2.86705" fill="#D9D9D9"/>
<ellipse cx="58.7185" cy="114.682" rx="2.86432" ry="2.86705" fill="#D9D9D9"/>
<ellipse cx="58.7185" cy="77.4103" rx="2.86432" ry="2.86705" fill="#D9D9D9"/>
<ellipse cx="58.7185" cy="189.225" rx="2.86432" ry="2.86705" fill="#D9D9D9"/>
<ellipse cx="207.663" cy="58.7745" rx="2.86432" ry="2.86705" fill="#D9D9D9"/>
<ellipse cx="207.663" cy="170.589" rx="2.86432" ry="2.86705" fill="#D9D9D9"/>
<ellipse cx="207.663" cy="133.318" rx="2.86432" ry="2.86705" fill="#D9D9D9"/>
<ellipse cx="207.663" cy="245.133" rx="2.86432" ry="2.86705" fill="#D9D9D9"/>
<ellipse cx="58.7185" cy="58.7745" rx="2.86432" ry="2.86705" fill="#D9D9D9"/>
<ellipse cx="58.7185" cy="170.589" rx="2.86432" ry="2.86705" fill="#D9D9D9"/>
<ellipse cx="58.7185" cy="133.318" rx="2.86432" ry="2.86705" fill="#D9D9D9"/>
<ellipse cx="58.7185" cy="245.133" rx="2.86432" ry="2.86705" fill="#D9D9D9"/>
<ellipse cx="207.663" cy="21.5029" rx="2.86432" ry="2.86705" fill="#D9D9D9"/>
<ellipse cx="207.663" cy="133.318" rx="2.86432" ry="2.86705" fill="#D9D9D9"/>
<ellipse cx="207.663" cy="96.0462" rx="2.86432" ry="2.86705" fill="#D9D9D9"/>
<ellipse cx="207.663" cy="207.861" rx="2.86432" ry="2.86705" fill="#D9D9D9"/>
<ellipse cx="58.7185" cy="21.5029" rx="2.86432" ry="2.86705" fill="#D9D9D9"/>
<ellipse cx="58.7185" cy="133.318" rx="2.86432" ry="2.86705" fill="#D9D9D9"/>
<ellipse cx="58.7185" cy="96.0462" rx="2.86432" ry="2.86705" fill="#D9D9D9"/>
<ellipse cx="58.7185" cy="207.861" rx="2.86432" ry="2.86705" fill="#D9D9D9"/>
</svg>
