<svg width="24" height="24" viewBox="0 0 24 24" fill="none" xmlns="http://www.w3.org/2000/svg">
<g id="icon/file/upload_24px">
<path id="icon/file/upload_24px_2" fill-rule="evenodd" clip-rule="evenodd" d="M14 16.2962H10C9.45 16.2962 9 15.8462 9 15.2962V10.2962H7.41C6.52 10.2962 6.08 9.21622 6.71 8.58622L11.3 3.99622C11.4868 3.80897 11.7405 3.70374 12.005 3.70374C12.2695 3.70374 12.5232 3.80897 12.71 3.99622L17.3 8.58622C17.93 9.21622 17.48 10.2962 16.59 10.2962H15V15.2962C15 15.8462 14.55 16.2962 14 16.2962ZM18 18.2962H6C5.45 18.2962 5 18.7462 5 19.2962C5 19.8462 5.45 20.2962 6 20.2962H18C18.55 20.2962 19 19.8462 19 19.2962C19 18.7462 18.55 18.2962 18 18.2962Z" fill="#6D7D8B"/>
</g>
</svg>
