<svg width="570" height="496" viewBox="0 0 570 496" fill="none" xmlns="http://www.w3.org/2000/svg" xmlns:xlink="http://www.w3.org/1999/xlink">
<path d="M458.291,80.277C458.291,83.444 455.726,86.012 452.563,86.012C449.399,86.012 446.834,83.444 446.834,80.277C446.834,77.111 449.399,74.543 452.563,74.543C455.726,74.543 458.291,77.111 458.291,80.277Z" fill="#D9D9D9"/>
<path d="M458.291,303.908C458.291,307.074 455.726,309.642 452.563,309.642C449.399,309.642 446.834,307.074 446.834,303.908C446.834,300.741 449.399,298.173 452.563,298.173C455.726,298.173 458.291,300.741 458.291,303.908Z" fill="#D9D9D9"/>
<path d="M458.291,229.364C458.291,232.531 455.726,235.098 452.563,235.098C449.399,235.098 446.834,232.531 446.834,229.364C446.834,226.197 449.399,223.63 452.563,223.63C455.726,223.63 458.291,226.197 458.291,229.364Z" fill="#D9D9D9"/>
<path d="M458.291,452.994C458.291,456.161 455.726,458.728 452.563,458.728C449.399,458.728 446.834,456.161 446.834,452.994C446.834,449.827 449.399,447.26 452.563,447.26C455.726,447.26 458.291,449.827 458.291,452.994Z" fill="#D9D9D9"/>
<path d="M160.402,80.277C160.402,83.444 157.837,86.012 154.673,86.012C151.51,86.012 148.945,83.444 148.945,80.277C148.945,77.111 151.51,74.543 154.673,74.543C157.837,74.543 160.402,77.111 160.402,80.277Z" fill="#D9D9D9"/>
<path d="M160.402,303.908C160.402,307.074 157.837,309.642 154.673,309.642C151.51,309.642 148.945,307.074 148.945,303.908C148.945,300.741 151.51,298.173 154.673,298.173C157.837,298.173 160.402,300.741 160.402,303.908Z" fill="#D9D9D9"/>
<path d="M160.402,229.364C160.402,232.531 157.837,235.098 154.673,235.098C151.51,235.098 148.945,232.531 148.945,229.364C148.945,226.197 151.51,223.63 154.673,223.63C157.837,223.63 160.402,226.197 160.402,229.364Z" fill="#D9D9D9"/>
<path d="M160.402,452.994C160.402,456.161 157.837,458.728 154.673,458.728C151.51,458.728 148.945,456.161 148.945,452.994C148.945,449.827 151.51,447.26 154.673,447.26C157.837,447.26 160.402,449.827 160.402,452.994Z" fill="#D9D9D9"/>
<path d="M458.291,5.734C458.291,8.901 455.726,11.468 452.563,11.468C449.399,11.468 446.834,8.901 446.834,5.734C446.834,2.567 449.399,0 452.563,0C455.726,0 458.291,2.567 458.291,5.734Z" fill="#D9D9D9"/>
<path d="M458.291,229.364C458.291,232.531 455.726,235.098 452.563,235.098C449.399,235.098 446.834,232.531 446.834,229.364C446.834,226.197 449.399,223.63 452.563,223.63C455.726,223.63 458.291,226.197 458.291,229.364Z" fill="#D9D9D9"/>
<path d="M458.291,154.821C458.291,157.988 455.726,160.555 452.563,160.555C449.399,160.555 446.834,157.988 446.834,154.821C446.834,151.654 449.399,149.087 452.563,149.087C455.726,149.087 458.291,151.654 458.291,154.821Z" fill="#D9D9D9"/>
<path d="M458.291,378.451C458.291,381.618 455.726,384.185 452.563,384.185C449.399,384.185 446.834,381.618 446.834,378.451C446.834,375.284 449.399,372.717 452.563,372.717C455.726,372.717 458.291,375.284 458.291,378.451Z" fill="#D9D9D9"/>
<path d="M160.402,5.734C160.402,8.901 157.837,11.468 154.673,11.468C151.51,11.468 148.945,8.901 148.945,5.734C148.945,2.567 151.51,0 154.673,0C157.837,0 160.402,2.567 160.402,5.734Z" fill="#D9D9D9"/>
<path d="M160.402,229.364C160.402,232.531 157.837,235.098 154.673,235.098C151.51,235.098 148.945,232.531 148.945,229.364C148.945,226.197 151.51,223.63 154.673,223.63C157.837,223.63 160.402,226.197 160.402,229.364Z" fill="#D9D9D9"/>
<path d="M160.402,154.821C160.402,157.988 157.837,160.555 154.673,160.555C151.51,160.555 148.945,157.988 148.945,154.821C148.945,151.654 151.51,149.087 154.673,149.087C157.837,149.087 160.402,151.654 160.402,154.821Z" fill="#D9D9D9"/>
<path d="M160.402,378.451C160.402,381.618 157.837,384.185 154.673,384.185C151.51,384.185 148.945,381.618 148.945,378.451C148.945,375.284 151.51,372.717 154.673,372.717C157.837,372.717 160.402,375.284 160.402,378.451Z" fill="#D9D9D9"/>
<path d="M458.291,117.549C458.291,120.716 455.726,123.283 452.563,123.283C449.399,123.283 446.834,120.716 446.834,117.549C446.834,114.382 449.399,111.815 452.563,111.815C455.726,111.815 458.291,114.382 458.291,117.549Z" fill="#D9D9D9"/>
<path d="M458.291,341.179C458.291,344.346 455.726,346.913 452.563,346.913C449.399,346.913 446.834,344.346 446.834,341.179C446.834,338.012 449.399,335.445 452.563,335.445C455.726,335.445 458.291,338.012 458.291,341.179Z" fill="#D9D9D9"/>
<path d="M458.291,266.636C458.291,269.803 455.726,272.37 452.563,272.37C449.399,272.37 446.834,269.803 446.834,266.636C446.834,263.469 449.399,260.902 452.563,260.902C455.726,260.902 458.291,263.469 458.291,266.636Z" fill="#D9D9D9"/>
<path d="M458.291,490.266C458.291,493.433 455.726,496 452.563,496C449.399,496 446.834,493.433 446.834,490.266C446.834,487.099 449.399,484.532 452.563,484.532C455.726,484.532 458.291,487.099 458.291,490.266Z" fill="#D9D9D9"/>
<path d="M160.402,117.549C160.402,120.716 157.837,123.283 154.673,123.283C151.51,123.283 148.945,120.716 148.945,117.549C148.945,114.382 151.51,111.815 154.673,111.815C157.837,111.815 160.402,114.382 160.402,117.549Z" fill="#D9D9D9"/>
<path d="M160.402,341.179C160.402,344.346 157.837,346.913 154.673,346.913C151.51,346.913 148.945,344.346 148.945,341.179C148.945,338.012 151.51,335.445 154.673,335.445C157.837,335.445 160.402,338.012 160.402,341.179Z" fill="#D9D9D9"/>
<path d="M160.402,266.636C160.402,269.803 157.837,272.37 154.673,272.37C151.51,272.37 148.945,269.803 148.945,266.636C148.945,263.469 151.51,260.902 154.673,260.902C157.837,260.902 160.402,263.469 160.402,266.636Z" fill="#D9D9D9"/>
<path d="M160.402,490.266C160.402,493.433 157.837,496 154.673,496C151.51,496 148.945,493.433 148.945,490.266C148.945,487.099 151.51,484.532 154.673,484.532C157.837,484.532 160.402,487.099 160.402,490.266Z" fill="#D9D9D9"/>
<path d="M458.291,43.006C458.291,46.173 455.726,48.74 452.563,48.74C449.399,48.74 446.834,46.173 446.834,43.006C446.834,39.839 449.399,37.272 452.563,37.272C455.726,37.272 458.291,39.839 458.291,43.006Z" fill="#D9D9D9"/>
<path d="M458.291,266.636C458.291,269.803 455.726,272.37 452.563,272.37C449.399,272.37 446.834,269.803 446.834,266.636C446.834,263.469 449.399,260.902 452.563,260.902C455.726,260.902 458.291,263.469 458.291,266.636Z" fill="#D9D9D9"/>
<path d="M458.291,192.092C458.291,195.259 455.726,197.827 452.563,197.827C449.399,197.827 446.834,195.259 446.834,192.092C446.834,188.926 449.399,186.358 452.563,186.358C455.726,186.358 458.291,188.926 458.291,192.092Z" fill="#D9D9D9"/>
<path d="M458.291,415.723C458.291,418.889 455.726,421.457 452.563,421.457C449.399,421.457 446.834,418.889 446.834,415.723C446.834,412.556 449.399,409.988 452.563,409.988C455.726,409.988 458.291,412.556 458.291,415.723Z" fill="#D9D9D9"/>
<path d="M160.402,43.006C160.402,46.173 157.837,48.74 154.673,48.74C151.51,48.74 148.945,46.173 148.945,43.006C148.945,39.839 151.51,37.272 154.673,37.272C157.837,37.272 160.402,39.839 160.402,43.006Z" fill="#D9D9D9"/>
<path d="M160.402,266.636C160.402,269.803 157.837,272.37 154.673,272.37C151.51,272.37 148.945,269.803 148.945,266.636C148.945,263.469 151.51,260.902 154.673,260.902C157.837,260.902 160.402,263.469 160.402,266.636Z" fill="#D9D9D9"/>
<path d="M160.402,192.092C160.402,195.259 157.837,197.827 154.673,197.827C151.51,197.827 148.945,195.259 148.945,192.092C148.945,188.926 151.51,186.358 154.673,186.358C157.837,186.358 160.402,188.926 160.402,192.092Z" fill="#D9D9D9"/>
<path d="M160.402,415.723C160.402,418.889 157.837,421.457 154.673,421.457C151.51,421.457 148.945,418.889 148.945,415.723C148.945,412.556 151.51,409.988 154.673,409.988C157.837,409.988 160.402,412.556 160.402,415.723Z" fill="#D9D9D9"/>
<path d="M309.347,80.277C309.347,83.444 306.782,86.012 303.618,86.012C300.454,86.012 297.89,83.444 297.89,80.277C297.89,77.111 300.454,74.543 303.618,74.543C306.782,74.543 309.347,77.111 309.347,80.277Z" fill="#D9D9D9"/>
<path d="M309.347,303.908C309.347,307.074 306.782,309.642 303.618,309.642C300.454,309.642 297.89,307.074 297.89,303.908C297.89,300.741 300.454,298.173 303.618,298.173C306.782,298.173 309.347,300.741 309.347,303.908Z" fill="#D9D9D9"/>
<path d="M309.347,229.364C309.347,232.531 306.782,235.098 303.618,235.098C300.454,235.098 297.89,232.531 297.89,229.364C297.89,226.197 300.454,223.63 303.618,223.63C306.782,223.63 309.347,226.197 309.347,229.364Z" fill="#D9D9D9"/>
<path d="M309.347,452.994C309.347,456.161 306.782,458.728 303.618,458.728C300.454,458.728 297.89,456.161 297.89,452.994C297.89,449.827 300.454,447.26 303.618,447.26C306.782,447.26 309.347,449.827 309.347,452.994Z" fill="#D9D9D9"/>
<path d="M11.457,80.277C11.457,83.444 8.892,86.012 5.729,86.012C2.565,86.012 0,83.444 0,80.277C0,77.111 2.565,74.543 5.729,74.543C8.892,74.543 11.457,77.111 11.457,80.277Z" fill="#D9D9D9"/>
<path d="M11.457,303.908C11.457,307.074 8.892,309.642 5.729,309.642C2.565,309.642 0,307.074 0,303.908C0,300.741 2.565,298.173 5.729,298.173C8.892,298.173 11.457,300.741 11.457,303.908Z" fill="#D9D9D9"/>
<path d="M11.457,229.364C11.457,232.531 8.892,235.098 5.729,235.098C2.565,235.098 0,232.531 0,229.364C0,226.197 2.565,223.63 5.729,223.63C8.892,223.63 11.457,226.197 11.457,229.364Z" fill="#D9D9D9"/>
<path d="M11.457,452.994C11.457,456.161 8.892,458.728 5.729,458.728C2.565,458.728 0,456.161 0,452.994C0,449.827 2.565,447.26 5.729,447.26C8.892,447.26 11.457,449.827 11.457,452.994Z" fill="#D9D9D9"/>
<path d="M309.347,5.734C309.347,8.901 306.782,11.468 303.618,11.468C300.454,11.468 297.89,8.901 297.89,5.734C297.89,2.567 300.454,0 303.618,0C306.782,0 309.347,2.567 309.347,5.734Z" fill="#D9D9D9"/>
<path d="M309.347,229.364C309.347,232.531 306.782,235.098 303.618,235.098C300.454,235.098 297.89,232.531 297.89,229.364C297.89,226.197 300.454,223.63 303.618,223.63C306.782,223.63 309.347,226.197 309.347,229.364Z" fill="#D9D9D9"/>
<path d="M309.347,154.821C309.347,157.988 306.782,160.555 303.618,160.555C300.454,160.555 297.89,157.988 297.89,154.821C297.89,151.654 300.454,149.087 303.618,149.087C306.782,149.087 309.347,151.654 309.347,154.821Z" fill="#D9D9D9"/>
<path d="M309.347,378.451C309.347,381.618 306.782,384.185 303.618,384.185C300.454,384.185 297.89,381.618 297.89,378.451C297.89,375.284 300.454,372.717 303.618,372.717C306.782,372.717 309.347,375.284 309.347,378.451Z" fill="#D9D9D9"/>
<path d="M11.457,5.734C11.457,8.901 8.892,11.468 5.729,11.468C2.565,11.468 0,8.901 0,5.734C0,2.567 2.565,0 5.729,0C8.892,0 11.457,2.567 11.457,5.734Z" fill="#D9D9D9"/>
<path d="M11.457,229.364C11.457,232.531 8.892,235.098 5.729,235.098C2.565,235.098 0,232.531 0,229.364C0,226.197 2.565,223.63 5.729,223.63C8.892,223.63 11.457,226.197 11.457,229.364Z" fill="#D9D9D9"/>
<path d="M11.457,154.821C11.457,157.988 8.892,160.555 5.729,160.555C2.565,160.555 0,157.988 0,154.821C0,151.654 2.565,149.087 5.729,149.087C8.892,149.087 11.457,151.654 11.457,154.821Z" fill="#D9D9D9"/>
<path d="M11.457,378.451C11.457,381.618 8.892,384.185 5.729,384.185C2.565,384.185 0,381.618 0,378.451C0,375.284 2.565,372.717 5.729,372.717C8.892,372.717 11.457,375.284 11.457,378.451Z" fill="#D9D9D9"/>
<path d="M309.347,117.549C309.347,120.716 306.782,123.283 303.618,123.283C300.454,123.283 297.89,120.716 297.89,117.549C297.89,114.382 300.454,111.815 303.618,111.815C306.782,111.815 309.347,114.382 309.347,117.549Z" fill="#D9D9D9"/>
<path d="M309.347,341.179C309.347,344.346 306.782,346.913 303.618,346.913C300.454,346.913 297.89,344.346 297.89,341.179C297.89,338.012 300.454,335.445 303.618,335.445C306.782,335.445 309.347,338.012 309.347,341.179Z" fill="#D9D9D9"/>
<path d="M309.347,266.636C309.347,269.803 306.782,272.37 303.618,272.37C300.454,272.37 297.89,269.803 297.89,266.636C297.89,263.469 300.454,260.902 303.618,260.902C306.782,260.902 309.347,263.469 309.347,266.636Z" fill="#D9D9D9"/>
<path d="M309.347,490.266C309.347,493.433 306.782,496 303.618,496C300.454,496 297.89,493.433 297.89,490.266C297.89,487.099 300.454,484.532 303.618,484.532C306.782,484.532 309.347,487.099 309.347,490.266Z" fill="#D9D9D9"/>
<path d="M11.457,117.549C11.457,120.716 8.892,123.283 5.729,123.283C2.565,123.283 0,120.716 0,117.549C0,114.382 2.565,111.815 5.729,111.815C8.892,111.815 11.457,114.382 11.457,117.549Z" fill="#D9D9D9"/>
<path d="M11.457,341.179C11.457,344.346 8.892,346.913 5.729,346.913C2.565,346.913 0,344.346 0,341.179C0,338.012 2.565,335.445 5.729,335.445C8.892,335.445 11.457,338.012 11.457,341.179Z" fill="#D9D9D9"/>
<path d="M11.457,266.636C11.457,269.803 8.892,272.37 5.729,272.37C2.565,272.37 0,269.803 0,266.636C0,263.469 2.565,260.902 5.729,260.902C8.892,260.902 11.457,263.469 11.457,266.636Z" fill="#D9D9D9"/>
<path d="M11.457,490.266C11.457,493.433 8.892,496 5.729,496C2.565,496 0,493.433 0,490.266C0,487.099 2.565,484.532 5.729,484.532C8.892,484.532 11.457,487.099 11.457,490.266Z" fill="#D9D9D9"/>
<path d="M309.347,43.006C309.347,46.173 306.782,48.74 303.618,48.74C300.454,48.74 297.89,46.173 297.89,43.006C297.89,39.839 300.454,37.272 303.618,37.272C306.782,37.272 309.347,39.839 309.347,43.006Z" fill="#D9D9D9"/>
<path d="M309.347,266.636C309.347,269.803 306.782,272.37 303.618,272.37C300.454,272.37 297.89,269.803 297.89,266.636C297.89,263.469 300.454,260.902 303.618,260.902C306.782,260.902 309.347,263.469 309.347,266.636Z" fill="#D9D9D9"/>
<path d="M309.347,192.092C309.347,195.259 306.782,197.827 303.618,197.827C300.454,197.827 297.89,195.259 297.89,192.092C297.89,188.926 300.454,186.358 303.618,186.358C306.782,186.358 309.347,188.926 309.347,192.092Z" fill="#D9D9D9"/>
<path d="M309.347,415.723C309.347,418.889 306.782,421.457 303.618,421.457C300.454,421.457 297.89,418.889 297.89,415.723C297.89,412.556 300.454,409.988 303.618,409.988C306.782,409.988 309.347,412.556 309.347,415.723Z" fill="#D9D9D9"/>
<path d="M11.457,43.006C11.457,46.173 8.892,48.74 5.729,48.74C2.565,48.74 0,46.173 0,43.006C0,39.839 2.565,37.272 5.729,37.272C8.892,37.272 11.457,39.839 11.457,43.006Z" fill="#D9D9D9"/>
<path d="M11.457,266.636C11.457,269.803 8.892,272.37 5.729,272.37C2.565,272.37 0,269.803 0,266.636C0,263.469 2.565,260.902 5.729,260.902C8.892,260.902 11.457,263.469 11.457,266.636Z" fill="#D9D9D9"/>
<path d="M11.457,192.092C11.457,195.259 8.892,197.827 5.729,197.827C2.565,197.827 0,195.259 0,192.092C0,188.926 2.565,186.358 5.729,186.358C8.892,186.358 11.457,188.926 11.457,192.092Z" fill="#D9D9D9"/>
<path d="M11.457,415.723C11.457,418.889 8.892,421.457 5.729,421.457C2.565,421.457 0,418.889 0,415.723C0,412.556 2.565,409.988 5.729,409.988C8.892,409.988 11.457,412.556 11.457,415.723Z" fill="#D9D9D9"/>
<path d="M532.764,80.277C532.764,83.444 530.199,86.012 527.035,86.012C523.871,86.012 521.307,83.444 521.307,80.277C521.307,77.111 523.871,74.543 527.035,74.543C530.199,74.543 532.764,77.111 532.764,80.277Z" fill="#D9D9D9"/>
<path d="M532.764,303.908C532.764,307.074 530.199,309.642 527.035,309.642C523.871,309.642 521.307,307.074 521.307,303.908C521.307,300.741 523.871,298.173 527.035,298.173C530.199,298.173 532.764,300.741 532.764,303.908Z" fill="#D9D9D9"/>
<path d="M532.764,229.364C532.764,232.531 530.199,235.098 527.035,235.098C523.871,235.098 521.307,232.531 521.307,229.364C521.307,226.197 523.871,223.63 527.035,223.63C530.199,223.63 532.764,226.197 532.764,229.364Z" fill="#D9D9D9"/>
<path d="M532.764,452.994C532.764,456.161 530.199,458.728 527.035,458.728C523.871,458.728 521.307,456.161 521.307,452.994C521.307,449.827 523.871,447.26 527.035,447.26C530.199,447.26 532.764,449.827 532.764,452.994Z" fill="#D9D9D9"/>
<path d="M234.874,80.277C234.874,83.444 232.309,86.012 229.146,86.012C225.982,86.012 223.417,83.444 223.417,80.277C223.417,77.111 225.982,74.543 229.146,74.543C232.309,74.543 234.874,77.111 234.874,80.277Z" fill="#D9D9D9"/>
<path d="M234.874,303.908C234.874,307.074 232.309,309.642 229.146,309.642C225.982,309.642 223.417,307.074 223.417,303.908C223.417,300.741 225.982,298.173 229.146,298.173C232.309,298.173 234.874,300.741 234.874,303.908Z" fill="#D9D9D9"/>
<path d="M234.874,229.364C234.874,232.531 232.309,235.098 229.146,235.098C225.982,235.098 223.417,232.531 223.417,229.364C223.417,226.197 225.982,223.63 229.146,223.63C232.309,223.63 234.874,226.197 234.874,229.364Z" fill="#D9D9D9"/>
<path d="M234.874,452.994C234.874,456.161 232.309,458.728 229.146,458.728C225.982,458.728 223.417,456.161 223.417,452.994C223.417,449.827 225.982,447.26 229.146,447.26C232.309,447.26 234.874,449.827 234.874,452.994Z" fill="#D9D9D9"/>
<path d="M532.764,5.734C532.764,8.901 530.199,11.468 527.035,11.468C523.871,11.468 521.307,8.901 521.307,5.734C521.307,2.567 523.871,0 527.035,0C530.199,0 532.764,2.567 532.764,5.734Z" fill="#D9D9D9"/>
<path d="M532.764,229.364C532.764,232.531 530.199,235.098 527.035,235.098C523.871,235.098 521.307,232.531 521.307,229.364C521.307,226.197 523.871,223.63 527.035,223.63C530.199,223.63 532.764,226.197 532.764,229.364Z" fill="#D9D9D9"/>
<path d="M532.764,154.821C532.764,157.988 530.199,160.555 527.035,160.555C523.871,160.555 521.307,157.988 521.307,154.821C521.307,151.654 523.871,149.087 527.035,149.087C530.199,149.087 532.764,151.654 532.764,154.821Z" fill="#D9D9D9"/>
<path d="M532.764,378.451C532.764,381.618 530.199,384.185 527.035,384.185C523.871,384.185 521.307,381.618 521.307,378.451C521.307,375.284 523.871,372.717 527.035,372.717C530.199,372.717 532.764,375.284 532.764,378.451Z" fill="#D9D9D9"/>
<path d="M234.874,5.734C234.874,8.901 232.309,11.468 229.146,11.468C225.982,11.468 223.417,8.901 223.417,5.734C223.417,2.567 225.982,0 229.146,0C232.309,0 234.874,2.567 234.874,5.734Z" fill="#D9D9D9"/>
<path d="M234.874,229.364C234.874,232.531 232.309,235.098 229.146,235.098C225.982,235.098 223.417,232.531 223.417,229.364C223.417,226.197 225.982,223.63 229.146,223.63C232.309,223.63 234.874,226.197 234.874,229.364Z" fill="#D9D9D9"/>
<path d="M234.874,154.821C234.874,157.988 232.309,160.555 229.146,160.555C225.982,160.555 223.417,157.988 223.417,154.821C223.417,151.654 225.982,149.087 229.146,149.087C232.309,149.087 234.874,151.654 234.874,154.821Z" fill="#D9D9D9"/>
<path d="M234.874,378.451C234.874,381.618 232.309,384.185 229.146,384.185C225.982,384.185 223.417,381.618 223.417,378.451C223.417,375.284 225.982,372.717 229.146,372.717C232.309,372.717 234.874,375.284 234.874,378.451Z" fill="#D9D9D9"/>
<path d="M532.764,117.549C532.764,120.716 530.199,123.283 527.035,123.283C523.871,123.283 521.307,120.716 521.307,117.549C521.307,114.382 523.871,111.815 527.035,111.815C530.199,111.815 532.764,114.382 532.764,117.549Z" fill="#D9D9D9"/>
<path d="M532.764,341.179C532.764,344.346 530.199,346.913 527.035,346.913C523.871,346.913 521.307,344.346 521.307,341.179C521.307,338.012 523.871,335.445 527.035,335.445C530.199,335.445 532.764,338.012 532.764,341.179Z" fill="#D9D9D9"/>
<path d="M532.764,266.636C532.764,269.803 530.199,272.37 527.035,272.37C523.871,272.37 521.307,269.803 521.307,266.636C521.307,263.469 523.871,260.902 527.035,260.902C530.199,260.902 532.764,263.469 532.764,266.636Z" fill="#D9D9D9"/>
<path d="M532.764,490.266C532.764,493.433 530.199,496 527.035,496C523.871,496 521.307,493.433 521.307,490.266C521.307,487.099 523.871,484.532 527.035,484.532C530.199,484.532 532.764,487.099 532.764,490.266Z" fill="#D9D9D9"/>
<path d="M234.874,117.549C234.874,120.716 232.309,123.283 229.146,123.283C225.982,123.283 223.417,120.716 223.417,117.549C223.417,114.382 225.982,111.815 229.146,111.815C232.309,111.815 234.874,114.382 234.874,117.549Z" fill="#D9D9D9"/>
<path d="M234.874,341.179C234.874,344.346 232.309,346.913 229.146,346.913C225.982,346.913 223.417,344.346 223.417,341.179C223.417,338.012 225.982,335.445 229.146,335.445C232.309,335.445 234.874,338.012 234.874,341.179Z" fill="#D9D9D9"/>
<path d="M234.874,266.636C234.874,269.803 232.309,272.37 229.146,272.37C225.982,272.37 223.417,269.803 223.417,266.636C223.417,263.469 225.982,260.902 229.146,260.902C232.309,260.902 234.874,263.469 234.874,266.636Z" fill="#D9D9D9"/>
<path d="M234.874,490.266C234.874,493.433 232.309,496 229.146,496C225.982,496 223.417,493.433 223.417,490.266C223.417,487.099 225.982,484.532 229.146,484.532C232.309,484.532 234.874,487.099 234.874,490.266Z" fill="#D9D9D9"/>
<path d="M532.764,43.006C532.764,46.173 530.199,48.74 527.035,48.74C523.871,48.74 521.307,46.173 521.307,43.006C521.307,39.839 523.871,37.272 527.035,37.272C530.199,37.272 532.764,39.839 532.764,43.006Z" fill="#D9D9D9"/>
<path d="M532.764,266.636C532.764,269.803 530.199,272.37 527.035,272.37C523.871,272.37 521.307,269.803 521.307,266.636C521.307,263.469 523.871,260.902 527.035,260.902C530.199,260.902 532.764,263.469 532.764,266.636Z" fill="#D9D9D9"/>
<path d="M532.764,192.092C532.764,195.259 530.199,197.827 527.035,197.827C523.871,197.827 521.307,195.259 521.307,192.092C521.307,188.926 523.871,186.358 527.035,186.358C530.199,186.358 532.764,188.926 532.764,192.092Z" fill="#D9D9D9"/>
<path d="M532.764,415.723C532.764,418.889 530.199,421.457 527.035,421.457C523.871,421.457 521.307,418.889 521.307,415.723C521.307,412.556 523.871,409.988 527.035,409.988C530.199,409.988 532.764,412.556 532.764,415.723Z" fill="#D9D9D9"/>
<path d="M234.874,43.006C234.874,46.173 232.309,48.74 229.146,48.74C225.982,48.74 223.417,46.173 223.417,43.006C223.417,39.839 225.982,37.272 229.146,37.272C232.309,37.272 234.874,39.839 234.874,43.006Z" fill="#D9D9D9"/>
<path d="M234.874,266.636C234.874,269.803 232.309,272.37 229.146,272.37C225.982,272.37 223.417,269.803 223.417,266.636C223.417,263.469 225.982,260.902 229.146,260.902C232.309,260.902 234.874,263.469 234.874,266.636Z" fill="#D9D9D9"/>
<path d="M234.874,192.092C234.874,195.259 232.309,197.827 229.146,197.827C225.982,197.827 223.417,195.259 223.417,192.092C223.417,188.926 225.982,186.358 229.146,186.358C232.309,186.358 234.874,188.926 234.874,192.092Z" fill="#D9D9D9"/>
<path d="M234.874,415.723C234.874,418.889 232.309,421.457 229.146,421.457C225.982,421.457 223.417,418.889 223.417,415.723C223.417,412.556 225.982,409.988 229.146,409.988C232.309,409.988 234.874,412.556 234.874,415.723Z" fill="#D9D9D9"/>
<path d="M383.819,80.277C383.819,83.444 381.254,86.012 378.09,86.012C374.927,86.012 372.362,83.444 372.362,80.277C372.362,77.111 374.927,74.543 378.09,74.543C381.254,74.543 383.819,77.111 383.819,80.277Z" fill="#D9D9D9"/>
<path d="M383.819,303.908C383.819,307.074 381.254,309.642 378.09,309.642C374.927,309.642 372.362,307.074 372.362,303.908C372.362,300.741 374.927,298.173 378.09,298.173C381.254,298.173 383.819,300.741 383.819,303.908Z" fill="#D9D9D9"/>
<path d="M383.819,229.364C383.819,232.531 381.254,235.098 378.09,235.098C374.927,235.098 372.362,232.531 372.362,229.364C372.362,226.197 374.927,223.63 378.09,223.63C381.254,223.63 383.819,226.197 383.819,229.364Z" fill="#D9D9D9"/>
<path d="M383.819,452.994C383.819,456.161 381.254,458.728 378.09,458.728C374.927,458.728 372.362,456.161 372.362,452.994C372.362,449.827 374.927,447.26 378.09,447.26C381.254,447.26 383.819,449.827 383.819,452.994Z" fill="#D9D9D9"/>
<path d="M85.929,80.277C85.929,83.444 83.365,86.012 80.201,86.012C77.037,86.012 74.472,83.444 74.472,80.277C74.472,77.111 77.037,74.543 80.201,74.543C83.365,74.543 85.929,77.111 85.929,80.277Z" fill="#D9D9D9"/>
<path d="M85.929,303.908C85.929,307.074 83.365,309.642 80.201,309.642C77.037,309.642 74.472,307.074 74.472,303.908C74.472,300.741 77.037,298.173 80.201,298.173C83.365,298.173 85.929,300.741 85.929,303.908Z" fill="#D9D9D9"/>
<path d="M85.929,229.364C85.929,232.531 83.365,235.098 80.201,235.098C77.037,235.098 74.472,232.531 74.472,229.364C74.472,226.197 77.037,223.63 80.201,223.63C83.365,223.63 85.929,226.197 85.929,229.364Z" fill="#D9D9D9"/>
<path d="M85.929,452.994C85.929,456.161 83.365,458.728 80.201,458.728C77.037,458.728 74.472,456.161 74.472,452.994C74.472,449.827 77.037,447.26 80.201,447.26C83.365,447.26 85.929,449.827 85.929,452.994Z" fill="#D9D9D9"/>
<path d="M383.819,5.734C383.819,8.901 381.254,11.468 378.09,11.468C374.927,11.468 372.362,8.901 372.362,5.734C372.362,2.567 374.927,0 378.09,0C381.254,0 383.819,2.567 383.819,5.734Z" fill="#D9D9D9"/>
<path d="M383.819,229.364C383.819,232.531 381.254,235.098 378.09,235.098C374.927,235.098 372.362,232.531 372.362,229.364C372.362,226.197 374.927,223.63 378.09,223.63C381.254,223.63 383.819,226.197 383.819,229.364Z" fill="#D9D9D9"/>
<path d="M383.819,154.821C383.819,157.988 381.254,160.555 378.09,160.555C374.927,160.555 372.362,157.988 372.362,154.821C372.362,151.654 374.927,149.087 378.09,149.087C381.254,149.087 383.819,151.654 383.819,154.821Z" fill="#D9D9D9"/>
<path d="M383.819,378.451C383.819,381.618 381.254,384.185 378.09,384.185C374.927,384.185 372.362,381.618 372.362,378.451C372.362,375.284 374.927,372.717 378.09,372.717C381.254,372.717 383.819,375.284 383.819,378.451Z" fill="#D9D9D9"/>
<path d="M85.929,5.734C85.929,8.901 83.365,11.468 80.201,11.468C77.037,11.468 74.472,8.901 74.472,5.734C74.472,2.567 77.037,0 80.201,0C83.365,0 85.929,2.567 85.929,5.734Z" fill="#D9D9D9"/>
<path d="M85.929,229.364C85.929,232.531 83.365,235.098 80.201,235.098C77.037,235.098 74.472,232.531 74.472,229.364C74.472,226.197 77.037,223.63 80.201,223.63C83.365,223.63 85.929,226.197 85.929,229.364Z" fill="#D9D9D9"/>
<path d="M85.929,154.821C85.929,157.988 83.365,160.555 80.201,160.555C77.037,160.555 74.472,157.988 74.472,154.821C74.472,151.654 77.037,149.087 80.201,149.087C83.365,149.087 85.929,151.654 85.929,154.821Z" fill="#D9D9D9"/>
<path d="M85.929,378.451C85.929,381.618 83.365,384.185 80.201,384.185C77.037,384.185 74.472,381.618 74.472,378.451C74.472,375.284 77.037,372.717 80.201,372.717C83.365,372.717 85.929,375.284 85.929,378.451Z" fill="#D9D9D9"/>
<path d="M383.819,117.549C383.819,120.716 381.254,123.283 378.09,123.283C374.927,123.283 372.362,120.716 372.362,117.549C372.362,114.382 374.927,111.815 378.09,111.815C381.254,111.815 383.819,114.382 383.819,117.549Z" fill="#D9D9D9"/>
<path d="M383.819,341.179C383.819,344.346 381.254,346.913 378.09,346.913C374.927,346.913 372.362,344.346 372.362,341.179C372.362,338.012 374.927,335.445 378.09,335.445C381.254,335.445 383.819,338.012 383.819,341.179Z" fill="#D9D9D9"/>
<path d="M383.819,266.636C383.819,269.803 381.254,272.37 378.09,272.37C374.927,272.37 372.362,269.803 372.362,266.636C372.362,263.469 374.927,260.902 378.09,260.902C381.254,260.902 383.819,263.469 383.819,266.636Z" fill="#D9D9D9"/>
<path d="M383.819,490.266C383.819,493.433 381.254,496 378.09,496C374.927,496 372.362,493.433 372.362,490.266C372.362,487.099 374.927,484.532 378.09,484.532C381.254,484.532 383.819,487.099 383.819,490.266Z" fill="#D9D9D9"/>
<path d="M85.929,117.549C85.929,120.716 83.365,123.283 80.201,123.283C77.037,123.283 74.472,120.716 74.472,117.549C74.472,114.382 77.037,111.815 80.201,111.815C83.365,111.815 85.929,114.382 85.929,117.549Z" fill="#D9D9D9"/>
<path d="M85.929,341.179C85.929,344.346 83.365,346.913 80.201,346.913C77.037,346.913 74.472,344.346 74.472,341.179C74.472,338.012 77.037,335.445 80.201,335.445C83.365,335.445 85.929,338.012 85.929,341.179Z" fill="#D9D9D9"/>
<path d="M85.929,266.636C85.929,269.803 83.365,272.37 80.201,272.37C77.037,272.37 74.472,269.803 74.472,266.636C74.472,263.469 77.037,260.902 80.201,260.902C83.365,260.902 85.929,263.469 85.929,266.636Z" fill="#D9D9D9"/>
<path d="M85.929,490.266C85.929,493.433 83.365,496 80.201,496C77.037,496 74.472,493.433 74.472,490.266C74.472,487.099 77.037,484.532 80.201,484.532C83.365,484.532 85.929,487.099 85.929,490.266Z" fill="#D9D9D9"/>
<path d="M383.819,43.006C383.819,46.173 381.254,48.74 378.09,48.74C374.927,48.74 372.362,46.173 372.362,43.006C372.362,39.839 374.927,37.272 378.09,37.272C381.254,37.272 383.819,39.839 383.819,43.006Z" fill="#D9D9D9"/>
<path d="M383.819,266.636C383.819,269.803 381.254,272.37 378.09,272.37C374.927,272.37 372.362,269.803 372.362,266.636C372.362,263.469 374.927,260.902 378.09,260.902C381.254,260.902 383.819,263.469 383.819,266.636Z" fill="#D9D9D9"/>
<path d="M383.819,192.092C383.819,195.259 381.254,197.827 378.09,197.827C374.927,197.827 372.362,195.259 372.362,192.092C372.362,188.926 374.927,186.358 378.09,186.358C381.254,186.358 383.819,188.926 383.819,192.092Z" fill="#D9D9D9"/>
<path d="M383.819,415.723C383.819,418.889 381.254,421.457 378.09,421.457C374.927,421.457 372.362,418.889 372.362,415.723C372.362,412.556 374.927,409.988 378.09,409.988C381.254,409.988 383.819,412.556 383.819,415.723Z" fill="#D9D9D9"/>
<path d="M85.929,43.006C85.929,46.173 83.365,48.74 80.201,48.74C77.037,48.74 74.472,46.173 74.472,43.006C74.472,39.839 77.037,37.272 80.201,37.272C83.365,37.272 85.929,39.839 85.929,43.006Z" fill="#D9D9D9"/>
<path d="M85.929,266.636C85.929,269.803 83.365,272.37 80.201,272.37C77.037,272.37 74.472,269.803 74.472,266.636C74.472,263.469 77.037,260.902 80.201,260.902C83.365,260.902 85.929,263.469 85.929,266.636Z" fill="#D9D9D9"/>
<path d="M85.929,192.092C85.929,195.259 83.365,197.827 80.201,197.827C77.037,197.827 74.472,195.259 74.472,192.092C74.472,188.926 77.037,186.358 80.201,186.358C83.365,186.358 85.929,188.926 85.929,192.092Z" fill="#D9D9D9"/>
<path d="M85.929,415.723C85.929,418.889 83.365,421.457 80.201,421.457C77.037,421.457 74.472,418.889 74.472,415.723C74.472,412.556 77.037,409.988 80.201,409.988C83.365,409.988 85.929,412.556 85.929,415.723Z" fill="#D9D9D9"/>
<path d="M495.528,80.277C495.528,83.444 492.963,86.012 489.799,86.012C486.635,86.012 484.07,83.444 484.07,80.277C484.07,77.111 486.635,74.543 489.799,74.543C492.963,74.543 495.528,77.111 495.528,80.277Z" fill="#D9D9D9"/>
<path d="M495.528,303.908C495.528,307.074 492.963,309.642 489.799,309.642C486.635,309.642 484.07,307.074 484.07,303.908C484.07,300.741 486.635,298.173 489.799,298.173C492.963,298.173 495.528,300.741 495.528,303.908Z" fill="#D9D9D9"/>
<path d="M495.528,229.364C495.528,232.531 492.963,235.098 489.799,235.098C486.635,235.098 484.07,232.531 484.07,229.364C484.07,226.197 486.635,223.63 489.799,223.63C492.963,223.63 495.528,226.197 495.528,229.364Z" fill="#D9D9D9"/>
<path d="M495.528,452.994C495.528,456.161 492.963,458.728 489.799,458.728C486.635,458.728 484.07,456.161 484.07,452.994C484.07,449.827 486.635,447.26 489.799,447.26C492.963,447.26 495.528,449.827 495.528,452.994Z" fill="#D9D9D9"/>
<path d="M197.638,80.277C197.638,83.444 195.073,86.012 191.909,86.012C188.745,86.012 186.181,83.444 186.181,80.277C186.181,77.111 188.745,74.543 191.909,74.543C195.073,74.543 197.638,77.111 197.638,80.277Z" fill="#D9D9D9"/>
<path d="M197.638,303.908C197.638,307.074 195.073,309.642 191.909,309.642C188.745,309.642 186.181,307.074 186.181,303.908C186.181,300.741 188.745,298.173 191.909,298.173C195.073,298.173 197.638,300.741 197.638,303.908Z" fill="#D9D9D9"/>
<path d="M197.638,229.364C197.638,232.531 195.073,235.098 191.909,235.098C188.745,235.098 186.181,232.531 186.181,229.364C186.181,226.197 188.745,223.63 191.909,223.63C195.073,223.63 197.638,226.197 197.638,229.364Z" fill="#D9D9D9"/>
<path d="M197.638,452.994C197.638,456.161 195.073,458.728 191.909,458.728C188.745,458.728 186.181,456.161 186.181,452.994C186.181,449.827 188.745,447.26 191.909,447.26C195.073,447.26 197.638,449.827 197.638,452.994Z" fill="#D9D9D9"/>
<path d="M495.528,5.734C495.528,8.901 492.963,11.468 489.799,11.468C486.635,11.468 484.07,8.901 484.07,5.734C484.07,2.567 486.635,0 489.799,0C492.963,0 495.528,2.567 495.528,5.734Z" fill="#D9D9D9"/>
<path d="M495.528,229.364C495.528,232.531 492.963,235.098 489.799,235.098C486.635,235.098 484.07,232.531 484.07,229.364C484.07,226.197 486.635,223.63 489.799,223.63C492.963,223.63 495.528,226.197 495.528,229.364Z" fill="#D9D9D9"/>
<path d="M495.528,154.821C495.528,157.988 492.963,160.555 489.799,160.555C486.635,160.555 484.07,157.988 484.07,154.821C484.07,151.654 486.635,149.087 489.799,149.087C492.963,149.087 495.528,151.654 495.528,154.821Z" fill="#D9D9D9"/>
<path d="M495.528,378.451C495.528,381.618 492.963,384.185 489.799,384.185C486.635,384.185 484.07,381.618 484.07,378.451C484.07,375.284 486.635,372.717 489.799,372.717C492.963,372.717 495.528,375.284 495.528,378.451Z" fill="#D9D9D9"/>
<path d="M197.638,5.734C197.638,8.901 195.073,11.468 191.909,11.468C188.745,11.468 186.181,8.901 186.181,5.734C186.181,2.567 188.745,0 191.909,0C195.073,0 197.638,2.567 197.638,5.734Z" fill="#D9D9D9"/>
<path d="M197.638,229.364C197.638,232.531 195.073,235.098 191.909,235.098C188.745,235.098 186.181,232.531 186.181,229.364C186.181,226.197 188.745,223.63 191.909,223.63C195.073,223.63 197.638,226.197 197.638,229.364Z" fill="#D9D9D9"/>
<path d="M197.638,154.821C197.638,157.988 195.073,160.555 191.909,160.555C188.745,160.555 186.181,157.988 186.181,154.821C186.181,151.654 188.745,149.087 191.909,149.087C195.073,149.087 197.638,151.654 197.638,154.821Z" fill="#D9D9D9"/>
<path d="M197.638,378.451C197.638,381.618 195.073,384.185 191.909,384.185C188.745,384.185 186.181,381.618 186.181,378.451C186.181,375.284 188.745,372.717 191.909,372.717C195.073,372.717 197.638,375.284 197.638,378.451Z" fill="#D9D9D9"/>
<path d="M495.528,117.549C495.528,120.716 492.963,123.283 489.799,123.283C486.635,123.283 484.07,120.716 484.07,117.549C484.07,114.382 486.635,111.815 489.799,111.815C492.963,111.815 495.528,114.382 495.528,117.549Z" fill="#D9D9D9"/>
<path d="M495.528,341.179C495.528,344.346 492.963,346.913 489.799,346.913C486.635,346.913 484.07,344.346 484.07,341.179C484.07,338.012 486.635,335.445 489.799,335.445C492.963,335.445 495.528,338.012 495.528,341.179Z" fill="#D9D9D9"/>
<path d="M495.528,266.636C495.528,269.803 492.963,272.37 489.799,272.37C486.635,272.37 484.07,269.803 484.07,266.636C484.07,263.469 486.635,260.902 489.799,260.902C492.963,260.902 495.528,263.469 495.528,266.636Z" fill="#D9D9D9"/>
<path d="M495.528,490.266C495.528,493.433 492.963,496 489.799,496C486.635,496 484.07,493.433 484.07,490.266C484.07,487.099 486.635,484.532 489.799,484.532C492.963,484.532 495.528,487.099 495.528,490.266Z" fill="#D9D9D9"/>
<path d="M197.638,117.549C197.638,120.716 195.073,123.283 191.909,123.283C188.745,123.283 186.181,120.716 186.181,117.549C186.181,114.382 188.745,111.815 191.909,111.815C195.073,111.815 197.638,114.382 197.638,117.549Z" fill="#D9D9D9"/>
<path d="M197.638,341.179C197.638,344.346 195.073,346.913 191.909,346.913C188.745,346.913 186.181,344.346 186.181,341.179C186.181,338.012 188.745,335.445 191.909,335.445C195.073,335.445 197.638,338.012 197.638,341.179Z" fill="#D9D9D9"/>
<path d="M197.638,266.636C197.638,269.803 195.073,272.37 191.909,272.37C188.745,272.37 186.181,269.803 186.181,266.636C186.181,263.469 188.745,260.902 191.909,260.902C195.073,260.902 197.638,263.469 197.638,266.636Z" fill="#D9D9D9"/>
<path d="M197.638,490.266C197.638,493.433 195.073,496 191.909,496C188.745,496 186.181,493.433 186.181,490.266C186.181,487.099 188.745,484.532 191.909,484.532C195.073,484.532 197.638,487.099 197.638,490.266Z" fill="#D9D9D9"/>
<path d="M495.528,43.006C495.528,46.173 492.963,48.74 489.799,48.74C486.635,48.74 484.07,46.173 484.07,43.006C484.07,39.839 486.635,37.272 489.799,37.272C492.963,37.272 495.528,39.839 495.528,43.006Z" fill="#D9D9D9"/>
<path d="M495.528,266.636C495.528,269.803 492.963,272.37 489.799,272.37C486.635,272.37 484.07,269.803 484.07,266.636C484.07,263.469 486.635,260.902 489.799,260.902C492.963,260.902 495.528,263.469 495.528,266.636Z" fill="#D9D9D9"/>
<path d="M495.528,192.092C495.528,195.259 492.963,197.827 489.799,197.827C486.635,197.827 484.07,195.259 484.07,192.092C484.07,188.926 486.635,186.358 489.799,186.358C492.963,186.358 495.528,188.926 495.528,192.092Z" fill="#D9D9D9"/>
<path d="M495.528,415.723C495.528,418.889 492.963,421.457 489.799,421.457C486.635,421.457 484.07,418.889 484.07,415.723C484.07,412.556 486.635,409.988 489.799,409.988C492.963,409.988 495.528,412.556 495.528,415.723Z" fill="#D9D9D9"/>
<path d="M197.638,43.006C197.638,46.173 195.073,48.74 191.909,48.74C188.745,48.74 186.181,46.173 186.181,43.006C186.181,39.839 188.745,37.272 191.909,37.272C195.073,37.272 197.638,39.839 197.638,43.006Z" fill="#D9D9D9"/>
<path d="M197.638,266.636C197.638,269.803 195.073,272.37 191.909,272.37C188.745,272.37 186.181,269.803 186.181,266.636C186.181,263.469 188.745,260.902 191.909,260.902C195.073,260.902 197.638,263.469 197.638,266.636Z" fill="#D9D9D9"/>
<path d="M197.638,192.092C197.638,195.259 195.073,197.827 191.909,197.827C188.745,197.827 186.181,195.259 186.181,192.092C186.181,188.926 188.745,186.358 191.909,186.358C195.073,186.358 197.638,188.926 197.638,192.092Z" fill="#D9D9D9"/>
<path d="M197.638,415.723C197.638,418.889 195.073,421.457 191.909,421.457C188.745,421.457 186.181,418.889 186.181,415.723C186.181,412.556 188.745,409.988 191.909,409.988C195.073,409.988 197.638,412.556 197.638,415.723Z" fill="#D9D9D9"/>
<path d="M346.583,80.277C346.583,83.444 344.018,86.012 340.854,86.012C337.69,86.012 335.125,83.444 335.125,80.277C335.125,77.111 337.69,74.543 340.854,74.543C344.018,74.543 346.583,77.111 346.583,80.277Z" fill="#D9D9D9"/>
<path d="M346.583,303.908C346.583,307.074 344.018,309.642 340.854,309.642C337.69,309.642 335.125,307.074 335.125,303.908C335.125,300.741 337.69,298.173 340.854,298.173C344.018,298.173 346.583,300.741 346.583,303.908Z" fill="#D9D9D9"/>
<path d="M346.583,229.364C346.583,232.531 344.018,235.098 340.854,235.098C337.69,235.098 335.125,232.531 335.125,229.364C335.125,226.197 337.69,223.63 340.854,223.63C344.018,223.63 346.583,226.197 346.583,229.364Z" fill="#D9D9D9"/>
<path d="M346.583,452.994C346.583,456.161 344.018,458.728 340.854,458.728C337.69,458.728 335.125,456.161 335.125,452.994C335.125,449.827 337.69,447.26 340.854,447.26C344.018,447.26 346.583,449.827 346.583,452.994Z" fill="#D9D9D9"/>
<path d="M48.694,80.277C48.694,83.444 46.129,86.012 42.965,86.012C39.801,86.012 37.236,83.444 37.236,80.277C37.236,77.111 39.801,74.543 42.965,74.543C46.129,74.543 48.694,77.111 48.694,80.277Z" fill="#D9D9D9"/>
<path d="M48.694,303.908C48.694,307.074 46.129,309.642 42.965,309.642C39.801,309.642 37.236,307.074 37.236,303.908C37.236,300.741 39.801,298.173 42.965,298.173C46.129,298.173 48.694,300.741 48.694,303.908Z" fill="#D9D9D9"/>
<path d="M48.694,229.364C48.694,232.531 46.129,235.098 42.965,235.098C39.801,235.098 37.236,232.531 37.236,229.364C37.236,226.197 39.801,223.63 42.965,223.63C46.129,223.63 48.694,226.197 48.694,229.364Z" fill="#D9D9D9"/>
<path d="M48.694,452.994C48.694,456.161 46.129,458.728 42.965,458.728C39.801,458.728 37.236,456.161 37.236,452.994C37.236,449.827 39.801,447.26 42.965,447.26C46.129,447.26 48.694,449.827 48.694,452.994Z" fill="#D9D9D9"/>
<path d="M346.583,5.734C346.583,8.901 344.018,11.468 340.854,11.468C337.69,11.468 335.125,8.901 335.125,5.734C335.125,2.567 337.69,0 340.854,0C344.018,0 346.583,2.567 346.583,5.734Z" fill="#D9D9D9"/>
<path d="M346.583,229.364C346.583,232.531 344.018,235.098 340.854,235.098C337.69,235.098 335.125,232.531 335.125,229.364C335.125,226.197 337.69,223.63 340.854,223.63C344.018,223.63 346.583,226.197 346.583,229.364Z" fill="#D9D9D9"/>
<path d="M346.583,154.821C346.583,157.988 344.018,160.555 340.854,160.555C337.69,160.555 335.125,157.988 335.125,154.821C335.125,151.654 337.69,149.087 340.854,149.087C344.018,149.087 346.583,151.654 346.583,154.821Z" fill="#D9D9D9"/>
<path d="M346.583,378.451C346.583,381.618 344.018,384.185 340.854,384.185C337.69,384.185 335.125,381.618 335.125,378.451C335.125,375.284 337.69,372.717 340.854,372.717C344.018,372.717 346.583,375.284 346.583,378.451Z" fill="#D9D9D9"/>
<path d="M48.694,5.734C48.694,8.901 46.129,11.468 42.965,11.468C39.801,11.468 37.236,8.901 37.236,5.734C37.236,2.567 39.801,0 42.965,0C46.129,0 48.694,2.567 48.694,5.734Z" fill="#D9D9D9"/>
<path d="M48.694,229.364C48.694,232.531 46.129,235.098 42.965,235.098C39.801,235.098 37.236,232.531 37.236,229.364C37.236,226.197 39.801,223.63 42.965,223.63C46.129,223.63 48.694,226.197 48.694,229.364Z" fill="#D9D9D9"/>
<path d="M48.694,154.821C48.694,157.988 46.129,160.555 42.965,160.555C39.801,160.555 37.236,157.988 37.236,154.821C37.236,151.654 39.801,149.087 42.965,149.087C46.129,149.087 48.694,151.654 48.694,154.821Z" fill="#D9D9D9"/>
<path d="M48.694,378.451C48.694,381.618 46.129,384.185 42.965,384.185C39.801,384.185 37.236,381.618 37.236,378.451C37.236,375.284 39.801,372.717 42.965,372.717C46.129,372.717 48.694,375.284 48.694,378.451Z" fill="#D9D9D9"/>
<path d="M346.583,117.549C346.583,120.716 344.018,123.283 340.854,123.283C337.69,123.283 335.125,120.716 335.125,117.549C335.125,114.382 337.69,111.815 340.854,111.815C344.018,111.815 346.583,114.382 346.583,117.549Z" fill="#D9D9D9"/>
<path d="M346.583,341.179C346.583,344.346 344.018,346.913 340.854,346.913C337.69,346.913 335.125,344.346 335.125,341.179C335.125,338.012 337.69,335.445 340.854,335.445C344.018,335.445 346.583,338.012 346.583,341.179Z" fill="#D9D9D9"/>
<path d="M346.583,266.636C346.583,269.803 344.018,272.37 340.854,272.37C337.69,272.37 335.125,269.803 335.125,266.636C335.125,263.469 337.69,260.902 340.854,260.902C344.018,260.902 346.583,263.469 346.583,266.636Z" fill="#D9D9D9"/>
<path d="M346.583,490.266C346.583,493.433 344.018,496 340.854,496C337.69,496 335.125,493.433 335.125,490.266C335.125,487.099 337.69,484.532 340.854,484.532C344.018,484.532 346.583,487.099 346.583,490.266Z" fill="#D9D9D9"/>
<path d="M48.694,117.549C48.694,120.716 46.129,123.283 42.965,123.283C39.801,123.283 37.236,120.716 37.236,117.549C37.236,114.382 39.801,111.815 42.965,111.815C46.129,111.815 48.694,114.382 48.694,117.549Z" fill="#D9D9D9"/>
<path d="M48.694,341.179C48.694,344.346 46.129,346.913 42.965,346.913C39.801,346.913 37.236,344.346 37.236,341.179C37.236,338.012 39.801,335.445 42.965,335.445C46.129,335.445 48.694,338.012 48.694,341.179Z" fill="#D9D9D9"/>
<path d="M48.694,266.636C48.694,269.803 46.129,272.37 42.965,272.37C39.801,272.37 37.236,269.803 37.236,266.636C37.236,263.469 39.801,260.902 42.965,260.902C46.129,260.902 48.694,263.469 48.694,266.636Z" fill="#D9D9D9"/>
<path d="M48.694,490.266C48.694,493.433 46.129,496 42.965,496C39.801,496 37.236,493.433 37.236,490.266C37.236,487.099 39.801,484.532 42.965,484.532C46.129,484.532 48.694,487.099 48.694,490.266Z" fill="#D9D9D9"/>
<path d="M346.583,43.006C346.583,46.173 344.018,48.74 340.854,48.74C337.69,48.74 335.125,46.173 335.125,43.006C335.125,39.839 337.69,37.272 340.854,37.272C344.018,37.272 346.583,39.839 346.583,43.006Z" fill="#D9D9D9"/>
<path d="M346.583,266.636C346.583,269.803 344.018,272.37 340.854,272.37C337.69,272.37 335.125,269.803 335.125,266.636C335.125,263.469 337.69,260.902 340.854,260.902C344.018,260.902 346.583,263.469 346.583,266.636Z" fill="#D9D9D9"/>
<path d="M346.583,192.092C346.583,195.259 344.018,197.827 340.854,197.827C337.69,197.827 335.125,195.259 335.125,192.092C335.125,188.926 337.69,186.358 340.854,186.358C344.018,186.358 346.583,188.926 346.583,192.092Z" fill="#D9D9D9"/>
<path d="M346.583,415.723C346.583,418.889 344.018,421.457 340.854,421.457C337.69,421.457 335.125,418.889 335.125,415.723C335.125,412.556 337.69,409.988 340.854,409.988C344.018,409.988 346.583,412.556 346.583,415.723Z" fill="#D9D9D9"/>
<path d="M48.694,43.006C48.694,46.173 46.129,48.74 42.965,48.74C39.801,48.74 37.236,46.173 37.236,43.006C37.236,39.839 39.801,37.272 42.965,37.272C46.129,37.272 48.694,39.839 48.694,43.006Z" fill="#D9D9D9"/>
<path d="M48.694,266.636C48.694,269.803 46.129,272.37 42.965,272.37C39.801,272.37 37.236,269.803 37.236,266.636C37.236,263.469 39.801,260.902 42.965,260.902C46.129,260.902 48.694,263.469 48.694,266.636Z" fill="#D9D9D9"/>
<path d="M48.694,192.092C48.694,195.259 46.129,197.827 42.965,197.827C39.801,197.827 37.236,195.259 37.236,192.092C37.236,188.926 39.801,186.358 42.965,186.358C46.129,186.358 48.694,188.926 48.694,192.092Z" fill="#D9D9D9"/>
<path d="M48.694,415.723C48.694,418.889 46.129,421.457 42.965,421.457C39.801,421.457 37.236,418.889 37.236,415.723C37.236,412.556 39.801,409.988 42.965,409.988C46.129,409.988 48.694,412.556 48.694,415.723Z" fill="#D9D9D9"/>
<path d="M570,80.277C570,83.444 567.435,86.012 564.272,86.012C561.108,86.012 558.543,83.444 558.543,80.277C558.543,77.111 561.108,74.543 564.272,74.543C567.435,74.543 570,77.111 570,80.277Z" fill="#D9D9D9"/>
<path d="M570,303.908C570,307.074 567.435,309.642 564.272,309.642C561.108,309.642 558.543,307.074 558.543,303.908C558.543,300.741 561.108,298.173 564.272,298.173C567.435,298.173 570,300.741 570,303.908Z" fill="#D9D9D9"/>
<path d="M570,229.364C570,232.531 567.435,235.098 564.272,235.098C561.108,235.098 558.543,232.531 558.543,229.364C558.543,226.197 561.108,223.63 564.272,223.63C567.435,223.63 570,226.197 570,229.364Z" fill="#D9D9D9"/>
<path d="M570,452.994C570,456.161 567.435,458.728 564.272,458.728C561.108,458.728 558.543,456.161 558.543,452.994C558.543,449.827 561.108,447.26 564.272,447.26C567.435,447.26 570,449.827 570,452.994Z" fill="#D9D9D9"/>
<path d="M272.111,80.277C272.111,83.444 269.546,86.012 266.382,86.012C263.218,86.012 260.653,83.444 260.653,80.277C260.653,77.111 263.218,74.543 266.382,74.543C269.546,74.543 272.111,77.111 272.111,80.277Z" fill="#D9D9D9"/>
<path d="M272.111,303.908C272.111,307.074 269.546,309.642 266.382,309.642C263.218,309.642 260.653,307.074 260.653,303.908C260.653,300.741 263.218,298.173 266.382,298.173C269.546,298.173 272.111,300.741 272.111,303.908Z" fill="#D9D9D9"/>
<path d="M272.111,229.364C272.111,232.531 269.546,235.098 266.382,235.098C263.218,235.098 260.653,232.531 260.653,229.364C260.653,226.197 263.218,223.63 266.382,223.63C269.546,223.63 272.111,226.197 272.111,229.364Z" fill="#D9D9D9"/>
<path d="M272.111,452.994C272.111,456.161 269.546,458.728 266.382,458.728C263.218,458.728 260.653,456.161 260.653,452.994C260.653,449.827 263.218,447.26 266.382,447.26C269.546,447.26 272.111,449.827 272.111,452.994Z" fill="#D9D9D9"/>
<path d="M570,5.734C570,8.901 567.435,11.468 564.272,11.468C561.108,11.468 558.543,8.901 558.543,5.734C558.543,2.567 561.108,0 564.272,0C567.435,0 570,2.567 570,5.734Z" fill="#D9D9D9"/>
<path d="M570,229.364C570,232.531 567.435,235.098 564.272,235.098C561.108,235.098 558.543,232.531 558.543,229.364C558.543,226.197 561.108,223.63 564.272,223.63C567.435,223.63 570,226.197 570,229.364Z" fill="#D9D9D9"/>
<path d="M570,154.821C570,157.988 567.435,160.555 564.272,160.555C561.108,160.555 558.543,157.988 558.543,154.821C558.543,151.654 561.108,149.087 564.272,149.087C567.435,149.087 570,151.654 570,154.821Z" fill="#D9D9D9"/>
<path d="M570,378.451C570,381.618 567.435,384.185 564.272,384.185C561.108,384.185 558.543,381.618 558.543,378.451C558.543,375.284 561.108,372.717 564.272,372.717C567.435,372.717 570,375.284 570,378.451Z" fill="#D9D9D9"/>
<path d="M272.111,5.734C272.111,8.901 269.546,11.468 266.382,11.468C263.218,11.468 260.653,8.901 260.653,5.734C260.653,2.567 263.218,0 266.382,0C269.546,0 272.111,2.567 272.111,5.734Z" fill="#D9D9D9"/>
<path d="M272.111,229.364C272.111,232.531 269.546,235.098 266.382,235.098C263.218,235.098 260.653,232.531 260.653,229.364C260.653,226.197 263.218,223.63 266.382,223.63C269.546,223.63 272.111,226.197 272.111,229.364Z" fill="#D9D9D9"/>
<path d="M272.111,154.821C272.111,157.988 269.546,160.555 266.382,160.555C263.218,160.555 260.653,157.988 260.653,154.821C260.653,151.654 263.218,149.087 266.382,149.087C269.546,149.087 272.111,151.654 272.111,154.821Z" fill="#D9D9D9"/>
<path d="M272.111,378.451C272.111,381.618 269.546,384.185 266.382,384.185C263.218,384.185 260.653,381.618 260.653,378.451C260.653,375.284 263.218,372.717 266.382,372.717C269.546,372.717 272.111,375.284 272.111,378.451Z" fill="#D9D9D9"/>
<path d="M570,117.549C570,120.716 567.435,123.283 564.272,123.283C561.108,123.283 558.543,120.716 558.543,117.549C558.543,114.382 561.108,111.815 564.272,111.815C567.435,111.815 570,114.382 570,117.549Z" fill="#D9D9D9"/>
<path d="M570,341.179C570,344.346 567.435,346.913 564.272,346.913C561.108,346.913 558.543,344.346 558.543,341.179C558.543,338.012 561.108,335.445 564.272,335.445C567.435,335.445 570,338.012 570,341.179Z" fill="#D9D9D9"/>
<path d="M570,266.636C570,269.803 567.435,272.37 564.272,272.37C561.108,272.37 558.543,269.803 558.543,266.636C558.543,263.469 561.108,260.902 564.272,260.902C567.435,260.902 570,263.469 570,266.636Z" fill="#D9D9D9"/>
<path d="M570,490.266C570,493.433 567.435,496 564.272,496C561.108,496 558.543,493.433 558.543,490.266C558.543,487.099 561.108,484.532 564.272,484.532C567.435,484.532 570,487.099 570,490.266Z" fill="#D9D9D9"/>
<path d="M272.111,117.549C272.111,120.716 269.546,123.283 266.382,123.283C263.218,123.283 260.653,120.716 260.653,117.549C260.653,114.382 263.218,111.815 266.382,111.815C269.546,111.815 272.111,114.382 272.111,117.549Z" fill="#D9D9D9"/>
<path d="M272.111,341.179C272.111,344.346 269.546,346.913 266.382,346.913C263.218,346.913 260.653,344.346 260.653,341.179C260.653,338.012 263.218,335.445 266.382,335.445C269.546,335.445 272.111,338.012 272.111,341.179Z" fill="#D9D9D9"/>
<path d="M272.111,266.636C272.111,269.803 269.546,272.37 266.382,272.37C263.218,272.37 260.653,269.803 260.653,266.636C260.653,263.469 263.218,260.902 266.382,260.902C269.546,260.902 272.111,263.469 272.111,266.636Z" fill="#D9D9D9"/>
<path d="M272.111,490.266C272.111,493.433 269.546,496 266.382,496C263.218,496 260.653,493.433 260.653,490.266C260.653,487.099 263.218,484.532 266.382,484.532C269.546,484.532 272.111,487.099 272.111,490.266Z" fill="#D9D9D9"/>
<path d="M570,43.006C570,46.173 567.435,48.74 564.272,48.74C561.108,48.74 558.543,46.173 558.543,43.006C558.543,39.839 561.108,37.272 564.272,37.272C567.435,37.272 570,39.839 570,43.006Z" fill="#D9D9D9"/>
<path d="M570,266.636C570,269.803 567.435,272.37 564.272,272.37C561.108,272.37 558.543,269.803 558.543,266.636C558.543,263.469 561.108,260.902 564.272,260.902C567.435,260.902 570,263.469 570,266.636Z" fill="#D9D9D9"/>
<path d="M570,192.092C570,195.259 567.435,197.827 564.272,197.827C561.108,197.827 558.543,195.259 558.543,192.092C558.543,188.926 561.108,186.358 564.272,186.358C567.435,186.358 570,188.926 570,192.092Z" fill="#D9D9D9"/>
<path d="M570,415.723C570,418.889 567.435,421.457 564.272,421.457C561.108,421.457 558.543,418.889 558.543,415.723C558.543,412.556 561.108,409.988 564.272,409.988C567.435,409.988 570,412.556 570,415.723Z" fill="#D9D9D9"/>
<path d="M272.111,43.006C272.111,46.173 269.546,48.74 266.382,48.74C263.218,48.74 260.653,46.173 260.653,43.006C260.653,39.839 263.218,37.272 266.382,37.272C269.546,37.272 272.111,39.839 272.111,43.006Z" fill="#D9D9D9"/>
<path d="M272.111,266.636C272.111,269.803 269.546,272.37 266.382,272.37C263.218,272.37 260.653,269.803 260.653,266.636C260.653,263.469 263.218,260.902 266.382,260.902C269.546,260.902 272.111,263.469 272.111,266.636Z" fill="#D9D9D9"/>
<path d="M272.111,192.092C272.111,195.259 269.546,197.827 266.382,197.827C263.218,197.827 260.653,195.259 260.653,192.092C260.653,188.926 263.218,186.358 266.382,186.358C269.546,186.358 272.111,188.926 272.111,192.092Z" fill="#D9D9D9"/>
<path d="M272.111,415.723C272.111,418.889 269.546,421.457 266.382,421.457C263.218,421.457 260.653,418.889 260.653,415.723C260.653,412.556 263.218,409.988 266.382,409.988C269.546,409.988 272.111,412.556 272.111,415.723Z" fill="#D9D9D9"/>
<path d="M421.055,80.277C421.055,83.444 418.491,86.012 415.327,86.012C412.163,86.012 409.598,83.444 409.598,80.277C409.598,77.111 412.163,74.543 415.327,74.543C418.491,74.543 421.055,77.111 421.055,80.277Z" fill="#D9D9D9"/>
<path d="M421.055,303.908C421.055,307.074 418.491,309.642 415.327,309.642C412.163,309.642 409.598,307.074 409.598,303.908C409.598,300.741 412.163,298.173 415.327,298.173C418.491,298.173 421.055,300.741 421.055,303.908Z" fill="#D9D9D9"/>
<path d="M421.055,229.364C421.055,232.531 418.491,235.098 415.327,235.098C412.163,235.098 409.598,232.531 409.598,229.364C409.598,226.197 412.163,223.63 415.327,223.63C418.491,223.63 421.055,226.197 421.055,229.364Z" fill="#D9D9D9"/>
<path d="M421.055,452.994C421.055,456.161 418.491,458.728 415.327,458.728C412.163,458.728 409.598,456.161 409.598,452.994C409.598,449.827 412.163,447.26 415.327,447.26C418.491,447.26 421.055,449.827 421.055,452.994Z" fill="#D9D9D9"/>
<path d="M123.166,80.277C123.166,83.444 120.601,86.012 117.437,86.012C114.273,86.012 111.708,83.444 111.708,80.277C111.708,77.111 114.273,74.543 117.437,74.543C120.601,74.543 123.166,77.111 123.166,80.277Z" fill="#D9D9D9"/>
<path d="M123.166,303.908C123.166,307.074 120.601,309.642 117.437,309.642C114.273,309.642 111.708,307.074 111.708,303.908C111.708,300.741 114.273,298.173 117.437,298.173C120.601,298.173 123.166,300.741 123.166,303.908Z" fill="#D9D9D9"/>
<path d="M123.166,229.364C123.166,232.531 120.601,235.098 117.437,235.098C114.273,235.098 111.708,232.531 111.708,229.364C111.708,226.197 114.273,223.63 117.437,223.63C120.601,223.63 123.166,226.197 123.166,229.364Z" fill="#D9D9D9"/>
<path d="M123.166,452.994C123.166,456.161 120.601,458.728 117.437,458.728C114.273,458.728 111.708,456.161 111.708,452.994C111.708,449.827 114.273,447.26 117.437,447.26C120.601,447.26 123.166,449.827 123.166,452.994Z" fill="#D9D9D9"/>
<path d="M421.055,5.734C421.055,8.901 418.491,11.468 415.327,11.468C412.163,11.468 409.598,8.901 409.598,5.734C409.598,2.567 412.163,0 415.327,0C418.491,0 421.055,2.567 421.055,5.734Z" fill="#D9D9D9"/>
<path d="M421.055,229.364C421.055,232.531 418.491,235.098 415.327,235.098C412.163,235.098 409.598,232.531 409.598,229.364C409.598,226.197 412.163,223.63 415.327,223.63C418.491,223.63 421.055,226.197 421.055,229.364Z" fill="#D9D9D9"/>
<path d="M421.055,154.821C421.055,157.988 418.491,160.555 415.327,160.555C412.163,160.555 409.598,157.988 409.598,154.821C409.598,151.654 412.163,149.087 415.327,149.087C418.491,149.087 421.055,151.654 421.055,154.821Z" fill="#D9D9D9"/>
<path d="M421.055,378.451C421.055,381.618 418.491,384.185 415.327,384.185C412.163,384.185 409.598,381.618 409.598,378.451C409.598,375.284 412.163,372.717 415.327,372.717C418.491,372.717 421.055,375.284 421.055,378.451Z" fill="#D9D9D9"/>
<path d="M123.166,5.734C123.166,8.901 120.601,11.468 117.437,11.468C114.273,11.468 111.708,8.901 111.708,5.734C111.708,2.567 114.273,0 117.437,0C120.601,0 123.166,2.567 123.166,5.734Z" fill="#D9D9D9"/>
<path d="M123.166,229.364C123.166,232.531 120.601,235.098 117.437,235.098C114.273,235.098 111.708,232.531 111.708,229.364C111.708,226.197 114.273,223.63 117.437,223.63C120.601,223.63 123.166,226.197 123.166,229.364Z" fill="#D9D9D9"/>
<path d="M123.166,154.821C123.166,157.988 120.601,160.555 117.437,160.555C114.273,160.555 111.708,157.988 111.708,154.821C111.708,151.654 114.273,149.087 117.437,149.087C120.601,149.087 123.166,151.654 123.166,154.821Z" fill="#D9D9D9"/>
<path d="M123.166,378.451C123.166,381.618 120.601,384.185 117.437,384.185C114.273,384.185 111.708,381.618 111.708,378.451C111.708,375.284 114.273,372.717 117.437,372.717C120.601,372.717 123.166,375.284 123.166,378.451Z" fill="#D9D9D9"/>
<path d="M421.055,117.549C421.055,120.716 418.491,123.283 415.327,123.283C412.163,123.283 409.598,120.716 409.598,117.549C409.598,114.382 412.163,111.815 415.327,111.815C418.491,111.815 421.055,114.382 421.055,117.549Z" fill="#D9D9D9"/>
<path d="M421.055,341.179C421.055,344.346 418.491,346.913 415.327,346.913C412.163,346.913 409.598,344.346 409.598,341.179C409.598,338.012 412.163,335.445 415.327,335.445C418.491,335.445 421.055,338.012 421.055,341.179Z" fill="#D9D9D9"/>
<path d="M421.055,266.636C421.055,269.803 418.491,272.37 415.327,272.37C412.163,272.37 409.598,269.803 409.598,266.636C409.598,263.469 412.163,260.902 415.327,260.902C418.491,260.902 421.055,263.469 421.055,266.636Z" fill="#D9D9D9"/>
<path d="M421.055,490.266C421.055,493.433 418.491,496 415.327,496C412.163,496 409.598,493.433 409.598,490.266C409.598,487.099 412.163,484.532 415.327,484.532C418.491,484.532 421.055,487.099 421.055,490.266Z" fill="#D9D9D9"/>
<path d="M123.166,117.549C123.166,120.716 120.601,123.283 117.437,123.283C114.273,123.283 111.708,120.716 111.708,117.549C111.708,114.382 114.273,111.815 117.437,111.815C120.601,111.815 123.166,114.382 123.166,117.549Z" fill="#D9D9D9"/>
<path d="M123.166,341.179C123.166,344.346 120.601,346.913 117.437,346.913C114.273,346.913 111.708,344.346 111.708,341.179C111.708,338.012 114.273,335.445 117.437,335.445C120.601,335.445 123.166,338.012 123.166,341.179Z" fill="#D9D9D9"/>
<path d="M123.166,266.636C123.166,269.803 120.601,272.37 117.437,272.37C114.273,272.37 111.708,269.803 111.708,266.636C111.708,263.469 114.273,260.902 117.437,260.902C120.601,260.902 123.166,263.469 123.166,266.636Z" fill="#D9D9D9"/>
<path d="M123.166,490.266C123.166,493.433 120.601,496 117.437,496C114.273,496 111.708,493.433 111.708,490.266C111.708,487.099 114.273,484.532 117.437,484.532C120.601,484.532 123.166,487.099 123.166,490.266Z" fill="#D9D9D9"/>
<path d="M421.055,43.006C421.055,46.173 418.491,48.74 415.327,48.74C412.163,48.74 409.598,46.173 409.598,43.006C409.598,39.839 412.163,37.272 415.327,37.272C418.491,37.272 421.055,39.839 421.055,43.006Z" fill="#D9D9D9"/>
<path d="M421.055,266.636C421.055,269.803 418.491,272.37 415.327,272.37C412.163,272.37 409.598,269.803 409.598,266.636C409.598,263.469 412.163,260.902 415.327,260.902C418.491,260.902 421.055,263.469 421.055,266.636Z" fill="#D9D9D9"/>
<path d="M421.055,192.092C421.055,195.259 418.491,197.827 415.327,197.827C412.163,197.827 409.598,195.259 409.598,192.092C409.598,188.926 412.163,186.358 415.327,186.358C418.491,186.358 421.055,188.926 421.055,192.092Z" fill="#D9D9D9"/>
<path d="M421.055,415.723C421.055,418.889 418.491,421.457 415.327,421.457C412.163,421.457 409.598,418.889 409.598,415.723C409.598,412.556 412.163,409.988 415.327,409.988C418.491,409.988 421.055,412.556 421.055,415.723Z" fill="#D9D9D9"/>
<path d="M123.166,43.006C123.166,46.173 120.601,48.74 117.437,48.74C114.273,48.74 111.708,46.173 111.708,43.006C111.708,39.839 114.273,37.272 117.437,37.272C120.601,37.272 123.166,39.839 123.166,43.006Z" fill="#D9D9D9"/>
<path d="M123.166,266.636C123.166,269.803 120.601,272.37 117.437,272.37C114.273,272.37 111.708,269.803 111.708,266.636C111.708,263.469 114.273,260.902 117.437,260.902C120.601,260.902 123.166,263.469 123.166,266.636Z" fill="#D9D9D9"/>
<path d="M123.166,192.092C123.166,195.259 120.601,197.827 117.437,197.827C114.273,197.827 111.708,195.259 111.708,192.092C111.708,188.926 114.273,186.358 117.437,186.358C120.601,186.358 123.166,188.926 123.166,192.092Z" fill="#D9D9D9"/>
<path d="M123.166,415.723C123.166,418.889 120.601,421.457 117.437,421.457C114.273,421.457 111.708,418.889 111.708,415.723C111.708,412.556 114.273,409.988 117.437,409.988C120.601,409.988 123.166,412.556 123.166,415.723Z" fill="#D9D9D9"/>
</svg>
