<svg width="968" height="836" viewBox="0 0 968 836" fill="none" xmlns="http://www.w3.org/2000/svg" xmlns:xlink="http://www.w3.org/1999/xlink">
<path d="M0.704,33.066C0.327,15.349 15.308,1.167 32.978,2.514L938.614,71.558C954.928,72.802 967.236,86.887 966.282,103.22L925.144,807.748C924.218,823.612 911.084,836 895.194,836L47.17,836C30.851,836 17.525,822.954 17.177,806.638L0.704,33.066Z" fill="url(#pf_0_83_379)"/>
<path d="M658.291,108.278C658.291,111.444 655.726,114.012 652.563,114.012C649.399,114.012 646.834,111.444 646.834,108.278C646.834,105.111 649.399,102.543 652.563,102.543C655.726,102.543 658.291,105.111 658.291,108.278Z" fill="#D9D9D9"/>
<path d="M658.291,331.907C658.291,335.074 655.726,337.642 652.563,337.642C649.399,337.642 646.834,335.074 646.834,331.907C646.834,328.741 649.399,326.173 652.563,326.173C655.726,326.173 658.291,328.741 658.291,331.907Z" fill="#D9D9D9"/>
<path d="M658.291,257.364C658.291,260.531 655.726,263.098 652.563,263.098C649.399,263.098 646.834,260.531 646.834,257.364C646.834,254.197 649.399,251.63 652.563,251.63C655.726,251.63 658.291,254.197 658.291,257.364Z" fill="#D9D9D9"/>
<path d="M658.291,480.994C658.291,484.161 655.726,486.728 652.563,486.728C649.399,486.728 646.834,484.161 646.834,480.994C646.834,477.827 649.399,475.26 652.563,475.26C655.726,475.26 658.291,477.827 658.291,480.994Z" fill="#D9D9D9"/>
<path d="M360.402,108.278C360.402,111.444 357.837,114.012 354.673,114.012C351.51,114.012 348.945,111.444 348.945,108.278C348.945,105.111 351.51,102.543 354.673,102.543C357.837,102.543 360.402,105.111 360.402,108.278Z" fill="#D9D9D9"/>
<path d="M360.402,331.907C360.402,335.074 357.837,337.642 354.673,337.642C351.51,337.642 348.945,335.074 348.945,331.907C348.945,328.741 351.51,326.173 354.673,326.173C357.837,326.173 360.402,328.741 360.402,331.907Z" fill="#D9D9D9"/>
<path d="M360.402,257.364C360.402,260.531 357.837,263.098 354.673,263.098C351.51,263.098 348.945,260.531 348.945,257.364C348.945,254.197 351.51,251.63 354.673,251.63C357.837,251.63 360.402,254.197 360.402,257.364Z" fill="#D9D9D9"/>
<path d="M360.402,480.994C360.402,484.161 357.837,486.728 354.673,486.728C351.51,486.728 348.945,484.161 348.945,480.994C348.945,477.827 351.51,475.26 354.673,475.26C357.837,475.26 360.402,477.827 360.402,480.994Z" fill="#D9D9D9"/>
<path d="M658.291,33.734C658.291,36.901 655.726,39.468 652.563,39.468C649.399,39.468 646.834,36.901 646.834,33.734C646.834,30.567 649.399,28 652.563,28C655.726,28 658.291,30.567 658.291,33.734Z" fill="#D9D9D9"/>
<path d="M658.291,257.364C658.291,260.531 655.726,263.098 652.563,263.098C649.399,263.098 646.834,260.531 646.834,257.364C646.834,254.197 649.399,251.63 652.563,251.63C655.726,251.63 658.291,254.197 658.291,257.364Z" fill="#D9D9D9"/>
<path d="M658.291,182.821C658.291,185.988 655.726,188.555 652.563,188.555C649.399,188.555 646.834,185.988 646.834,182.821C646.834,179.654 649.399,177.087 652.563,177.087C655.726,177.087 658.291,179.654 658.291,182.821Z" fill="#D9D9D9"/>
<path d="M658.291,406.451C658.291,409.618 655.726,412.185 652.563,412.185C649.399,412.185 646.834,409.618 646.834,406.451C646.834,403.284 649.399,400.717 652.563,400.717C655.726,400.717 658.291,403.284 658.291,406.451Z" fill="#D9D9D9"/>
<path d="M360.402,33.734C360.402,36.901 357.837,39.468 354.673,39.468C351.51,39.468 348.945,36.901 348.945,33.734C348.945,30.567 351.51,28 354.673,28C357.837,28 360.402,30.567 360.402,33.734Z" fill="#D9D9D9"/>
<path d="M360.402,257.364C360.402,260.531 357.837,263.098 354.673,263.098C351.51,263.098 348.945,260.531 348.945,257.364C348.945,254.197 351.51,251.63 354.673,251.63C357.837,251.63 360.402,254.197 360.402,257.364Z" fill="#D9D9D9"/>
<path d="M360.402,182.821C360.402,185.988 357.837,188.555 354.673,188.555C351.51,188.555 348.945,185.988 348.945,182.821C348.945,179.654 351.51,177.087 354.673,177.087C357.837,177.087 360.402,179.654 360.402,182.821Z" fill="#D9D9D9"/>
<path d="M360.402,406.451C360.402,409.618 357.837,412.185 354.673,412.185C351.51,412.185 348.945,409.618 348.945,406.451C348.945,403.284 351.51,400.717 354.673,400.717C357.837,400.717 360.402,403.284 360.402,406.451Z" fill="#D9D9D9"/>
<path d="M658.291,145.549C658.291,148.716 655.726,151.283 652.563,151.283C649.399,151.283 646.834,148.716 646.834,145.549C646.834,142.382 649.399,139.815 652.563,139.815C655.726,139.815 658.291,142.382 658.291,145.549Z" fill="#D9D9D9"/>
<path d="M658.291,369.179C658.291,372.346 655.726,374.913 652.563,374.913C649.399,374.913 646.834,372.346 646.834,369.179C646.834,366.012 649.399,363.445 652.563,363.445C655.726,363.445 658.291,366.012 658.291,369.179Z" fill="#D9D9D9"/>
<path d="M658.291,294.636C658.291,297.803 655.726,300.37 652.563,300.37C649.399,300.37 646.834,297.803 646.834,294.636C646.834,291.469 649.399,288.902 652.563,288.902C655.726,288.902 658.291,291.469 658.291,294.636Z" fill="#D9D9D9"/>
<path d="M658.291,518.266C658.291,521.433 655.726,524 652.563,524C649.399,524 646.834,521.433 646.834,518.266C646.834,515.099 649.399,512.532 652.563,512.532C655.726,512.532 658.291,515.099 658.291,518.266Z" fill="#D9D9D9"/>
<path d="M360.402,145.549C360.402,148.716 357.837,151.283 354.673,151.283C351.51,151.283 348.945,148.716 348.945,145.549C348.945,142.382 351.51,139.815 354.673,139.815C357.837,139.815 360.402,142.382 360.402,145.549Z" fill="#D9D9D9"/>
<path d="M360.402,369.179C360.402,372.346 357.837,374.913 354.673,374.913C351.51,374.913 348.945,372.346 348.945,369.179C348.945,366.012 351.51,363.445 354.673,363.445C357.837,363.445 360.402,366.012 360.402,369.179Z" fill="#D9D9D9"/>
<path d="M360.402,294.636C360.402,297.803 357.837,300.37 354.673,300.37C351.51,300.37 348.945,297.803 348.945,294.636C348.945,291.469 351.51,288.902 354.673,288.902C357.837,288.902 360.402,291.469 360.402,294.636Z" fill="#D9D9D9"/>
<path d="M360.402,518.266C360.402,521.433 357.837,524 354.673,524C351.51,524 348.945,521.433 348.945,518.266C348.945,515.099 351.51,512.532 354.673,512.532C357.837,512.532 360.402,515.099 360.402,518.266Z" fill="#D9D9D9"/>
<path d="M658.291,71.006C658.291,74.173 655.726,76.74 652.563,76.74C649.399,76.74 646.834,74.173 646.834,71.006C646.834,67.839 649.399,65.272 652.563,65.272C655.726,65.272 658.291,67.839 658.291,71.006Z" fill="#D9D9D9"/>
<path d="M658.291,294.636C658.291,297.803 655.726,300.37 652.563,300.37C649.399,300.37 646.834,297.803 646.834,294.636C646.834,291.469 649.399,288.902 652.563,288.902C655.726,288.902 658.291,291.469 658.291,294.636Z" fill="#D9D9D9"/>
<path d="M658.291,220.092C658.291,223.259 655.726,225.827 652.563,225.827C649.399,225.827 646.834,223.259 646.834,220.092C646.834,216.926 649.399,214.358 652.563,214.358C655.726,214.358 658.291,216.926 658.291,220.092Z" fill="#D9D9D9"/>
<path d="M658.291,443.723C658.291,446.889 655.726,449.457 652.563,449.457C649.399,449.457 646.834,446.889 646.834,443.723C646.834,440.556 649.399,437.989 652.563,437.989C655.726,437.989 658.291,440.556 658.291,443.723Z" fill="#D9D9D9"/>
<path d="M360.402,71.006C360.402,74.173 357.837,76.74 354.673,76.74C351.51,76.74 348.945,74.173 348.945,71.006C348.945,67.839 351.51,65.272 354.673,65.272C357.837,65.272 360.402,67.839 360.402,71.006Z" fill="#D9D9D9"/>
<path d="M360.402,294.636C360.402,297.803 357.837,300.37 354.673,300.37C351.51,300.37 348.945,297.803 348.945,294.636C348.945,291.469 351.51,288.902 354.673,288.902C357.837,288.902 360.402,291.469 360.402,294.636Z" fill="#D9D9D9"/>
<path d="M360.402,220.092C360.402,223.259 357.837,225.827 354.673,225.827C351.51,225.827 348.945,223.259 348.945,220.092C348.945,216.926 351.51,214.358 354.673,214.358C357.837,214.358 360.402,216.926 360.402,220.092Z" fill="#D9D9D9"/>
<path d="M360.402,443.723C360.402,446.889 357.837,449.457 354.673,449.457C351.51,449.457 348.945,446.889 348.945,443.723C348.945,440.556 351.51,437.989 354.673,437.989C357.837,437.989 360.402,440.556 360.402,443.723Z" fill="#D9D9D9"/>
<path d="M509.347,108.278C509.347,111.444 506.782,114.012 503.618,114.012C500.454,114.012 497.89,111.444 497.89,108.278C497.89,105.111 500.454,102.543 503.618,102.543C506.782,102.543 509.347,105.111 509.347,108.278Z" fill="#D9D9D9"/>
<path d="M509.347,331.907C509.347,335.074 506.782,337.642 503.618,337.642C500.454,337.642 497.89,335.074 497.89,331.907C497.89,328.741 500.454,326.173 503.618,326.173C506.782,326.173 509.347,328.741 509.347,331.907Z" fill="#D9D9D9"/>
<path d="M509.347,257.364C509.347,260.531 506.782,263.098 503.618,263.098C500.454,263.098 497.89,260.531 497.89,257.364C497.89,254.197 500.454,251.63 503.618,251.63C506.782,251.63 509.347,254.197 509.347,257.364Z" fill="#D9D9D9"/>
<path d="M509.347,480.994C509.347,484.161 506.782,486.728 503.618,486.728C500.454,486.728 497.89,484.161 497.89,480.994C497.89,477.827 500.454,475.26 503.618,475.26C506.782,475.26 509.347,477.827 509.347,480.994Z" fill="#D9D9D9"/>
<path d="M211.457,108.278C211.457,111.444 208.892,114.012 205.729,114.012C202.565,114.012 200,111.444 200,108.278C200,105.111 202.565,102.543 205.729,102.543C208.892,102.543 211.457,105.111 211.457,108.278Z" fill="#D9D9D9"/>
<path d="M211.457,331.907C211.457,335.074 208.892,337.642 205.729,337.642C202.565,337.642 200,335.074 200,331.907C200,328.741 202.565,326.173 205.729,326.173C208.892,326.173 211.457,328.741 211.457,331.907Z" fill="#D9D9D9"/>
<path d="M211.457,257.364C211.457,260.531 208.892,263.098 205.729,263.098C202.565,263.098 200,260.531 200,257.364C200,254.197 202.565,251.63 205.729,251.63C208.892,251.63 211.457,254.197 211.457,257.364Z" fill="#D9D9D9"/>
<path d="M211.457,480.994C211.457,484.161 208.892,486.728 205.729,486.728C202.565,486.728 200,484.161 200,480.994C200,477.827 202.565,475.26 205.729,475.26C208.892,475.26 211.457,477.827 211.457,480.994Z" fill="#D9D9D9"/>
<path d="M509.347,33.734C509.347,36.901 506.782,39.468 503.618,39.468C500.454,39.468 497.89,36.901 497.89,33.734C497.89,30.567 500.454,28 503.618,28C506.782,28 509.347,30.567 509.347,33.734Z" fill="#D9D9D9"/>
<path d="M509.347,257.364C509.347,260.531 506.782,263.098 503.618,263.098C500.454,263.098 497.89,260.531 497.89,257.364C497.89,254.197 500.454,251.63 503.618,251.63C506.782,251.63 509.347,254.197 509.347,257.364Z" fill="#D9D9D9"/>
<path d="M509.347,182.821C509.347,185.988 506.782,188.555 503.618,188.555C500.454,188.555 497.89,185.988 497.89,182.821C497.89,179.654 500.454,177.087 503.618,177.087C506.782,177.087 509.347,179.654 509.347,182.821Z" fill="#D9D9D9"/>
<path d="M509.347,406.451C509.347,409.618 506.782,412.185 503.618,412.185C500.454,412.185 497.89,409.618 497.89,406.451C497.89,403.284 500.454,400.717 503.618,400.717C506.782,400.717 509.347,403.284 509.347,406.451Z" fill="#D9D9D9"/>
<path d="M211.457,33.734C211.457,36.901 208.892,39.468 205.729,39.468C202.565,39.468 200,36.901 200,33.734C200,30.567 202.565,28 205.729,28C208.892,28 211.457,30.567 211.457,33.734Z" fill="#D9D9D9"/>
<path d="M211.457,257.364C211.457,260.531 208.892,263.098 205.729,263.098C202.565,263.098 200,260.531 200,257.364C200,254.197 202.565,251.63 205.729,251.63C208.892,251.63 211.457,254.197 211.457,257.364Z" fill="#D9D9D9"/>
<path d="M211.457,182.821C211.457,185.988 208.892,188.555 205.729,188.555C202.565,188.555 200,185.988 200,182.821C200,179.654 202.565,177.087 205.729,177.087C208.892,177.087 211.457,179.654 211.457,182.821Z" fill="#D9D9D9"/>
<path d="M211.457,406.451C211.457,409.618 208.892,412.185 205.729,412.185C202.565,412.185 200,409.618 200,406.451C200,403.284 202.565,400.717 205.729,400.717C208.892,400.717 211.457,403.284 211.457,406.451Z" fill="#D9D9D9"/>
<path d="M509.347,145.549C509.347,148.716 506.782,151.283 503.618,151.283C500.454,151.283 497.89,148.716 497.89,145.549C497.89,142.382 500.454,139.815 503.618,139.815C506.782,139.815 509.347,142.382 509.347,145.549Z" fill="#D9D9D9"/>
<path d="M509.347,369.179C509.347,372.346 506.782,374.913 503.618,374.913C500.454,374.913 497.89,372.346 497.89,369.179C497.89,366.012 500.454,363.445 503.618,363.445C506.782,363.445 509.347,366.012 509.347,369.179Z" fill="#D9D9D9"/>
<path d="M509.347,294.636C509.347,297.803 506.782,300.37 503.618,300.37C500.454,300.37 497.89,297.803 497.89,294.636C497.89,291.469 500.454,288.902 503.618,288.902C506.782,288.902 509.347,291.469 509.347,294.636Z" fill="#D9D9D9"/>
<path d="M509.347,518.266C509.347,521.433 506.782,524 503.618,524C500.454,524 497.89,521.433 497.89,518.266C497.89,515.099 500.454,512.532 503.618,512.532C506.782,512.532 509.347,515.099 509.347,518.266Z" fill="#D9D9D9"/>
<path d="M211.457,145.549C211.457,148.716 208.892,151.283 205.729,151.283C202.565,151.283 200,148.716 200,145.549C200,142.382 202.565,139.815 205.729,139.815C208.892,139.815 211.457,142.382 211.457,145.549Z" fill="#D9D9D9"/>
<path d="M211.457,369.179C211.457,372.346 208.892,374.913 205.729,374.913C202.565,374.913 200,372.346 200,369.179C200,366.012 202.565,363.445 205.729,363.445C208.892,363.445 211.457,366.012 211.457,369.179Z" fill="#D9D9D9"/>
<path d="M211.457,294.636C211.457,297.803 208.892,300.37 205.729,300.37C202.565,300.37 200,297.803 200,294.636C200,291.469 202.565,288.902 205.729,288.902C208.892,288.902 211.457,291.469 211.457,294.636Z" fill="#D9D9D9"/>
<path d="M211.457,518.266C211.457,521.433 208.892,524 205.729,524C202.565,524 200,521.433 200,518.266C200,515.099 202.565,512.532 205.729,512.532C208.892,512.532 211.457,515.099 211.457,518.266Z" fill="#D9D9D9"/>
<path d="M509.347,71.006C509.347,74.173 506.782,76.74 503.618,76.74C500.454,76.74 497.89,74.173 497.89,71.006C497.89,67.839 500.454,65.272 503.618,65.272C506.782,65.272 509.347,67.839 509.347,71.006Z" fill="#D9D9D9"/>
<path d="M509.347,294.636C509.347,297.803 506.782,300.37 503.618,300.37C500.454,300.37 497.89,297.803 497.89,294.636C497.89,291.469 500.454,288.902 503.618,288.902C506.782,288.902 509.347,291.469 509.347,294.636Z" fill="#D9D9D9"/>
<path d="M509.347,220.092C509.347,223.259 506.782,225.827 503.618,225.827C500.454,225.827 497.89,223.259 497.89,220.092C497.89,216.926 500.454,214.358 503.618,214.358C506.782,214.358 509.347,216.926 509.347,220.092Z" fill="#D9D9D9"/>
<path d="M509.347,443.723C509.347,446.889 506.782,449.457 503.618,449.457C500.454,449.457 497.89,446.889 497.89,443.723C497.89,440.556 500.454,437.989 503.618,437.989C506.782,437.989 509.347,440.556 509.347,443.723Z" fill="#D9D9D9"/>
<path d="M211.457,71.006C211.457,74.173 208.892,76.74 205.729,76.74C202.565,76.74 200,74.173 200,71.006C200,67.839 202.565,65.272 205.729,65.272C208.892,65.272 211.457,67.839 211.457,71.006Z" fill="#D9D9D9"/>
<path d="M211.457,294.636C211.457,297.803 208.892,300.37 205.729,300.37C202.565,300.37 200,297.803 200,294.636C200,291.469 202.565,288.902 205.729,288.902C208.892,288.902 211.457,291.469 211.457,294.636Z" fill="#D9D9D9"/>
<path d="M211.457,220.092C211.457,223.259 208.892,225.827 205.729,225.827C202.565,225.827 200,223.259 200,220.092C200,216.926 202.565,214.358 205.729,214.358C208.892,214.358 211.457,216.926 211.457,220.092Z" fill="#D9D9D9"/>
<path d="M211.457,443.723C211.457,446.889 208.892,449.457 205.729,449.457C202.565,449.457 200,446.889 200,443.723C200,440.556 202.565,437.989 205.729,437.989C208.892,437.989 211.457,440.556 211.457,443.723Z" fill="#D9D9D9"/>
<path d="M732.764,108.278C732.764,111.444 730.199,114.012 727.035,114.012C723.871,114.012 721.307,111.444 721.307,108.278C721.307,105.111 723.871,102.543 727.035,102.543C730.199,102.543 732.764,105.111 732.764,108.278Z" fill="#D9D9D9"/>
<path d="M732.764,331.907C732.764,335.074 730.199,337.642 727.035,337.642C723.871,337.642 721.307,335.074 721.307,331.907C721.307,328.741 723.871,326.173 727.035,326.173C730.199,326.173 732.764,328.741 732.764,331.907Z" fill="#D9D9D9"/>
<path d="M732.764,257.364C732.764,260.531 730.199,263.098 727.035,263.098C723.871,263.098 721.307,260.531 721.307,257.364C721.307,254.197 723.871,251.63 727.035,251.63C730.199,251.63 732.764,254.197 732.764,257.364Z" fill="#D9D9D9"/>
<path d="M732.764,480.994C732.764,484.161 730.199,486.728 727.035,486.728C723.871,486.728 721.307,484.161 721.307,480.994C721.307,477.827 723.871,475.26 727.035,475.26C730.199,475.26 732.764,477.827 732.764,480.994Z" fill="#D9D9D9"/>
<path d="M434.874,108.278C434.874,111.444 432.309,114.012 429.146,114.012C425.982,114.012 423.417,111.444 423.417,108.278C423.417,105.111 425.982,102.543 429.146,102.543C432.309,102.543 434.874,105.111 434.874,108.278Z" fill="#D9D9D9"/>
<path d="M434.874,331.907C434.874,335.074 432.309,337.642 429.146,337.642C425.982,337.642 423.417,335.074 423.417,331.907C423.417,328.741 425.982,326.173 429.146,326.173C432.309,326.173 434.874,328.741 434.874,331.907Z" fill="#D9D9D9"/>
<path d="M434.874,257.364C434.874,260.531 432.309,263.098 429.146,263.098C425.982,263.098 423.417,260.531 423.417,257.364C423.417,254.197 425.982,251.63 429.146,251.63C432.309,251.63 434.874,254.197 434.874,257.364Z" fill="#D9D9D9"/>
<path d="M434.874,480.994C434.874,484.161 432.309,486.728 429.146,486.728C425.982,486.728 423.417,484.161 423.417,480.994C423.417,477.827 425.982,475.26 429.146,475.26C432.309,475.26 434.874,477.827 434.874,480.994Z" fill="#D9D9D9"/>
<path d="M732.764,33.734C732.764,36.901 730.199,39.468 727.035,39.468C723.871,39.468 721.307,36.901 721.307,33.734C721.307,30.567 723.871,28 727.035,28C730.199,28 732.764,30.567 732.764,33.734Z" fill="#D9D9D9"/>
<path d="M732.764,257.364C732.764,260.531 730.199,263.098 727.035,263.098C723.871,263.098 721.307,260.531 721.307,257.364C721.307,254.197 723.871,251.63 727.035,251.63C730.199,251.63 732.764,254.197 732.764,257.364Z" fill="#D9D9D9"/>
<path d="M732.764,182.821C732.764,185.988 730.199,188.555 727.035,188.555C723.871,188.555 721.307,185.988 721.307,182.821C721.307,179.654 723.871,177.087 727.035,177.087C730.199,177.087 732.764,179.654 732.764,182.821Z" fill="#D9D9D9"/>
<path d="M732.764,406.451C732.764,409.618 730.199,412.185 727.035,412.185C723.871,412.185 721.307,409.618 721.307,406.451C721.307,403.284 723.871,400.717 727.035,400.717C730.199,400.717 732.764,403.284 732.764,406.451Z" fill="#D9D9D9"/>
<path d="M434.874,33.734C434.874,36.901 432.309,39.468 429.146,39.468C425.982,39.468 423.417,36.901 423.417,33.734C423.417,30.567 425.982,28 429.146,28C432.309,28 434.874,30.567 434.874,33.734Z" fill="#D9D9D9"/>
<path d="M434.874,257.364C434.874,260.531 432.309,263.098 429.146,263.098C425.982,263.098 423.417,260.531 423.417,257.364C423.417,254.197 425.982,251.63 429.146,251.63C432.309,251.63 434.874,254.197 434.874,257.364Z" fill="#D9D9D9"/>
<path d="M434.874,182.821C434.874,185.988 432.309,188.555 429.146,188.555C425.982,188.555 423.417,185.988 423.417,182.821C423.417,179.654 425.982,177.087 429.146,177.087C432.309,177.087 434.874,179.654 434.874,182.821Z" fill="#D9D9D9"/>
<path d="M434.874,406.451C434.874,409.618 432.309,412.185 429.146,412.185C425.982,412.185 423.417,409.618 423.417,406.451C423.417,403.284 425.982,400.717 429.146,400.717C432.309,400.717 434.874,403.284 434.874,406.451Z" fill="#D9D9D9"/>
<path d="M732.764,145.549C732.764,148.716 730.199,151.283 727.035,151.283C723.871,151.283 721.307,148.716 721.307,145.549C721.307,142.382 723.871,139.815 727.035,139.815C730.199,139.815 732.764,142.382 732.764,145.549Z" fill="#D9D9D9"/>
<path d="M732.764,369.179C732.764,372.346 730.199,374.913 727.035,374.913C723.871,374.913 721.307,372.346 721.307,369.179C721.307,366.012 723.871,363.445 727.035,363.445C730.199,363.445 732.764,366.012 732.764,369.179Z" fill="#D9D9D9"/>
<path d="M732.764,294.636C732.764,297.803 730.199,300.37 727.035,300.37C723.871,300.37 721.307,297.803 721.307,294.636C721.307,291.469 723.871,288.902 727.035,288.902C730.199,288.902 732.764,291.469 732.764,294.636Z" fill="#D9D9D9"/>
<path d="M732.764,518.266C732.764,521.433 730.199,524 727.035,524C723.871,524 721.307,521.433 721.307,518.266C721.307,515.099 723.871,512.532 727.035,512.532C730.199,512.532 732.764,515.099 732.764,518.266Z" fill="#D9D9D9"/>
<path d="M434.874,145.549C434.874,148.716 432.309,151.283 429.146,151.283C425.982,151.283 423.417,148.716 423.417,145.549C423.417,142.382 425.982,139.815 429.146,139.815C432.309,139.815 434.874,142.382 434.874,145.549Z" fill="#D9D9D9"/>
<path d="M434.874,369.179C434.874,372.346 432.309,374.913 429.146,374.913C425.982,374.913 423.417,372.346 423.417,369.179C423.417,366.012 425.982,363.445 429.146,363.445C432.309,363.445 434.874,366.012 434.874,369.179Z" fill="#D9D9D9"/>
<path d="M434.874,294.636C434.874,297.803 432.309,300.37 429.146,300.37C425.982,300.37 423.417,297.803 423.417,294.636C423.417,291.469 425.982,288.902 429.146,288.902C432.309,288.902 434.874,291.469 434.874,294.636Z" fill="#D9D9D9"/>
<path d="M434.874,518.266C434.874,521.433 432.309,524 429.146,524C425.982,524 423.417,521.433 423.417,518.266C423.417,515.099 425.982,512.532 429.146,512.532C432.309,512.532 434.874,515.099 434.874,518.266Z" fill="#D9D9D9"/>
<path d="M732.764,71.006C732.764,74.173 730.199,76.74 727.035,76.74C723.871,76.74 721.307,74.173 721.307,71.006C721.307,67.839 723.871,65.272 727.035,65.272C730.199,65.272 732.764,67.839 732.764,71.006Z" fill="#D9D9D9"/>
<path d="M732.764,294.636C732.764,297.803 730.199,300.37 727.035,300.37C723.871,300.37 721.307,297.803 721.307,294.636C721.307,291.469 723.871,288.902 727.035,288.902C730.199,288.902 732.764,291.469 732.764,294.636Z" fill="#D9D9D9"/>
<path d="M732.764,220.092C732.764,223.259 730.199,225.827 727.035,225.827C723.871,225.827 721.307,223.259 721.307,220.092C721.307,216.926 723.871,214.358 727.035,214.358C730.199,214.358 732.764,216.926 732.764,220.092Z" fill="#D9D9D9"/>
<path d="M732.764,443.723C732.764,446.889 730.199,449.457 727.035,449.457C723.871,449.457 721.307,446.889 721.307,443.723C721.307,440.556 723.871,437.989 727.035,437.989C730.199,437.989 732.764,440.556 732.764,443.723Z" fill="#D9D9D9"/>
<path d="M434.874,71.006C434.874,74.173 432.309,76.74 429.146,76.74C425.982,76.74 423.417,74.173 423.417,71.006C423.417,67.839 425.982,65.272 429.146,65.272C432.309,65.272 434.874,67.839 434.874,71.006Z" fill="#D9D9D9"/>
<path d="M434.874,294.636C434.874,297.803 432.309,300.37 429.146,300.37C425.982,300.37 423.417,297.803 423.417,294.636C423.417,291.469 425.982,288.902 429.146,288.902C432.309,288.902 434.874,291.469 434.874,294.636Z" fill="#D9D9D9"/>
<path d="M434.874,220.092C434.874,223.259 432.309,225.827 429.146,225.827C425.982,225.827 423.417,223.259 423.417,220.092C423.417,216.926 425.982,214.358 429.146,214.358C432.309,214.358 434.874,216.926 434.874,220.092Z" fill="#D9D9D9"/>
<path d="M434.874,443.723C434.874,446.889 432.309,449.457 429.146,449.457C425.982,449.457 423.417,446.889 423.417,443.723C423.417,440.556 425.982,437.989 429.146,437.989C432.309,437.989 434.874,440.556 434.874,443.723Z" fill="#D9D9D9"/>
<path d="M583.819,108.278C583.819,111.444 581.254,114.012 578.09,114.012C574.927,114.012 572.362,111.444 572.362,108.278C572.362,105.111 574.927,102.543 578.09,102.543C581.254,102.543 583.819,105.111 583.819,108.278Z" fill="#D9D9D9"/>
<path d="M583.819,331.907C583.819,335.074 581.254,337.642 578.09,337.642C574.927,337.642 572.362,335.074 572.362,331.907C572.362,328.741 574.927,326.173 578.09,326.173C581.254,326.173 583.819,328.741 583.819,331.907Z" fill="#D9D9D9"/>
<path d="M583.819,257.364C583.819,260.531 581.254,263.098 578.09,263.098C574.927,263.098 572.362,260.531 572.362,257.364C572.362,254.197 574.927,251.63 578.09,251.63C581.254,251.63 583.819,254.197 583.819,257.364Z" fill="#D9D9D9"/>
<path d="M583.819,480.994C583.819,484.161 581.254,486.728 578.09,486.728C574.927,486.728 572.362,484.161 572.362,480.994C572.362,477.827 574.927,475.26 578.09,475.26C581.254,475.26 583.819,477.827 583.819,480.994Z" fill="#D9D9D9"/>
<path d="M285.929,108.278C285.929,111.444 283.365,114.012 280.201,114.012C277.037,114.012 274.472,111.444 274.472,108.278C274.472,105.111 277.037,102.543 280.201,102.543C283.365,102.543 285.929,105.111 285.929,108.278Z" fill="#D9D9D9"/>
<path d="M285.929,331.907C285.929,335.074 283.365,337.642 280.201,337.642C277.037,337.642 274.472,335.074 274.472,331.907C274.472,328.741 277.037,326.173 280.201,326.173C283.365,326.173 285.929,328.741 285.929,331.907Z" fill="#D9D9D9"/>
<path d="M285.929,257.364C285.929,260.531 283.365,263.098 280.201,263.098C277.037,263.098 274.472,260.531 274.472,257.364C274.472,254.197 277.037,251.63 280.201,251.63C283.365,251.63 285.929,254.197 285.929,257.364Z" fill="#D9D9D9"/>
<path d="M285.929,480.994C285.929,484.161 283.365,486.728 280.201,486.728C277.037,486.728 274.472,484.161 274.472,480.994C274.472,477.827 277.037,475.26 280.201,475.26C283.365,475.26 285.929,477.827 285.929,480.994Z" fill="#D9D9D9"/>
<path d="M583.819,33.734C583.819,36.901 581.254,39.468 578.09,39.468C574.927,39.468 572.362,36.901 572.362,33.734C572.362,30.567 574.927,28 578.09,28C581.254,28 583.819,30.567 583.819,33.734Z" fill="#D9D9D9"/>
<path d="M583.819,257.364C583.819,260.531 581.254,263.098 578.09,263.098C574.927,263.098 572.362,260.531 572.362,257.364C572.362,254.197 574.927,251.63 578.09,251.63C581.254,251.63 583.819,254.197 583.819,257.364Z" fill="#D9D9D9"/>
<path d="M583.819,182.821C583.819,185.988 581.254,188.555 578.09,188.555C574.927,188.555 572.362,185.988 572.362,182.821C572.362,179.654 574.927,177.087 578.09,177.087C581.254,177.087 583.819,179.654 583.819,182.821Z" fill="#D9D9D9"/>
<path d="M583.819,406.451C583.819,409.618 581.254,412.185 578.09,412.185C574.927,412.185 572.362,409.618 572.362,406.451C572.362,403.284 574.927,400.717 578.09,400.717C581.254,400.717 583.819,403.284 583.819,406.451Z" fill="#D9D9D9"/>
<path d="M285.929,33.734C285.929,36.901 283.365,39.468 280.201,39.468C277.037,39.468 274.472,36.901 274.472,33.734C274.472,30.567 277.037,28 280.201,28C283.365,28 285.929,30.567 285.929,33.734Z" fill="#D9D9D9"/>
<path d="M285.929,257.364C285.929,260.531 283.365,263.098 280.201,263.098C277.037,263.098 274.472,260.531 274.472,257.364C274.472,254.197 277.037,251.63 280.201,251.63C283.365,251.63 285.929,254.197 285.929,257.364Z" fill="#D9D9D9"/>
<path d="M285.929,182.821C285.929,185.988 283.365,188.555 280.201,188.555C277.037,188.555 274.472,185.988 274.472,182.821C274.472,179.654 277.037,177.087 280.201,177.087C283.365,177.087 285.929,179.654 285.929,182.821Z" fill="#D9D9D9"/>
<path d="M285.929,406.451C285.929,409.618 283.365,412.185 280.201,412.185C277.037,412.185 274.472,409.618 274.472,406.451C274.472,403.284 277.037,400.717 280.201,400.717C283.365,400.717 285.929,403.284 285.929,406.451Z" fill="#D9D9D9"/>
<path d="M583.819,145.549C583.819,148.716 581.254,151.283 578.09,151.283C574.927,151.283 572.362,148.716 572.362,145.549C572.362,142.382 574.927,139.815 578.09,139.815C581.254,139.815 583.819,142.382 583.819,145.549Z" fill="#D9D9D9"/>
<path d="M583.819,369.179C583.819,372.346 581.254,374.913 578.09,374.913C574.927,374.913 572.362,372.346 572.362,369.179C572.362,366.012 574.927,363.445 578.09,363.445C581.254,363.445 583.819,366.012 583.819,369.179Z" fill="#D9D9D9"/>
<path d="M583.819,294.636C583.819,297.803 581.254,300.37 578.09,300.37C574.927,300.37 572.362,297.803 572.362,294.636C572.362,291.469 574.927,288.902 578.09,288.902C581.254,288.902 583.819,291.469 583.819,294.636Z" fill="#D9D9D9"/>
<path d="M583.819,518.266C583.819,521.433 581.254,524 578.09,524C574.927,524 572.362,521.433 572.362,518.266C572.362,515.099 574.927,512.532 578.09,512.532C581.254,512.532 583.819,515.099 583.819,518.266Z" fill="#D9D9D9"/>
<path d="M285.929,145.549C285.929,148.716 283.365,151.283 280.201,151.283C277.037,151.283 274.472,148.716 274.472,145.549C274.472,142.382 277.037,139.815 280.201,139.815C283.365,139.815 285.929,142.382 285.929,145.549Z" fill="#D9D9D9"/>
<path d="M285.929,369.179C285.929,372.346 283.365,374.913 280.201,374.913C277.037,374.913 274.472,372.346 274.472,369.179C274.472,366.012 277.037,363.445 280.201,363.445C283.365,363.445 285.929,366.012 285.929,369.179Z" fill="#D9D9D9"/>
<path d="M285.929,294.636C285.929,297.803 283.365,300.37 280.201,300.37C277.037,300.37 274.472,297.803 274.472,294.636C274.472,291.469 277.037,288.902 280.201,288.902C283.365,288.902 285.929,291.469 285.929,294.636Z" fill="#D9D9D9"/>
<path d="M285.929,518.266C285.929,521.433 283.365,524 280.201,524C277.037,524 274.472,521.433 274.472,518.266C274.472,515.099 277.037,512.532 280.201,512.532C283.365,512.532 285.929,515.099 285.929,518.266Z" fill="#D9D9D9"/>
<path d="M583.819,71.006C583.819,74.173 581.254,76.74 578.09,76.74C574.927,76.74 572.362,74.173 572.362,71.006C572.362,67.839 574.927,65.272 578.09,65.272C581.254,65.272 583.819,67.839 583.819,71.006Z" fill="#D9D9D9"/>
<path d="M583.819,294.636C583.819,297.803 581.254,300.37 578.09,300.37C574.927,300.37 572.362,297.803 572.362,294.636C572.362,291.469 574.927,288.902 578.09,288.902C581.254,288.902 583.819,291.469 583.819,294.636Z" fill="#D9D9D9"/>
<path d="M583.819,220.092C583.819,223.259 581.254,225.827 578.09,225.827C574.927,225.827 572.362,223.259 572.362,220.092C572.362,216.926 574.927,214.358 578.09,214.358C581.254,214.358 583.819,216.926 583.819,220.092Z" fill="#D9D9D9"/>
<path d="M583.819,443.723C583.819,446.889 581.254,449.457 578.09,449.457C574.927,449.457 572.362,446.889 572.362,443.723C572.362,440.556 574.927,437.989 578.09,437.989C581.254,437.989 583.819,440.556 583.819,443.723Z" fill="#D9D9D9"/>
<path d="M285.929,71.006C285.929,74.173 283.365,76.74 280.201,76.74C277.037,76.74 274.472,74.173 274.472,71.006C274.472,67.839 277.037,65.272 280.201,65.272C283.365,65.272 285.929,67.839 285.929,71.006Z" fill="#D9D9D9"/>
<path d="M285.929,294.636C285.929,297.803 283.365,300.37 280.201,300.37C277.037,300.37 274.472,297.803 274.472,294.636C274.472,291.469 277.037,288.902 280.201,288.902C283.365,288.902 285.929,291.469 285.929,294.636Z" fill="#D9D9D9"/>
<path d="M285.929,220.092C285.929,223.259 283.365,225.827 280.201,225.827C277.037,225.827 274.472,223.259 274.472,220.092C274.472,216.926 277.037,214.358 280.201,214.358C283.365,214.358 285.929,216.926 285.929,220.092Z" fill="#D9D9D9"/>
<path d="M285.929,443.723C285.929,446.889 283.365,449.457 280.201,449.457C277.037,449.457 274.472,446.889 274.472,443.723C274.472,440.556 277.037,437.989 280.201,437.989C283.365,437.989 285.929,440.556 285.929,443.723Z" fill="#D9D9D9"/>
<path d="M695.528,108.278C695.528,111.444 692.963,114.012 689.799,114.012C686.635,114.012 684.07,111.444 684.07,108.278C684.07,105.111 686.635,102.543 689.799,102.543C692.963,102.543 695.528,105.111 695.528,108.278Z" fill="#D9D9D9"/>
<path d="M695.528,331.907C695.528,335.074 692.963,337.642 689.799,337.642C686.635,337.642 684.07,335.074 684.07,331.907C684.07,328.741 686.635,326.173 689.799,326.173C692.963,326.173 695.528,328.741 695.528,331.907Z" fill="#D9D9D9"/>
<path d="M695.528,257.364C695.528,260.531 692.963,263.098 689.799,263.098C686.635,263.098 684.07,260.531 684.07,257.364C684.07,254.197 686.635,251.63 689.799,251.63C692.963,251.63 695.528,254.197 695.528,257.364Z" fill="#D9D9D9"/>
<path d="M695.528,480.994C695.528,484.161 692.963,486.728 689.799,486.728C686.635,486.728 684.07,484.161 684.07,480.994C684.07,477.827 686.635,475.26 689.799,475.26C692.963,475.26 695.528,477.827 695.528,480.994Z" fill="#D9D9D9"/>
<path d="M397.638,108.278C397.638,111.444 395.073,114.012 391.909,114.012C388.745,114.012 386.181,111.444 386.181,108.278C386.181,105.111 388.745,102.543 391.909,102.543C395.073,102.543 397.638,105.111 397.638,108.278Z" fill="#D9D9D9"/>
<path d="M397.638,331.907C397.638,335.074 395.073,337.642 391.909,337.642C388.745,337.642 386.181,335.074 386.181,331.907C386.181,328.741 388.745,326.173 391.909,326.173C395.073,326.173 397.638,328.741 397.638,331.907Z" fill="#D9D9D9"/>
<path d="M397.638,257.364C397.638,260.531 395.073,263.098 391.909,263.098C388.745,263.098 386.181,260.531 386.181,257.364C386.181,254.197 388.745,251.63 391.909,251.63C395.073,251.63 397.638,254.197 397.638,257.364Z" fill="#D9D9D9"/>
<path d="M397.638,480.994C397.638,484.161 395.073,486.728 391.909,486.728C388.745,486.728 386.181,484.161 386.181,480.994C386.181,477.827 388.745,475.26 391.909,475.26C395.073,475.26 397.638,477.827 397.638,480.994Z" fill="#D9D9D9"/>
<path d="M695.528,33.734C695.528,36.901 692.963,39.468 689.799,39.468C686.635,39.468 684.07,36.901 684.07,33.734C684.07,30.567 686.635,28 689.799,28C692.963,28 695.528,30.567 695.528,33.734Z" fill="#D9D9D9"/>
<path d="M695.528,257.364C695.528,260.531 692.963,263.098 689.799,263.098C686.635,263.098 684.07,260.531 684.07,257.364C684.07,254.197 686.635,251.63 689.799,251.63C692.963,251.63 695.528,254.197 695.528,257.364Z" fill="#D9D9D9"/>
<path d="M695.528,182.821C695.528,185.988 692.963,188.555 689.799,188.555C686.635,188.555 684.07,185.988 684.07,182.821C684.07,179.654 686.635,177.087 689.799,177.087C692.963,177.087 695.528,179.654 695.528,182.821Z" fill="#D9D9D9"/>
<path d="M695.528,406.451C695.528,409.618 692.963,412.185 689.799,412.185C686.635,412.185 684.07,409.618 684.07,406.451C684.07,403.284 686.635,400.717 689.799,400.717C692.963,400.717 695.528,403.284 695.528,406.451Z" fill="#D9D9D9"/>
<path d="M397.638,33.734C397.638,36.901 395.073,39.468 391.909,39.468C388.745,39.468 386.181,36.901 386.181,33.734C386.181,30.567 388.745,28 391.909,28C395.073,28 397.638,30.567 397.638,33.734Z" fill="#D9D9D9"/>
<path d="M397.638,257.364C397.638,260.531 395.073,263.098 391.909,263.098C388.745,263.098 386.181,260.531 386.181,257.364C386.181,254.197 388.745,251.63 391.909,251.63C395.073,251.63 397.638,254.197 397.638,257.364Z" fill="#D9D9D9"/>
<path d="M397.638,182.821C397.638,185.988 395.073,188.555 391.909,188.555C388.745,188.555 386.181,185.988 386.181,182.821C386.181,179.654 388.745,177.087 391.909,177.087C395.073,177.087 397.638,179.654 397.638,182.821Z" fill="#D9D9D9"/>
<path d="M397.638,406.451C397.638,409.618 395.073,412.185 391.909,412.185C388.745,412.185 386.181,409.618 386.181,406.451C386.181,403.284 388.745,400.717 391.909,400.717C395.073,400.717 397.638,403.284 397.638,406.451Z" fill="#D9D9D9"/>
<path d="M695.528,145.549C695.528,148.716 692.963,151.283 689.799,151.283C686.635,151.283 684.07,148.716 684.07,145.549C684.07,142.382 686.635,139.815 689.799,139.815C692.963,139.815 695.528,142.382 695.528,145.549Z" fill="#D9D9D9"/>
<path d="M695.528,369.179C695.528,372.346 692.963,374.913 689.799,374.913C686.635,374.913 684.07,372.346 684.07,369.179C684.07,366.012 686.635,363.445 689.799,363.445C692.963,363.445 695.528,366.012 695.528,369.179Z" fill="#D9D9D9"/>
<path d="M695.528,294.636C695.528,297.803 692.963,300.37 689.799,300.37C686.635,300.37 684.07,297.803 684.07,294.636C684.07,291.469 686.635,288.902 689.799,288.902C692.963,288.902 695.528,291.469 695.528,294.636Z" fill="#D9D9D9"/>
<path d="M695.528,518.266C695.528,521.433 692.963,524 689.799,524C686.635,524 684.07,521.433 684.07,518.266C684.07,515.099 686.635,512.532 689.799,512.532C692.963,512.532 695.528,515.099 695.528,518.266Z" fill="#D9D9D9"/>
<path d="M397.638,145.549C397.638,148.716 395.073,151.283 391.909,151.283C388.745,151.283 386.181,148.716 386.181,145.549C386.181,142.382 388.745,139.815 391.909,139.815C395.073,139.815 397.638,142.382 397.638,145.549Z" fill="#D9D9D9"/>
<path d="M397.638,369.179C397.638,372.346 395.073,374.913 391.909,374.913C388.745,374.913 386.181,372.346 386.181,369.179C386.181,366.012 388.745,363.445 391.909,363.445C395.073,363.445 397.638,366.012 397.638,369.179Z" fill="#D9D9D9"/>
<path d="M397.638,294.636C397.638,297.803 395.073,300.37 391.909,300.37C388.745,300.37 386.181,297.803 386.181,294.636C386.181,291.469 388.745,288.902 391.909,288.902C395.073,288.902 397.638,291.469 397.638,294.636Z" fill="#D9D9D9"/>
<path d="M397.638,518.266C397.638,521.433 395.073,524 391.909,524C388.745,524 386.181,521.433 386.181,518.266C386.181,515.099 388.745,512.532 391.909,512.532C395.073,512.532 397.638,515.099 397.638,518.266Z" fill="#D9D9D9"/>
<path d="M695.528,71.006C695.528,74.173 692.963,76.74 689.799,76.74C686.635,76.74 684.07,74.173 684.07,71.006C684.07,67.839 686.635,65.272 689.799,65.272C692.963,65.272 695.528,67.839 695.528,71.006Z" fill="#D9D9D9"/>
<path d="M695.528,294.636C695.528,297.803 692.963,300.37 689.799,300.37C686.635,300.37 684.07,297.803 684.07,294.636C684.07,291.469 686.635,288.902 689.799,288.902C692.963,288.902 695.528,291.469 695.528,294.636Z" fill="#D9D9D9"/>
<path d="M695.528,220.092C695.528,223.259 692.963,225.827 689.799,225.827C686.635,225.827 684.07,223.259 684.07,220.092C684.07,216.926 686.635,214.358 689.799,214.358C692.963,214.358 695.528,216.926 695.528,220.092Z" fill="#D9D9D9"/>
<path d="M695.528,443.723C695.528,446.889 692.963,449.457 689.799,449.457C686.635,449.457 684.07,446.889 684.07,443.723C684.07,440.556 686.635,437.989 689.799,437.989C692.963,437.989 695.528,440.556 695.528,443.723Z" fill="#D9D9D9"/>
<path d="M397.638,71.006C397.638,74.173 395.073,76.74 391.909,76.74C388.745,76.74 386.181,74.173 386.181,71.006C386.181,67.839 388.745,65.272 391.909,65.272C395.073,65.272 397.638,67.839 397.638,71.006Z" fill="#D9D9D9"/>
<path d="M397.638,294.636C397.638,297.803 395.073,300.37 391.909,300.37C388.745,300.37 386.181,297.803 386.181,294.636C386.181,291.469 388.745,288.902 391.909,288.902C395.073,288.902 397.638,291.469 397.638,294.636Z" fill="#D9D9D9"/>
<path d="M397.638,220.092C397.638,223.259 395.073,225.827 391.909,225.827C388.745,225.827 386.181,223.259 386.181,220.092C386.181,216.926 388.745,214.358 391.909,214.358C395.073,214.358 397.638,216.926 397.638,220.092Z" fill="#D9D9D9"/>
<path d="M397.638,443.723C397.638,446.889 395.073,449.457 391.909,449.457C388.745,449.457 386.181,446.889 386.181,443.723C386.181,440.556 388.745,437.989 391.909,437.989C395.073,437.989 397.638,440.556 397.638,443.723Z" fill="#D9D9D9"/>
<path d="M546.583,108.278C546.583,111.444 544.018,114.012 540.854,114.012C537.69,114.012 535.125,111.444 535.125,108.278C535.125,105.111 537.69,102.543 540.854,102.543C544.018,102.543 546.583,105.111 546.583,108.278Z" fill="#D9D9D9"/>
<path d="M546.583,331.907C546.583,335.074 544.018,337.642 540.854,337.642C537.69,337.642 535.125,335.074 535.125,331.907C535.125,328.741 537.69,326.173 540.854,326.173C544.018,326.173 546.583,328.741 546.583,331.907Z" fill="#D9D9D9"/>
<path d="M546.583,257.364C546.583,260.531 544.018,263.098 540.854,263.098C537.69,263.098 535.125,260.531 535.125,257.364C535.125,254.197 537.69,251.63 540.854,251.63C544.018,251.63 546.583,254.197 546.583,257.364Z" fill="#D9D9D9"/>
<path d="M546.583,480.994C546.583,484.161 544.018,486.728 540.854,486.728C537.69,486.728 535.125,484.161 535.125,480.994C535.125,477.827 537.69,475.26 540.854,475.26C544.018,475.26 546.583,477.827 546.583,480.994Z" fill="#D9D9D9"/>
<path d="M248.694,108.278C248.694,111.444 246.129,114.012 242.965,114.012C239.801,114.012 237.236,111.444 237.236,108.278C237.236,105.111 239.801,102.543 242.965,102.543C246.129,102.543 248.694,105.111 248.694,108.278Z" fill="#D9D9D9"/>
<path d="M248.694,331.907C248.694,335.074 246.129,337.642 242.965,337.642C239.801,337.642 237.236,335.074 237.236,331.907C237.236,328.741 239.801,326.173 242.965,326.173C246.129,326.173 248.694,328.741 248.694,331.907Z" fill="#D9D9D9"/>
<path d="M248.694,257.364C248.694,260.531 246.129,263.098 242.965,263.098C239.801,263.098 237.236,260.531 237.236,257.364C237.236,254.197 239.801,251.63 242.965,251.63C246.129,251.63 248.694,254.197 248.694,257.364Z" fill="#D9D9D9"/>
<path d="M248.694,480.994C248.694,484.161 246.129,486.728 242.965,486.728C239.801,486.728 237.236,484.161 237.236,480.994C237.236,477.827 239.801,475.26 242.965,475.26C246.129,475.26 248.694,477.827 248.694,480.994Z" fill="#D9D9D9"/>
<path d="M546.583,33.734C546.583,36.901 544.018,39.468 540.854,39.468C537.69,39.468 535.125,36.901 535.125,33.734C535.125,30.567 537.69,28 540.854,28C544.018,28 546.583,30.567 546.583,33.734Z" fill="#D9D9D9"/>
<path d="M546.583,257.364C546.583,260.531 544.018,263.098 540.854,263.098C537.69,263.098 535.125,260.531 535.125,257.364C535.125,254.197 537.69,251.63 540.854,251.63C544.018,251.63 546.583,254.197 546.583,257.364Z" fill="#D9D9D9"/>
<path d="M546.583,182.821C546.583,185.988 544.018,188.555 540.854,188.555C537.69,188.555 535.125,185.988 535.125,182.821C535.125,179.654 537.69,177.087 540.854,177.087C544.018,177.087 546.583,179.654 546.583,182.821Z" fill="#D9D9D9"/>
<path d="M546.583,406.451C546.583,409.618 544.018,412.185 540.854,412.185C537.69,412.185 535.125,409.618 535.125,406.451C535.125,403.284 537.69,400.717 540.854,400.717C544.018,400.717 546.583,403.284 546.583,406.451Z" fill="#D9D9D9"/>
<path d="M248.694,33.734C248.694,36.901 246.129,39.468 242.965,39.468C239.801,39.468 237.236,36.901 237.236,33.734C237.236,30.567 239.801,28 242.965,28C246.129,28 248.694,30.567 248.694,33.734Z" fill="#D9D9D9"/>
<path d="M248.694,257.364C248.694,260.531 246.129,263.098 242.965,263.098C239.801,263.098 237.236,260.531 237.236,257.364C237.236,254.197 239.801,251.63 242.965,251.63C246.129,251.63 248.694,254.197 248.694,257.364Z" fill="#D9D9D9"/>
<path d="M248.694,182.821C248.694,185.988 246.129,188.555 242.965,188.555C239.801,188.555 237.236,185.988 237.236,182.821C237.236,179.654 239.801,177.087 242.965,177.087C246.129,177.087 248.694,179.654 248.694,182.821Z" fill="#D9D9D9"/>
<path d="M248.694,406.451C248.694,409.618 246.129,412.185 242.965,412.185C239.801,412.185 237.236,409.618 237.236,406.451C237.236,403.284 239.801,400.717 242.965,400.717C246.129,400.717 248.694,403.284 248.694,406.451Z" fill="#D9D9D9"/>
<path d="M546.583,145.549C546.583,148.716 544.018,151.283 540.854,151.283C537.69,151.283 535.125,148.716 535.125,145.549C535.125,142.382 537.69,139.815 540.854,139.815C544.018,139.815 546.583,142.382 546.583,145.549Z" fill="#D9D9D9"/>
<path d="M546.583,369.179C546.583,372.346 544.018,374.913 540.854,374.913C537.69,374.913 535.125,372.346 535.125,369.179C535.125,366.012 537.69,363.445 540.854,363.445C544.018,363.445 546.583,366.012 546.583,369.179Z" fill="#D9D9D9"/>
<path d="M546.583,294.636C546.583,297.803 544.018,300.37 540.854,300.37C537.69,300.37 535.125,297.803 535.125,294.636C535.125,291.469 537.69,288.902 540.854,288.902C544.018,288.902 546.583,291.469 546.583,294.636Z" fill="#D9D9D9"/>
<path d="M546.583,518.266C546.583,521.433 544.018,524 540.854,524C537.69,524 535.125,521.433 535.125,518.266C535.125,515.099 537.69,512.532 540.854,512.532C544.018,512.532 546.583,515.099 546.583,518.266Z" fill="#D9D9D9"/>
<path d="M248.694,145.549C248.694,148.716 246.129,151.283 242.965,151.283C239.801,151.283 237.236,148.716 237.236,145.549C237.236,142.382 239.801,139.815 242.965,139.815C246.129,139.815 248.694,142.382 248.694,145.549Z" fill="#D9D9D9"/>
<path d="M248.694,369.179C248.694,372.346 246.129,374.913 242.965,374.913C239.801,374.913 237.236,372.346 237.236,369.179C237.236,366.012 239.801,363.445 242.965,363.445C246.129,363.445 248.694,366.012 248.694,369.179Z" fill="#D9D9D9"/>
<path d="M248.694,294.636C248.694,297.803 246.129,300.37 242.965,300.37C239.801,300.37 237.236,297.803 237.236,294.636C237.236,291.469 239.801,288.902 242.965,288.902C246.129,288.902 248.694,291.469 248.694,294.636Z" fill="#D9D9D9"/>
<path d="M248.694,518.266C248.694,521.433 246.129,524 242.965,524C239.801,524 237.236,521.433 237.236,518.266C237.236,515.099 239.801,512.532 242.965,512.532C246.129,512.532 248.694,515.099 248.694,518.266Z" fill="#D9D9D9"/>
<path d="M546.583,71.006C546.583,74.173 544.018,76.74 540.854,76.74C537.69,76.74 535.125,74.173 535.125,71.006C535.125,67.839 537.69,65.272 540.854,65.272C544.018,65.272 546.583,67.839 546.583,71.006Z" fill="#D9D9D9"/>
<path d="M546.583,294.636C546.583,297.803 544.018,300.37 540.854,300.37C537.69,300.37 535.125,297.803 535.125,294.636C535.125,291.469 537.69,288.902 540.854,288.902C544.018,288.902 546.583,291.469 546.583,294.636Z" fill="#D9D9D9"/>
<path d="M546.583,220.092C546.583,223.259 544.018,225.827 540.854,225.827C537.69,225.827 535.125,223.259 535.125,220.092C535.125,216.926 537.69,214.358 540.854,214.358C544.018,214.358 546.583,216.926 546.583,220.092Z" fill="#D9D9D9"/>
<path d="M546.583,443.723C546.583,446.889 544.018,449.457 540.854,449.457C537.69,449.457 535.125,446.889 535.125,443.723C535.125,440.556 537.69,437.989 540.854,437.989C544.018,437.989 546.583,440.556 546.583,443.723Z" fill="#D9D9D9"/>
<path d="M248.694,71.006C248.694,74.173 246.129,76.74 242.965,76.74C239.801,76.74 237.236,74.173 237.236,71.006C237.236,67.839 239.801,65.272 242.965,65.272C246.129,65.272 248.694,67.839 248.694,71.006Z" fill="#D9D9D9"/>
<path d="M248.694,294.636C248.694,297.803 246.129,300.37 242.965,300.37C239.801,300.37 237.236,297.803 237.236,294.636C237.236,291.469 239.801,288.902 242.965,288.902C246.129,288.902 248.694,291.469 248.694,294.636Z" fill="#D9D9D9"/>
<path d="M248.694,220.092C248.694,223.259 246.129,225.827 242.965,225.827C239.801,225.827 237.236,223.259 237.236,220.092C237.236,216.926 239.801,214.358 242.965,214.358C246.129,214.358 248.694,216.926 248.694,220.092Z" fill="#D9D9D9"/>
<path d="M248.694,443.723C248.694,446.889 246.129,449.457 242.965,449.457C239.801,449.457 237.236,446.889 237.236,443.723C237.236,440.556 239.801,437.989 242.965,437.989C246.129,437.989 248.694,440.556 248.694,443.723Z" fill="#D9D9D9"/>
<path d="M770,108.278C770,111.444 767.435,114.012 764.272,114.012C761.108,114.012 758.543,111.444 758.543,108.278C758.543,105.111 761.108,102.543 764.272,102.543C767.435,102.543 770,105.111 770,108.278Z" fill="#D9D9D9"/>
<path d="M770,331.907C770,335.074 767.435,337.642 764.272,337.642C761.108,337.642 758.543,335.074 758.543,331.907C758.543,328.741 761.108,326.173 764.272,326.173C767.435,326.173 770,328.741 770,331.907Z" fill="#D9D9D9"/>
<path d="M770,257.364C770,260.531 767.435,263.098 764.272,263.098C761.108,263.098 758.543,260.531 758.543,257.364C758.543,254.197 761.108,251.63 764.272,251.63C767.435,251.63 770,254.197 770,257.364Z" fill="#D9D9D9"/>
<path d="M770,480.994C770,484.161 767.435,486.728 764.272,486.728C761.108,486.728 758.543,484.161 758.543,480.994C758.543,477.827 761.108,475.26 764.272,475.26C767.435,475.26 770,477.827 770,480.994Z" fill="#D9D9D9"/>
<path d="M472.111,108.278C472.111,111.444 469.546,114.012 466.382,114.012C463.218,114.012 460.653,111.444 460.653,108.278C460.653,105.111 463.218,102.543 466.382,102.543C469.546,102.543 472.111,105.111 472.111,108.278Z" fill="#D9D9D9"/>
<path d="M472.111,331.907C472.111,335.074 469.546,337.642 466.382,337.642C463.218,337.642 460.653,335.074 460.653,331.907C460.653,328.741 463.218,326.173 466.382,326.173C469.546,326.173 472.111,328.741 472.111,331.907Z" fill="#D9D9D9"/>
<path d="M472.111,257.364C472.111,260.531 469.546,263.098 466.382,263.098C463.218,263.098 460.653,260.531 460.653,257.364C460.653,254.197 463.218,251.63 466.382,251.63C469.546,251.63 472.111,254.197 472.111,257.364Z" fill="#D9D9D9"/>
<path d="M472.111,480.994C472.111,484.161 469.546,486.728 466.382,486.728C463.218,486.728 460.653,484.161 460.653,480.994C460.653,477.827 463.218,475.26 466.382,475.26C469.546,475.26 472.111,477.827 472.111,480.994Z" fill="#D9D9D9"/>
<path d="M770,33.734C770,36.901 767.435,39.468 764.272,39.468C761.108,39.468 758.543,36.901 758.543,33.734C758.543,30.567 761.108,28 764.272,28C767.435,28 770,30.567 770,33.734Z" fill="#D9D9D9"/>
<path d="M770,257.364C770,260.531 767.435,263.098 764.272,263.098C761.108,263.098 758.543,260.531 758.543,257.364C758.543,254.197 761.108,251.63 764.272,251.63C767.435,251.63 770,254.197 770,257.364Z" fill="#D9D9D9"/>
<path d="M770,182.821C770,185.988 767.435,188.555 764.272,188.555C761.108,188.555 758.543,185.988 758.543,182.821C758.543,179.654 761.108,177.087 764.272,177.087C767.435,177.087 770,179.654 770,182.821Z" fill="#D9D9D9"/>
<path d="M770,406.451C770,409.618 767.435,412.185 764.272,412.185C761.108,412.185 758.543,409.618 758.543,406.451C758.543,403.284 761.108,400.717 764.272,400.717C767.435,400.717 770,403.284 770,406.451Z" fill="#D9D9D9"/>
<path d="M472.111,33.734C472.111,36.901 469.546,39.468 466.382,39.468C463.218,39.468 460.653,36.901 460.653,33.734C460.653,30.567 463.218,28 466.382,28C469.546,28 472.111,30.567 472.111,33.734Z" fill="#D9D9D9"/>
<path d="M472.111,257.364C472.111,260.531 469.546,263.098 466.382,263.098C463.218,263.098 460.653,260.531 460.653,257.364C460.653,254.197 463.218,251.63 466.382,251.63C469.546,251.63 472.111,254.197 472.111,257.364Z" fill="#D9D9D9"/>
<path d="M472.111,182.821C472.111,185.988 469.546,188.555 466.382,188.555C463.218,188.555 460.653,185.988 460.653,182.821C460.653,179.654 463.218,177.087 466.382,177.087C469.546,177.087 472.111,179.654 472.111,182.821Z" fill="#D9D9D9"/>
<path d="M472.111,406.451C472.111,409.618 469.546,412.185 466.382,412.185C463.218,412.185 460.653,409.618 460.653,406.451C460.653,403.284 463.218,400.717 466.382,400.717C469.546,400.717 472.111,403.284 472.111,406.451Z" fill="#D9D9D9"/>
<path d="M770,145.549C770,148.716 767.435,151.283 764.272,151.283C761.108,151.283 758.543,148.716 758.543,145.549C758.543,142.382 761.108,139.815 764.272,139.815C767.435,139.815 770,142.382 770,145.549Z" fill="#D9D9D9"/>
<path d="M770,369.179C770,372.346 767.435,374.913 764.272,374.913C761.108,374.913 758.543,372.346 758.543,369.179C758.543,366.012 761.108,363.445 764.272,363.445C767.435,363.445 770,366.012 770,369.179Z" fill="#D9D9D9"/>
<path d="M770,294.636C770,297.803 767.435,300.37 764.272,300.37C761.108,300.37 758.543,297.803 758.543,294.636C758.543,291.469 761.108,288.902 764.272,288.902C767.435,288.902 770,291.469 770,294.636Z" fill="#D9D9D9"/>
<path d="M770,518.266C770,521.433 767.435,524 764.272,524C761.108,524 758.543,521.433 758.543,518.266C758.543,515.099 761.108,512.532 764.272,512.532C767.435,512.532 770,515.099 770,518.266Z" fill="#D9D9D9"/>
<path d="M472.111,145.549C472.111,148.716 469.546,151.283 466.382,151.283C463.218,151.283 460.653,148.716 460.653,145.549C460.653,142.382 463.218,139.815 466.382,139.815C469.546,139.815 472.111,142.382 472.111,145.549Z" fill="#D9D9D9"/>
<path d="M472.111,369.179C472.111,372.346 469.546,374.913 466.382,374.913C463.218,374.913 460.653,372.346 460.653,369.179C460.653,366.012 463.218,363.445 466.382,363.445C469.546,363.445 472.111,366.012 472.111,369.179Z" fill="#D9D9D9"/>
<path d="M472.111,294.636C472.111,297.803 469.546,300.37 466.382,300.37C463.218,300.37 460.653,297.803 460.653,294.636C460.653,291.469 463.218,288.902 466.382,288.902C469.546,288.902 472.111,291.469 472.111,294.636Z" fill="#D9D9D9"/>
<path d="M472.111,518.266C472.111,521.433 469.546,524 466.382,524C463.218,524 460.653,521.433 460.653,518.266C460.653,515.099 463.218,512.532 466.382,512.532C469.546,512.532 472.111,515.099 472.111,518.266Z" fill="#D9D9D9"/>
<path d="M770,71.006C770,74.173 767.435,76.74 764.272,76.74C761.108,76.74 758.543,74.173 758.543,71.006C758.543,67.839 761.108,65.272 764.272,65.272C767.435,65.272 770,67.839 770,71.006Z" fill="#D9D9D9"/>
<path d="M770,294.636C770,297.803 767.435,300.37 764.272,300.37C761.108,300.37 758.543,297.803 758.543,294.636C758.543,291.469 761.108,288.902 764.272,288.902C767.435,288.902 770,291.469 770,294.636Z" fill="#D9D9D9"/>
<path d="M770,220.092C770,223.259 767.435,225.827 764.272,225.827C761.108,225.827 758.543,223.259 758.543,220.092C758.543,216.926 761.108,214.358 764.272,214.358C767.435,214.358 770,216.926 770,220.092Z" fill="#D9D9D9"/>
<path d="M770,443.723C770,446.889 767.435,449.457 764.272,449.457C761.108,449.457 758.543,446.889 758.543,443.723C758.543,440.556 761.108,437.989 764.272,437.989C767.435,437.989 770,440.556 770,443.723Z" fill="#D9D9D9"/>
<path d="M472.111,71.006C472.111,74.173 469.546,76.74 466.382,76.74C463.218,76.74 460.653,74.173 460.653,71.006C460.653,67.839 463.218,65.272 466.382,65.272C469.546,65.272 472.111,67.839 472.111,71.006Z" fill="#D9D9D9"/>
<path d="M472.111,294.636C472.111,297.803 469.546,300.37 466.382,300.37C463.218,300.37 460.653,297.803 460.653,294.636C460.653,291.469 463.218,288.902 466.382,288.902C469.546,288.902 472.111,291.469 472.111,294.636Z" fill="#D9D9D9"/>
<path d="M472.111,220.092C472.111,223.259 469.546,225.827 466.382,225.827C463.218,225.827 460.653,223.259 460.653,220.092C460.653,216.926 463.218,214.358 466.382,214.358C469.546,214.358 472.111,216.926 472.111,220.092Z" fill="#D9D9D9"/>
<path d="M472.111,443.723C472.111,446.889 469.546,449.457 466.382,449.457C463.218,449.457 460.653,446.889 460.653,443.723C460.653,440.556 463.218,437.989 466.382,437.989C469.546,437.989 472.111,440.556 472.111,443.723Z" fill="#D9D9D9"/>
<path d="M621.055,108.278C621.055,111.444 618.491,114.012 615.327,114.012C612.163,114.012 609.598,111.444 609.598,108.278C609.598,105.111 612.163,102.543 615.327,102.543C618.491,102.543 621.055,105.111 621.055,108.278Z" fill="#D9D9D9"/>
<path d="M621.055,331.907C621.055,335.074 618.491,337.642 615.327,337.642C612.163,337.642 609.598,335.074 609.598,331.907C609.598,328.741 612.163,326.173 615.327,326.173C618.491,326.173 621.055,328.741 621.055,331.907Z" fill="#D9D9D9"/>
<path d="M621.055,257.364C621.055,260.531 618.491,263.098 615.327,263.098C612.163,263.098 609.598,260.531 609.598,257.364C609.598,254.197 612.163,251.63 615.327,251.63C618.491,251.63 621.055,254.197 621.055,257.364Z" fill="#D9D9D9"/>
<path d="M621.055,480.994C621.055,484.161 618.491,486.728 615.327,486.728C612.163,486.728 609.598,484.161 609.598,480.994C609.598,477.827 612.163,475.26 615.327,475.26C618.491,475.26 621.055,477.827 621.055,480.994Z" fill="#D9D9D9"/>
<path d="M323.166,108.278C323.166,111.444 320.601,114.012 317.437,114.012C314.273,114.012 311.708,111.444 311.708,108.278C311.708,105.111 314.273,102.543 317.437,102.543C320.601,102.543 323.166,105.111 323.166,108.278Z" fill="#D9D9D9"/>
<path d="M323.166,331.907C323.166,335.074 320.601,337.642 317.437,337.642C314.273,337.642 311.708,335.074 311.708,331.907C311.708,328.741 314.273,326.173 317.437,326.173C320.601,326.173 323.166,328.741 323.166,331.907Z" fill="#D9D9D9"/>
<path d="M323.166,257.364C323.166,260.531 320.601,263.098 317.437,263.098C314.273,263.098 311.708,260.531 311.708,257.364C311.708,254.197 314.273,251.63 317.437,251.63C320.601,251.63 323.166,254.197 323.166,257.364Z" fill="#D9D9D9"/>
<path d="M323.166,480.994C323.166,484.161 320.601,486.728 317.437,486.728C314.273,486.728 311.708,484.161 311.708,480.994C311.708,477.827 314.273,475.26 317.437,475.26C320.601,475.26 323.166,477.827 323.166,480.994Z" fill="#D9D9D9"/>
<path d="M621.055,33.734C621.055,36.901 618.491,39.468 615.327,39.468C612.163,39.468 609.598,36.901 609.598,33.734C609.598,30.567 612.163,28 615.327,28C618.491,28 621.055,30.567 621.055,33.734Z" fill="#D9D9D9"/>
<path d="M621.055,257.364C621.055,260.531 618.491,263.098 615.327,263.098C612.163,263.098 609.598,260.531 609.598,257.364C609.598,254.197 612.163,251.63 615.327,251.63C618.491,251.63 621.055,254.197 621.055,257.364Z" fill="#D9D9D9"/>
<path d="M621.055,182.821C621.055,185.988 618.491,188.555 615.327,188.555C612.163,188.555 609.598,185.988 609.598,182.821C609.598,179.654 612.163,177.087 615.327,177.087C618.491,177.087 621.055,179.654 621.055,182.821Z" fill="#D9D9D9"/>
<path d="M621.055,406.451C621.055,409.618 618.491,412.185 615.327,412.185C612.163,412.185 609.598,409.618 609.598,406.451C609.598,403.284 612.163,400.717 615.327,400.717C618.491,400.717 621.055,403.284 621.055,406.451Z" fill="#D9D9D9"/>
<path d="M323.166,33.734C323.166,36.901 320.601,39.468 317.437,39.468C314.273,39.468 311.708,36.901 311.708,33.734C311.708,30.567 314.273,28 317.437,28C320.601,28 323.166,30.567 323.166,33.734Z" fill="#D9D9D9"/>
<path d="M323.166,257.364C323.166,260.531 320.601,263.098 317.437,263.098C314.273,263.098 311.708,260.531 311.708,257.364C311.708,254.197 314.273,251.63 317.437,251.63C320.601,251.63 323.166,254.197 323.166,257.364Z" fill="#D9D9D9"/>
<path d="M323.166,182.821C323.166,185.988 320.601,188.555 317.437,188.555C314.273,188.555 311.708,185.988 311.708,182.821C311.708,179.654 314.273,177.087 317.437,177.087C320.601,177.087 323.166,179.654 323.166,182.821Z" fill="#D9D9D9"/>
<path d="M323.166,406.451C323.166,409.618 320.601,412.185 317.437,412.185C314.273,412.185 311.708,409.618 311.708,406.451C311.708,403.284 314.273,400.717 317.437,400.717C320.601,400.717 323.166,403.284 323.166,406.451Z" fill="#D9D9D9"/>
<path d="M621.055,145.549C621.055,148.716 618.491,151.283 615.327,151.283C612.163,151.283 609.598,148.716 609.598,145.549C609.598,142.382 612.163,139.815 615.327,139.815C618.491,139.815 621.055,142.382 621.055,145.549Z" fill="#D9D9D9"/>
<path d="M621.055,369.179C621.055,372.346 618.491,374.913 615.327,374.913C612.163,374.913 609.598,372.346 609.598,369.179C609.598,366.012 612.163,363.445 615.327,363.445C618.491,363.445 621.055,366.012 621.055,369.179Z" fill="#D9D9D9"/>
<path d="M621.055,294.636C621.055,297.803 618.491,300.37 615.327,300.37C612.163,300.37 609.598,297.803 609.598,294.636C609.598,291.469 612.163,288.902 615.327,288.902C618.491,288.902 621.055,291.469 621.055,294.636Z" fill="#D9D9D9"/>
<path d="M621.055,518.266C621.055,521.433 618.491,524 615.327,524C612.163,524 609.598,521.433 609.598,518.266C609.598,515.099 612.163,512.532 615.327,512.532C618.491,512.532 621.055,515.099 621.055,518.266Z" fill="#D9D9D9"/>
<path d="M323.166,145.549C323.166,148.716 320.601,151.283 317.437,151.283C314.273,151.283 311.708,148.716 311.708,145.549C311.708,142.382 314.273,139.815 317.437,139.815C320.601,139.815 323.166,142.382 323.166,145.549Z" fill="#D9D9D9"/>
<path d="M323.166,369.179C323.166,372.346 320.601,374.913 317.437,374.913C314.273,374.913 311.708,372.346 311.708,369.179C311.708,366.012 314.273,363.445 317.437,363.445C320.601,363.445 323.166,366.012 323.166,369.179Z" fill="#D9D9D9"/>
<path d="M323.166,294.636C323.166,297.803 320.601,300.37 317.437,300.37C314.273,300.37 311.708,297.803 311.708,294.636C311.708,291.469 314.273,288.902 317.437,288.902C320.601,288.902 323.166,291.469 323.166,294.636Z" fill="#D9D9D9"/>
<path d="M323.166,518.266C323.166,521.433 320.601,524 317.437,524C314.273,524 311.708,521.433 311.708,518.266C311.708,515.099 314.273,512.532 317.437,512.532C320.601,512.532 323.166,515.099 323.166,518.266Z" fill="#D9D9D9"/>
<path d="M621.055,71.006C621.055,74.173 618.491,76.74 615.327,76.74C612.163,76.74 609.598,74.173 609.598,71.006C609.598,67.839 612.163,65.272 615.327,65.272C618.491,65.272 621.055,67.839 621.055,71.006Z" fill="#D9D9D9"/>
<path d="M621.055,294.636C621.055,297.803 618.491,300.37 615.327,300.37C612.163,300.37 609.598,297.803 609.598,294.636C609.598,291.469 612.163,288.902 615.327,288.902C618.491,288.902 621.055,291.469 621.055,294.636Z" fill="#D9D9D9"/>
<path d="M621.055,220.092C621.055,223.259 618.491,225.827 615.327,225.827C612.163,225.827 609.598,223.259 609.598,220.092C609.598,216.926 612.163,214.358 615.327,214.358C618.491,214.358 621.055,216.926 621.055,220.092Z" fill="#D9D9D9"/>
<path d="M621.055,443.723C621.055,446.889 618.491,449.457 615.327,449.457C612.163,449.457 609.598,446.889 609.598,443.723C609.598,440.556 612.163,437.989 615.327,437.989C618.491,437.989 621.055,440.556 621.055,443.723Z" fill="#D9D9D9"/>
<path d="M323.166,71.006C323.166,74.173 320.601,76.74 317.437,76.74C314.273,76.74 311.708,74.173 311.708,71.006C311.708,67.839 314.273,65.272 317.437,65.272C320.601,65.272 323.166,67.839 323.166,71.006Z" fill="#D9D9D9"/>
<path d="M323.166,294.636C323.166,297.803 320.601,300.37 317.437,300.37C314.273,300.37 311.708,297.803 311.708,294.636C311.708,291.469 314.273,288.902 317.437,288.902C320.601,288.902 323.166,291.469 323.166,294.636Z" fill="#D9D9D9"/>
<path d="M323.166,220.092C323.166,223.259 320.601,225.827 317.437,225.827C314.273,225.827 311.708,223.259 311.708,220.092C311.708,216.926 314.273,214.358 317.437,214.358C320.601,214.358 323.166,216.926 323.166,220.092Z" fill="#D9D9D9"/>
<path d="M323.166,443.723C323.166,446.889 320.601,449.457 317.437,449.457C314.273,449.457 311.708,446.889 311.708,443.723C311.708,440.556 314.273,437.989 317.437,437.989C320.601,437.989 323.166,440.556 323.166,443.723Z" fill="#D9D9D9"/>
<defs>
<linearGradient id="pf_0_83_379" x1="484" y1="0" x2="484" y2="836" gradientUnits="userSpaceOnUse">
<stop stop-color="#007AFF"/>
<stop offset="1" stop-color="#004999"/>
</linearGradient>
</defs>
</svg>
