<svg width="1148" height="930" viewBox="0 0 1148 930" fill="none" xmlns="http://www.w3.org/2000/svg" xmlns:xlink="http://www.w3.org/1999/xlink">
<path d="M103.336,31.183C105.312,13.822 121.649,1.817 138.809,5.117L1112.988,192.459C1130.93,195.91 1141.648,214.464 1135.672,231.732L900.988,909.812C896.806,921.896 885.424,930 872.638,930L34.61,930C16.697,930 2.776,914.404 4.802,896.606L103.336,31.183Z" fill="url(#pf_0_69_868)" stroke="url(#ps_0_69_868)" stroke-width="1" stroke-miterlimit="3.999327"/>
<path d="M504.291,80.277C504.291,83.444 501.726,86.012 498.563,86.012C495.399,86.012 492.834,83.444 492.834,80.277C492.834,77.111 495.399,74.543 498.563,74.543C501.726,74.543 504.291,77.111 504.291,80.277Z" fill="#D9D9D9"/>
<path d="M504.291,303.908C504.291,307.074 501.726,309.642 498.563,309.642C495.399,309.642 492.834,307.074 492.834,303.908C492.834,300.741 495.399,298.173 498.563,298.173C501.726,298.173 504.291,300.741 504.291,303.908Z" fill="#D9D9D9"/>
<path d="M504.291,229.364C504.291,232.531 501.726,235.098 498.563,235.098C495.399,235.098 492.834,232.531 492.834,229.364C492.834,226.197 495.399,223.63 498.563,223.63C501.726,223.63 504.291,226.197 504.291,229.364Z" fill="#D9D9D9"/>
<path d="M504.291,452.994C504.291,456.161 501.726,458.728 498.563,458.728C495.399,458.728 492.834,456.161 492.834,452.994C492.834,449.827 495.399,447.26 498.563,447.26C501.726,447.26 504.291,449.827 504.291,452.994Z" fill="#D9D9D9"/>
<path d="M206.402,80.277C206.402,83.444 203.837,86.012 200.673,86.012C197.51,86.012 194.945,83.444 194.945,80.277C194.945,77.111 197.51,74.543 200.673,74.543C203.837,74.543 206.402,77.111 206.402,80.277Z" fill="#D9D9D9"/>
<path d="M206.402,303.908C206.402,307.074 203.837,309.642 200.673,309.642C197.51,309.642 194.945,307.074 194.945,303.908C194.945,300.741 197.51,298.173 200.673,298.173C203.837,298.173 206.402,300.741 206.402,303.908Z" fill="#D9D9D9"/>
<path d="M206.402,229.364C206.402,232.531 203.837,235.098 200.673,235.098C197.51,235.098 194.945,232.531 194.945,229.364C194.945,226.197 197.51,223.63 200.673,223.63C203.837,223.63 206.402,226.197 206.402,229.364Z" fill="#D9D9D9"/>
<path d="M206.402,452.994C206.402,456.161 203.837,458.728 200.673,458.728C197.51,458.728 194.945,456.161 194.945,452.994C194.945,449.827 197.51,447.26 200.673,447.26C203.837,447.26 206.402,449.827 206.402,452.994Z" fill="#D9D9D9"/>
<path d="M504.291,5.734C504.291,8.901 501.726,11.468 498.563,11.468C495.399,11.468 492.834,8.901 492.834,5.734C492.834,2.567 495.399,0 498.563,0C501.726,0 504.291,2.567 504.291,5.734Z" fill="#D9D9D9"/>
<path d="M504.291,229.364C504.291,232.531 501.726,235.098 498.563,235.098C495.399,235.098 492.834,232.531 492.834,229.364C492.834,226.197 495.399,223.63 498.563,223.63C501.726,223.63 504.291,226.197 504.291,229.364Z" fill="#D9D9D9"/>
<path d="M504.291,154.821C504.291,157.988 501.726,160.555 498.563,160.555C495.399,160.555 492.834,157.988 492.834,154.821C492.834,151.654 495.399,149.087 498.563,149.087C501.726,149.087 504.291,151.654 504.291,154.821Z" fill="#D9D9D9"/>
<path d="M504.291,378.451C504.291,381.618 501.726,384.185 498.563,384.185C495.399,384.185 492.834,381.618 492.834,378.451C492.834,375.284 495.399,372.717 498.563,372.717C501.726,372.717 504.291,375.284 504.291,378.451Z" fill="#D9D9D9"/>
<path d="M206.402,5.734C206.402,8.901 203.837,11.468 200.673,11.468C197.51,11.468 194.945,8.901 194.945,5.734C194.945,2.567 197.51,0 200.673,0C203.837,0 206.402,2.567 206.402,5.734Z" fill="#D9D9D9"/>
<path d="M206.402,229.364C206.402,232.531 203.837,235.098 200.673,235.098C197.51,235.098 194.945,232.531 194.945,229.364C194.945,226.197 197.51,223.63 200.673,223.63C203.837,223.63 206.402,226.197 206.402,229.364Z" fill="#D9D9D9"/>
<path d="M206.402,154.821C206.402,157.988 203.837,160.555 200.673,160.555C197.51,160.555 194.945,157.988 194.945,154.821C194.945,151.654 197.51,149.087 200.673,149.087C203.837,149.087 206.402,151.654 206.402,154.821Z" fill="#D9D9D9"/>
<path d="M206.402,378.451C206.402,381.618 203.837,384.185 200.673,384.185C197.51,384.185 194.945,381.618 194.945,378.451C194.945,375.284 197.51,372.717 200.673,372.717C203.837,372.717 206.402,375.284 206.402,378.451Z" fill="#D9D9D9"/>
<path d="M504.291,117.549C504.291,120.716 501.726,123.283 498.563,123.283C495.399,123.283 492.834,120.716 492.834,117.549C492.834,114.382 495.399,111.815 498.563,111.815C501.726,111.815 504.291,114.382 504.291,117.549Z" fill="#D9D9D9"/>
<path d="M504.291,341.179C504.291,344.346 501.726,346.913 498.563,346.913C495.399,346.913 492.834,344.346 492.834,341.179C492.834,338.012 495.399,335.445 498.563,335.445C501.726,335.445 504.291,338.012 504.291,341.179Z" fill="#D9D9D9"/>
<path d="M504.291,266.636C504.291,269.803 501.726,272.37 498.563,272.37C495.399,272.37 492.834,269.803 492.834,266.636C492.834,263.469 495.399,260.902 498.563,260.902C501.726,260.902 504.291,263.469 504.291,266.636Z" fill="#D9D9D9"/>
<path d="M504.291,490.266C504.291,493.433 501.726,496 498.563,496C495.399,496 492.834,493.433 492.834,490.266C492.834,487.099 495.399,484.532 498.563,484.532C501.726,484.532 504.291,487.099 504.291,490.266Z" fill="#D9D9D9"/>
<path d="M206.402,117.549C206.402,120.716 203.837,123.283 200.673,123.283C197.51,123.283 194.945,120.716 194.945,117.549C194.945,114.382 197.51,111.815 200.673,111.815C203.837,111.815 206.402,114.382 206.402,117.549Z" fill="#D9D9D9"/>
<path d="M206.402,341.179C206.402,344.346 203.837,346.913 200.673,346.913C197.51,346.913 194.945,344.346 194.945,341.179C194.945,338.012 197.51,335.445 200.673,335.445C203.837,335.445 206.402,338.012 206.402,341.179Z" fill="#D9D9D9"/>
<path d="M206.402,266.636C206.402,269.803 203.837,272.37 200.673,272.37C197.51,272.37 194.945,269.803 194.945,266.636C194.945,263.469 197.51,260.902 200.673,260.902C203.837,260.902 206.402,263.469 206.402,266.636Z" fill="#D9D9D9"/>
<path d="M206.402,490.266C206.402,493.433 203.837,496 200.673,496C197.51,496 194.945,493.433 194.945,490.266C194.945,487.099 197.51,484.532 200.673,484.532C203.837,484.532 206.402,487.099 206.402,490.266Z" fill="#D9D9D9"/>
<path d="M504.291,43.006C504.291,46.173 501.726,48.74 498.563,48.74C495.399,48.74 492.834,46.173 492.834,43.006C492.834,39.839 495.399,37.272 498.563,37.272C501.726,37.272 504.291,39.839 504.291,43.006Z" fill="#D9D9D9"/>
<path d="M504.291,266.636C504.291,269.803 501.726,272.37 498.563,272.37C495.399,272.37 492.834,269.803 492.834,266.636C492.834,263.469 495.399,260.902 498.563,260.902C501.726,260.902 504.291,263.469 504.291,266.636Z" fill="#D9D9D9"/>
<path d="M504.291,192.092C504.291,195.259 501.726,197.827 498.563,197.827C495.399,197.827 492.834,195.259 492.834,192.092C492.834,188.926 495.399,186.358 498.563,186.358C501.726,186.358 504.291,188.926 504.291,192.092Z" fill="#D9D9D9"/>
<path d="M504.291,415.723C504.291,418.889 501.726,421.457 498.563,421.457C495.399,421.457 492.834,418.889 492.834,415.723C492.834,412.556 495.399,409.988 498.563,409.988C501.726,409.988 504.291,412.556 504.291,415.723Z" fill="#D9D9D9"/>
<path d="M206.402,43.006C206.402,46.173 203.837,48.74 200.673,48.74C197.51,48.74 194.945,46.173 194.945,43.006C194.945,39.839 197.51,37.272 200.673,37.272C203.837,37.272 206.402,39.839 206.402,43.006Z" fill="#D9D9D9"/>
<path d="M206.402,266.636C206.402,269.803 203.837,272.37 200.673,272.37C197.51,272.37 194.945,269.803 194.945,266.636C194.945,263.469 197.51,260.902 200.673,260.902C203.837,260.902 206.402,263.469 206.402,266.636Z" fill="#D9D9D9"/>
<path d="M206.402,192.092C206.402,195.259 203.837,197.827 200.673,197.827C197.51,197.827 194.945,195.259 194.945,192.092C194.945,188.926 197.51,186.358 200.673,186.358C203.837,186.358 206.402,188.926 206.402,192.092Z" fill="#D9D9D9"/>
<path d="M206.402,415.723C206.402,418.889 203.837,421.457 200.673,421.457C197.51,421.457 194.945,418.889 194.945,415.723C194.945,412.556 197.51,409.988 200.673,409.988C203.837,409.988 206.402,412.556 206.402,415.723Z" fill="#D9D9D9"/>
<path d="M355.347,80.277C355.347,83.444 352.782,86.012 349.618,86.012C346.454,86.012 343.89,83.444 343.89,80.277C343.89,77.111 346.454,74.543 349.618,74.543C352.782,74.543 355.347,77.111 355.347,80.277Z" fill="#D9D9D9"/>
<path d="M355.347,303.908C355.347,307.074 352.782,309.642 349.618,309.642C346.454,309.642 343.89,307.074 343.89,303.908C343.89,300.741 346.454,298.173 349.618,298.173C352.782,298.173 355.347,300.741 355.347,303.908Z" fill="#D9D9D9"/>
<path d="M355.347,229.364C355.347,232.531 352.782,235.098 349.618,235.098C346.454,235.098 343.89,232.531 343.89,229.364C343.89,226.197 346.454,223.63 349.618,223.63C352.782,223.63 355.347,226.197 355.347,229.364Z" fill="#D9D9D9"/>
<path d="M355.347,452.994C355.347,456.161 352.782,458.728 349.618,458.728C346.454,458.728 343.89,456.161 343.89,452.994C343.89,449.827 346.454,447.26 349.618,447.26C352.782,447.26 355.347,449.827 355.347,452.994Z" fill="#D9D9D9"/>
<path d="M57.457,80.277C57.457,83.444 54.892,86.012 51.729,86.012C48.565,86.012 46,83.444 46,80.277C46,77.111 48.565,74.543 51.729,74.543C54.892,74.543 57.457,77.111 57.457,80.277Z" fill="#D9D9D9"/>
<path d="M57.457,303.908C57.457,307.074 54.892,309.642 51.729,309.642C48.565,309.642 46,307.074 46,303.908C46,300.741 48.565,298.173 51.729,298.173C54.892,298.173 57.457,300.741 57.457,303.908Z" fill="#D9D9D9"/>
<path d="M57.457,229.364C57.457,232.531 54.892,235.098 51.729,235.098C48.565,235.098 46,232.531 46,229.364C46,226.197 48.565,223.63 51.729,223.63C54.892,223.63 57.457,226.197 57.457,229.364Z" fill="#D9D9D9"/>
<path d="M57.457,452.994C57.457,456.161 54.892,458.728 51.729,458.728C48.565,458.728 46,456.161 46,452.994C46,449.827 48.565,447.26 51.729,447.26C54.892,447.26 57.457,449.827 57.457,452.994Z" fill="#D9D9D9"/>
<path d="M355.347,5.734C355.347,8.901 352.782,11.468 349.618,11.468C346.454,11.468 343.89,8.901 343.89,5.734C343.89,2.567 346.454,0 349.618,0C352.782,0 355.347,2.567 355.347,5.734Z" fill="#D9D9D9"/>
<path d="M355.347,229.364C355.347,232.531 352.782,235.098 349.618,235.098C346.454,235.098 343.89,232.531 343.89,229.364C343.89,226.197 346.454,223.63 349.618,223.63C352.782,223.63 355.347,226.197 355.347,229.364Z" fill="#D9D9D9"/>
<path d="M355.347,154.821C355.347,157.988 352.782,160.555 349.618,160.555C346.454,160.555 343.89,157.988 343.89,154.821C343.89,151.654 346.454,149.087 349.618,149.087C352.782,149.087 355.347,151.654 355.347,154.821Z" fill="#D9D9D9"/>
<path d="M355.347,378.451C355.347,381.618 352.782,384.185 349.618,384.185C346.454,384.185 343.89,381.618 343.89,378.451C343.89,375.284 346.454,372.717 349.618,372.717C352.782,372.717 355.347,375.284 355.347,378.451Z" fill="#D9D9D9"/>
<path d="M57.457,5.734C57.457,8.901 54.892,11.468 51.729,11.468C48.565,11.468 46,8.901 46,5.734C46,2.567 48.565,0 51.729,0C54.892,0 57.457,2.567 57.457,5.734Z" fill="#D9D9D9"/>
<path d="M57.457,229.364C57.457,232.531 54.892,235.098 51.729,235.098C48.565,235.098 46,232.531 46,229.364C46,226.197 48.565,223.63 51.729,223.63C54.892,223.63 57.457,226.197 57.457,229.364Z" fill="#D9D9D9"/>
<path d="M57.457,154.821C57.457,157.988 54.892,160.555 51.729,160.555C48.565,160.555 46,157.988 46,154.821C46,151.654 48.565,149.087 51.729,149.087C54.892,149.087 57.457,151.654 57.457,154.821Z" fill="#D9D9D9"/>
<path d="M57.457,378.451C57.457,381.618 54.892,384.185 51.729,384.185C48.565,384.185 46,381.618 46,378.451C46,375.284 48.565,372.717 51.729,372.717C54.892,372.717 57.457,375.284 57.457,378.451Z" fill="#D9D9D9"/>
<path d="M355.347,117.549C355.347,120.716 352.782,123.283 349.618,123.283C346.454,123.283 343.89,120.716 343.89,117.549C343.89,114.382 346.454,111.815 349.618,111.815C352.782,111.815 355.347,114.382 355.347,117.549Z" fill="#D9D9D9"/>
<path d="M355.347,341.179C355.347,344.346 352.782,346.913 349.618,346.913C346.454,346.913 343.89,344.346 343.89,341.179C343.89,338.012 346.454,335.445 349.618,335.445C352.782,335.445 355.347,338.012 355.347,341.179Z" fill="#D9D9D9"/>
<path d="M355.347,266.636C355.347,269.803 352.782,272.37 349.618,272.37C346.454,272.37 343.89,269.803 343.89,266.636C343.89,263.469 346.454,260.902 349.618,260.902C352.782,260.902 355.347,263.469 355.347,266.636Z" fill="#D9D9D9"/>
<path d="M355.347,490.266C355.347,493.433 352.782,496 349.618,496C346.454,496 343.89,493.433 343.89,490.266C343.89,487.099 346.454,484.532 349.618,484.532C352.782,484.532 355.347,487.099 355.347,490.266Z" fill="#D9D9D9"/>
<path d="M57.457,117.549C57.457,120.716 54.892,123.283 51.729,123.283C48.565,123.283 46,120.716 46,117.549C46,114.382 48.565,111.815 51.729,111.815C54.892,111.815 57.457,114.382 57.457,117.549Z" fill="#D9D9D9"/>
<path d="M57.457,341.179C57.457,344.346 54.892,346.913 51.729,346.913C48.565,346.913 46,344.346 46,341.179C46,338.012 48.565,335.445 51.729,335.445C54.892,335.445 57.457,338.012 57.457,341.179Z" fill="#D9D9D9"/>
<path d="M57.457,266.636C57.457,269.803 54.892,272.37 51.729,272.37C48.565,272.37 46,269.803 46,266.636C46,263.469 48.565,260.902 51.729,260.902C54.892,260.902 57.457,263.469 57.457,266.636Z" fill="#D9D9D9"/>
<path d="M57.457,490.266C57.457,493.433 54.892,496 51.729,496C48.565,496 46,493.433 46,490.266C46,487.099 48.565,484.532 51.729,484.532C54.892,484.532 57.457,487.099 57.457,490.266Z" fill="#D9D9D9"/>
<path d="M355.347,43.006C355.347,46.173 352.782,48.74 349.618,48.74C346.454,48.74 343.89,46.173 343.89,43.006C343.89,39.839 346.454,37.272 349.618,37.272C352.782,37.272 355.347,39.839 355.347,43.006Z" fill="#D9D9D9"/>
<path d="M355.347,266.636C355.347,269.803 352.782,272.37 349.618,272.37C346.454,272.37 343.89,269.803 343.89,266.636C343.89,263.469 346.454,260.902 349.618,260.902C352.782,260.902 355.347,263.469 355.347,266.636Z" fill="#D9D9D9"/>
<path d="M355.347,192.092C355.347,195.259 352.782,197.827 349.618,197.827C346.454,197.827 343.89,195.259 343.89,192.092C343.89,188.926 346.454,186.358 349.618,186.358C352.782,186.358 355.347,188.926 355.347,192.092Z" fill="#D9D9D9"/>
<path d="M355.347,415.723C355.347,418.889 352.782,421.457 349.618,421.457C346.454,421.457 343.89,418.889 343.89,415.723C343.89,412.556 346.454,409.988 349.618,409.988C352.782,409.988 355.347,412.556 355.347,415.723Z" fill="#D9D9D9"/>
<path d="M57.457,43.006C57.457,46.173 54.892,48.74 51.729,48.74C48.565,48.74 46,46.173 46,43.006C46,39.839 48.565,37.272 51.729,37.272C54.892,37.272 57.457,39.839 57.457,43.006Z" fill="#D9D9D9"/>
<path d="M57.457,266.636C57.457,269.803 54.892,272.37 51.729,272.37C48.565,272.37 46,269.803 46,266.636C46,263.469 48.565,260.902 51.729,260.902C54.892,260.902 57.457,263.469 57.457,266.636Z" fill="#D9D9D9"/>
<path d="M57.457,192.092C57.457,195.259 54.892,197.827 51.729,197.827C48.565,197.827 46,195.259 46,192.092C46,188.926 48.565,186.358 51.729,186.358C54.892,186.358 57.457,188.926 57.457,192.092Z" fill="#D9D9D9"/>
<path d="M57.457,415.723C57.457,418.889 54.892,421.457 51.729,421.457C48.565,421.457 46,418.889 46,415.723C46,412.556 48.565,409.988 51.729,409.988C54.892,409.988 57.457,412.556 57.457,415.723Z" fill="#D9D9D9"/>
<path d="M578.764,80.277C578.764,83.444 576.199,86.012 573.035,86.012C569.871,86.012 567.307,83.444 567.307,80.277C567.307,77.111 569.871,74.543 573.035,74.543C576.199,74.543 578.764,77.111 578.764,80.277Z" fill="#D9D9D9"/>
<path d="M578.764,303.908C578.764,307.074 576.199,309.642 573.035,309.642C569.871,309.642 567.307,307.074 567.307,303.908C567.307,300.741 569.871,298.173 573.035,298.173C576.199,298.173 578.764,300.741 578.764,303.908Z" fill="#D9D9D9"/>
<path d="M578.764,229.364C578.764,232.531 576.199,235.098 573.035,235.098C569.871,235.098 567.307,232.531 567.307,229.364C567.307,226.197 569.871,223.63 573.035,223.63C576.199,223.63 578.764,226.197 578.764,229.364Z" fill="#D9D9D9"/>
<path d="M578.764,452.994C578.764,456.161 576.199,458.728 573.035,458.728C569.871,458.728 567.307,456.161 567.307,452.994C567.307,449.827 569.871,447.26 573.035,447.26C576.199,447.26 578.764,449.827 578.764,452.994Z" fill="#D9D9D9"/>
<path d="M280.874,80.277C280.874,83.444 278.309,86.012 275.146,86.012C271.982,86.012 269.417,83.444 269.417,80.277C269.417,77.111 271.982,74.543 275.146,74.543C278.309,74.543 280.874,77.111 280.874,80.277Z" fill="#D9D9D9"/>
<path d="M280.874,303.908C280.874,307.074 278.309,309.642 275.146,309.642C271.982,309.642 269.417,307.074 269.417,303.908C269.417,300.741 271.982,298.173 275.146,298.173C278.309,298.173 280.874,300.741 280.874,303.908Z" fill="#D9D9D9"/>
<path d="M280.874,229.364C280.874,232.531 278.309,235.098 275.146,235.098C271.982,235.098 269.417,232.531 269.417,229.364C269.417,226.197 271.982,223.63 275.146,223.63C278.309,223.63 280.874,226.197 280.874,229.364Z" fill="#D9D9D9"/>
<path d="M280.874,452.994C280.874,456.161 278.309,458.728 275.146,458.728C271.982,458.728 269.417,456.161 269.417,452.994C269.417,449.827 271.982,447.26 275.146,447.26C278.309,447.26 280.874,449.827 280.874,452.994Z" fill="#D9D9D9"/>
<path d="M578.764,5.734C578.764,8.901 576.199,11.468 573.035,11.468C569.871,11.468 567.307,8.901 567.307,5.734C567.307,2.567 569.871,0 573.035,0C576.199,0 578.764,2.567 578.764,5.734Z" fill="#D9D9D9"/>
<path d="M578.764,229.364C578.764,232.531 576.199,235.098 573.035,235.098C569.871,235.098 567.307,232.531 567.307,229.364C567.307,226.197 569.871,223.63 573.035,223.63C576.199,223.63 578.764,226.197 578.764,229.364Z" fill="#D9D9D9"/>
<path d="M578.764,154.821C578.764,157.988 576.199,160.555 573.035,160.555C569.871,160.555 567.307,157.988 567.307,154.821C567.307,151.654 569.871,149.087 573.035,149.087C576.199,149.087 578.764,151.654 578.764,154.821Z" fill="#D9D9D9"/>
<path d="M578.764,378.451C578.764,381.618 576.199,384.185 573.035,384.185C569.871,384.185 567.307,381.618 567.307,378.451C567.307,375.284 569.871,372.717 573.035,372.717C576.199,372.717 578.764,375.284 578.764,378.451Z" fill="#D9D9D9"/>
<path d="M280.874,5.734C280.874,8.901 278.309,11.468 275.146,11.468C271.982,11.468 269.417,8.901 269.417,5.734C269.417,2.567 271.982,0 275.146,0C278.309,0 280.874,2.567 280.874,5.734Z" fill="#D9D9D9"/>
<path d="M280.874,229.364C280.874,232.531 278.309,235.098 275.146,235.098C271.982,235.098 269.417,232.531 269.417,229.364C269.417,226.197 271.982,223.63 275.146,223.63C278.309,223.63 280.874,226.197 280.874,229.364Z" fill="#D9D9D9"/>
<path d="M280.874,154.821C280.874,157.988 278.309,160.555 275.146,160.555C271.982,160.555 269.417,157.988 269.417,154.821C269.417,151.654 271.982,149.087 275.146,149.087C278.309,149.087 280.874,151.654 280.874,154.821Z" fill="#D9D9D9"/>
<path d="M280.874,378.451C280.874,381.618 278.309,384.185 275.146,384.185C271.982,384.185 269.417,381.618 269.417,378.451C269.417,375.284 271.982,372.717 275.146,372.717C278.309,372.717 280.874,375.284 280.874,378.451Z" fill="#D9D9D9"/>
<path d="M578.764,117.549C578.764,120.716 576.199,123.283 573.035,123.283C569.871,123.283 567.307,120.716 567.307,117.549C567.307,114.382 569.871,111.815 573.035,111.815C576.199,111.815 578.764,114.382 578.764,117.549Z" fill="#D9D9D9"/>
<path d="M578.764,341.179C578.764,344.346 576.199,346.913 573.035,346.913C569.871,346.913 567.307,344.346 567.307,341.179C567.307,338.012 569.871,335.445 573.035,335.445C576.199,335.445 578.764,338.012 578.764,341.179Z" fill="#D9D9D9"/>
<path d="M578.764,266.636C578.764,269.803 576.199,272.37 573.035,272.37C569.871,272.37 567.307,269.803 567.307,266.636C567.307,263.469 569.871,260.902 573.035,260.902C576.199,260.902 578.764,263.469 578.764,266.636Z" fill="#D9D9D9"/>
<path d="M578.764,490.266C578.764,493.433 576.199,496 573.035,496C569.871,496 567.307,493.433 567.307,490.266C567.307,487.099 569.871,484.532 573.035,484.532C576.199,484.532 578.764,487.099 578.764,490.266Z" fill="#D9D9D9"/>
<path d="M280.874,117.549C280.874,120.716 278.309,123.283 275.146,123.283C271.982,123.283 269.417,120.716 269.417,117.549C269.417,114.382 271.982,111.815 275.146,111.815C278.309,111.815 280.874,114.382 280.874,117.549Z" fill="#D9D9D9"/>
<path d="M280.874,341.179C280.874,344.346 278.309,346.913 275.146,346.913C271.982,346.913 269.417,344.346 269.417,341.179C269.417,338.012 271.982,335.445 275.146,335.445C278.309,335.445 280.874,338.012 280.874,341.179Z" fill="#D9D9D9"/>
<path d="M280.874,266.636C280.874,269.803 278.309,272.37 275.146,272.37C271.982,272.37 269.417,269.803 269.417,266.636C269.417,263.469 271.982,260.902 275.146,260.902C278.309,260.902 280.874,263.469 280.874,266.636Z" fill="#D9D9D9"/>
<path d="M280.874,490.266C280.874,493.433 278.309,496 275.146,496C271.982,496 269.417,493.433 269.417,490.266C269.417,487.099 271.982,484.532 275.146,484.532C278.309,484.532 280.874,487.099 280.874,490.266Z" fill="#D9D9D9"/>
<path d="M578.764,43.006C578.764,46.173 576.199,48.74 573.035,48.74C569.871,48.74 567.307,46.173 567.307,43.006C567.307,39.839 569.871,37.272 573.035,37.272C576.199,37.272 578.764,39.839 578.764,43.006Z" fill="#D9D9D9"/>
<path d="M578.764,266.636C578.764,269.803 576.199,272.37 573.035,272.37C569.871,272.37 567.307,269.803 567.307,266.636C567.307,263.469 569.871,260.902 573.035,260.902C576.199,260.902 578.764,263.469 578.764,266.636Z" fill="#D9D9D9"/>
<path d="M578.764,192.092C578.764,195.259 576.199,197.827 573.035,197.827C569.871,197.827 567.307,195.259 567.307,192.092C567.307,188.926 569.871,186.358 573.035,186.358C576.199,186.358 578.764,188.926 578.764,192.092Z" fill="#D9D9D9"/>
<path d="M578.764,415.723C578.764,418.889 576.199,421.457 573.035,421.457C569.871,421.457 567.307,418.889 567.307,415.723C567.307,412.556 569.871,409.988 573.035,409.988C576.199,409.988 578.764,412.556 578.764,415.723Z" fill="#D9D9D9"/>
<path d="M280.874,43.006C280.874,46.173 278.309,48.74 275.146,48.74C271.982,48.74 269.417,46.173 269.417,43.006C269.417,39.839 271.982,37.272 275.146,37.272C278.309,37.272 280.874,39.839 280.874,43.006Z" fill="#D9D9D9"/>
<path d="M280.874,266.636C280.874,269.803 278.309,272.37 275.146,272.37C271.982,272.37 269.417,269.803 269.417,266.636C269.417,263.469 271.982,260.902 275.146,260.902C278.309,260.902 280.874,263.469 280.874,266.636Z" fill="#D9D9D9"/>
<path d="M280.874,192.092C280.874,195.259 278.309,197.827 275.146,197.827C271.982,197.827 269.417,195.259 269.417,192.092C269.417,188.926 271.982,186.358 275.146,186.358C278.309,186.358 280.874,188.926 280.874,192.092Z" fill="#D9D9D9"/>
<path d="M280.874,415.723C280.874,418.889 278.309,421.457 275.146,421.457C271.982,421.457 269.417,418.889 269.417,415.723C269.417,412.556 271.982,409.988 275.146,409.988C278.309,409.988 280.874,412.556 280.874,415.723Z" fill="#D9D9D9"/>
<path d="M429.819,80.277C429.819,83.444 427.254,86.012 424.09,86.012C420.927,86.012 418.362,83.444 418.362,80.277C418.362,77.111 420.927,74.543 424.09,74.543C427.254,74.543 429.819,77.111 429.819,80.277Z" fill="#D9D9D9"/>
<path d="M429.819,303.908C429.819,307.074 427.254,309.642 424.09,309.642C420.927,309.642 418.362,307.074 418.362,303.908C418.362,300.741 420.927,298.173 424.09,298.173C427.254,298.173 429.819,300.741 429.819,303.908Z" fill="#D9D9D9"/>
<path d="M429.819,229.364C429.819,232.531 427.254,235.098 424.09,235.098C420.927,235.098 418.362,232.531 418.362,229.364C418.362,226.197 420.927,223.63 424.09,223.63C427.254,223.63 429.819,226.197 429.819,229.364Z" fill="#D9D9D9"/>
<path d="M429.819,452.994C429.819,456.161 427.254,458.728 424.09,458.728C420.927,458.728 418.362,456.161 418.362,452.994C418.362,449.827 420.927,447.26 424.09,447.26C427.254,447.26 429.819,449.827 429.819,452.994Z" fill="#D9D9D9"/>
<path d="M131.929,80.277C131.929,83.444 129.365,86.012 126.201,86.012C123.037,86.012 120.472,83.444 120.472,80.277C120.472,77.111 123.037,74.543 126.201,74.543C129.365,74.543 131.929,77.111 131.929,80.277Z" fill="#D9D9D9"/>
<path d="M131.929,303.908C131.929,307.074 129.365,309.642 126.201,309.642C123.037,309.642 120.472,307.074 120.472,303.908C120.472,300.741 123.037,298.173 126.201,298.173C129.365,298.173 131.929,300.741 131.929,303.908Z" fill="#D9D9D9"/>
<path d="M131.929,229.364C131.929,232.531 129.365,235.098 126.201,235.098C123.037,235.098 120.472,232.531 120.472,229.364C120.472,226.197 123.037,223.63 126.201,223.63C129.365,223.63 131.929,226.197 131.929,229.364Z" fill="#D9D9D9"/>
<path d="M131.929,452.994C131.929,456.161 129.365,458.728 126.201,458.728C123.037,458.728 120.472,456.161 120.472,452.994C120.472,449.827 123.037,447.26 126.201,447.26C129.365,447.26 131.929,449.827 131.929,452.994Z" fill="#D9D9D9"/>
<path d="M429.819,5.734C429.819,8.901 427.254,11.468 424.09,11.468C420.927,11.468 418.362,8.901 418.362,5.734C418.362,2.567 420.927,0 424.09,0C427.254,0 429.819,2.567 429.819,5.734Z" fill="#D9D9D9"/>
<path d="M429.819,229.364C429.819,232.531 427.254,235.098 424.09,235.098C420.927,235.098 418.362,232.531 418.362,229.364C418.362,226.197 420.927,223.63 424.09,223.63C427.254,223.63 429.819,226.197 429.819,229.364Z" fill="#D9D9D9"/>
<path d="M429.819,154.821C429.819,157.988 427.254,160.555 424.09,160.555C420.927,160.555 418.362,157.988 418.362,154.821C418.362,151.654 420.927,149.087 424.09,149.087C427.254,149.087 429.819,151.654 429.819,154.821Z" fill="#D9D9D9"/>
<path d="M429.819,378.451C429.819,381.618 427.254,384.185 424.09,384.185C420.927,384.185 418.362,381.618 418.362,378.451C418.362,375.284 420.927,372.717 424.09,372.717C427.254,372.717 429.819,375.284 429.819,378.451Z" fill="#D9D9D9"/>
<path d="M131.929,5.734C131.929,8.901 129.365,11.468 126.201,11.468C123.037,11.468 120.472,8.901 120.472,5.734C120.472,2.567 123.037,0 126.201,0C129.365,0 131.929,2.567 131.929,5.734Z" fill="#D9D9D9"/>
<path d="M131.929,229.364C131.929,232.531 129.365,235.098 126.201,235.098C123.037,235.098 120.472,232.531 120.472,229.364C120.472,226.197 123.037,223.63 126.201,223.63C129.365,223.63 131.929,226.197 131.929,229.364Z" fill="#D9D9D9"/>
<path d="M131.929,154.821C131.929,157.988 129.365,160.555 126.201,160.555C123.037,160.555 120.472,157.988 120.472,154.821C120.472,151.654 123.037,149.087 126.201,149.087C129.365,149.087 131.929,151.654 131.929,154.821Z" fill="#D9D9D9"/>
<path d="M131.929,378.451C131.929,381.618 129.365,384.185 126.201,384.185C123.037,384.185 120.472,381.618 120.472,378.451C120.472,375.284 123.037,372.717 126.201,372.717C129.365,372.717 131.929,375.284 131.929,378.451Z" fill="#D9D9D9"/>
<path d="M429.819,117.549C429.819,120.716 427.254,123.283 424.09,123.283C420.927,123.283 418.362,120.716 418.362,117.549C418.362,114.382 420.927,111.815 424.09,111.815C427.254,111.815 429.819,114.382 429.819,117.549Z" fill="#D9D9D9"/>
<path d="M429.819,341.179C429.819,344.346 427.254,346.913 424.09,346.913C420.927,346.913 418.362,344.346 418.362,341.179C418.362,338.012 420.927,335.445 424.09,335.445C427.254,335.445 429.819,338.012 429.819,341.179Z" fill="#D9D9D9"/>
<path d="M429.819,266.636C429.819,269.803 427.254,272.37 424.09,272.37C420.927,272.37 418.362,269.803 418.362,266.636C418.362,263.469 420.927,260.902 424.09,260.902C427.254,260.902 429.819,263.469 429.819,266.636Z" fill="#D9D9D9"/>
<path d="M429.819,490.266C429.819,493.433 427.254,496 424.09,496C420.927,496 418.362,493.433 418.362,490.266C418.362,487.099 420.927,484.532 424.09,484.532C427.254,484.532 429.819,487.099 429.819,490.266Z" fill="#D9D9D9"/>
<path d="M131.929,117.549C131.929,120.716 129.365,123.283 126.201,123.283C123.037,123.283 120.472,120.716 120.472,117.549C120.472,114.382 123.037,111.815 126.201,111.815C129.365,111.815 131.929,114.382 131.929,117.549Z" fill="#D9D9D9"/>
<path d="M131.929,341.179C131.929,344.346 129.365,346.913 126.201,346.913C123.037,346.913 120.472,344.346 120.472,341.179C120.472,338.012 123.037,335.445 126.201,335.445C129.365,335.445 131.929,338.012 131.929,341.179Z" fill="#D9D9D9"/>
<path d="M131.929,266.636C131.929,269.803 129.365,272.37 126.201,272.37C123.037,272.37 120.472,269.803 120.472,266.636C120.472,263.469 123.037,260.902 126.201,260.902C129.365,260.902 131.929,263.469 131.929,266.636Z" fill="#D9D9D9"/>
<path d="M131.929,490.266C131.929,493.433 129.365,496 126.201,496C123.037,496 120.472,493.433 120.472,490.266C120.472,487.099 123.037,484.532 126.201,484.532C129.365,484.532 131.929,487.099 131.929,490.266Z" fill="#D9D9D9"/>
<path d="M429.819,43.006C429.819,46.173 427.254,48.74 424.09,48.74C420.927,48.74 418.362,46.173 418.362,43.006C418.362,39.839 420.927,37.272 424.09,37.272C427.254,37.272 429.819,39.839 429.819,43.006Z" fill="#D9D9D9"/>
<path d="M429.819,266.636C429.819,269.803 427.254,272.37 424.09,272.37C420.927,272.37 418.362,269.803 418.362,266.636C418.362,263.469 420.927,260.902 424.09,260.902C427.254,260.902 429.819,263.469 429.819,266.636Z" fill="#D9D9D9"/>
<path d="M429.819,192.092C429.819,195.259 427.254,197.827 424.09,197.827C420.927,197.827 418.362,195.259 418.362,192.092C418.362,188.926 420.927,186.358 424.09,186.358C427.254,186.358 429.819,188.926 429.819,192.092Z" fill="#D9D9D9"/>
<path d="M429.819,415.723C429.819,418.889 427.254,421.457 424.09,421.457C420.927,421.457 418.362,418.889 418.362,415.723C418.362,412.556 420.927,409.988 424.09,409.988C427.254,409.988 429.819,412.556 429.819,415.723Z" fill="#D9D9D9"/>
<path d="M131.929,43.006C131.929,46.173 129.365,48.74 126.201,48.74C123.037,48.74 120.472,46.173 120.472,43.006C120.472,39.839 123.037,37.272 126.201,37.272C129.365,37.272 131.929,39.839 131.929,43.006Z" fill="#D9D9D9"/>
<path d="M131.929,266.636C131.929,269.803 129.365,272.37 126.201,272.37C123.037,272.37 120.472,269.803 120.472,266.636C120.472,263.469 123.037,260.902 126.201,260.902C129.365,260.902 131.929,263.469 131.929,266.636Z" fill="#D9D9D9"/>
<path d="M131.929,192.092C131.929,195.259 129.365,197.827 126.201,197.827C123.037,197.827 120.472,195.259 120.472,192.092C120.472,188.926 123.037,186.358 126.201,186.358C129.365,186.358 131.929,188.926 131.929,192.092Z" fill="#D9D9D9"/>
<path d="M131.929,415.723C131.929,418.889 129.365,421.457 126.201,421.457C123.037,421.457 120.472,418.889 120.472,415.723C120.472,412.556 123.037,409.988 126.201,409.988C129.365,409.988 131.929,412.556 131.929,415.723Z" fill="#D9D9D9"/>
<path d="M541.528,80.277C541.528,83.444 538.963,86.012 535.799,86.012C532.635,86.012 530.07,83.444 530.07,80.277C530.07,77.111 532.635,74.543 535.799,74.543C538.963,74.543 541.528,77.111 541.528,80.277Z" fill="#D9D9D9"/>
<path d="M541.528,303.908C541.528,307.074 538.963,309.642 535.799,309.642C532.635,309.642 530.07,307.074 530.07,303.908C530.07,300.741 532.635,298.173 535.799,298.173C538.963,298.173 541.528,300.741 541.528,303.908Z" fill="#D9D9D9"/>
<path d="M541.528,229.364C541.528,232.531 538.963,235.098 535.799,235.098C532.635,235.098 530.07,232.531 530.07,229.364C530.07,226.197 532.635,223.63 535.799,223.63C538.963,223.63 541.528,226.197 541.528,229.364Z" fill="#D9D9D9"/>
<path d="M541.528,452.994C541.528,456.161 538.963,458.728 535.799,458.728C532.635,458.728 530.07,456.161 530.07,452.994C530.07,449.827 532.635,447.26 535.799,447.26C538.963,447.26 541.528,449.827 541.528,452.994Z" fill="#D9D9D9"/>
<path d="M243.638,80.277C243.638,83.444 241.073,86.012 237.909,86.012C234.745,86.012 232.181,83.444 232.181,80.277C232.181,77.111 234.745,74.543 237.909,74.543C241.073,74.543 243.638,77.111 243.638,80.277Z" fill="#D9D9D9"/>
<path d="M243.638,303.908C243.638,307.074 241.073,309.642 237.909,309.642C234.745,309.642 232.181,307.074 232.181,303.908C232.181,300.741 234.745,298.173 237.909,298.173C241.073,298.173 243.638,300.741 243.638,303.908Z" fill="#D9D9D9"/>
<path d="M243.638,229.364C243.638,232.531 241.073,235.098 237.909,235.098C234.745,235.098 232.181,232.531 232.181,229.364C232.181,226.197 234.745,223.63 237.909,223.63C241.073,223.63 243.638,226.197 243.638,229.364Z" fill="#D9D9D9"/>
<path d="M243.638,452.994C243.638,456.161 241.073,458.728 237.909,458.728C234.745,458.728 232.181,456.161 232.181,452.994C232.181,449.827 234.745,447.26 237.909,447.26C241.073,447.26 243.638,449.827 243.638,452.994Z" fill="#D9D9D9"/>
<path d="M541.528,5.734C541.528,8.901 538.963,11.468 535.799,11.468C532.635,11.468 530.07,8.901 530.07,5.734C530.07,2.567 532.635,0 535.799,0C538.963,0 541.528,2.567 541.528,5.734Z" fill="#D9D9D9"/>
<path d="M541.528,229.364C541.528,232.531 538.963,235.098 535.799,235.098C532.635,235.098 530.07,232.531 530.07,229.364C530.07,226.197 532.635,223.63 535.799,223.63C538.963,223.63 541.528,226.197 541.528,229.364Z" fill="#D9D9D9"/>
<path d="M541.528,154.821C541.528,157.988 538.963,160.555 535.799,160.555C532.635,160.555 530.07,157.988 530.07,154.821C530.07,151.654 532.635,149.087 535.799,149.087C538.963,149.087 541.528,151.654 541.528,154.821Z" fill="#D9D9D9"/>
<path d="M541.528,378.451C541.528,381.618 538.963,384.185 535.799,384.185C532.635,384.185 530.07,381.618 530.07,378.451C530.07,375.284 532.635,372.717 535.799,372.717C538.963,372.717 541.528,375.284 541.528,378.451Z" fill="#D9D9D9"/>
<path d="M243.638,5.734C243.638,8.901 241.073,11.468 237.909,11.468C234.745,11.468 232.181,8.901 232.181,5.734C232.181,2.567 234.745,0 237.909,0C241.073,0 243.638,2.567 243.638,5.734Z" fill="#D9D9D9"/>
<path d="M243.638,229.364C243.638,232.531 241.073,235.098 237.909,235.098C234.745,235.098 232.181,232.531 232.181,229.364C232.181,226.197 234.745,223.63 237.909,223.63C241.073,223.63 243.638,226.197 243.638,229.364Z" fill="#D9D9D9"/>
<path d="M243.638,154.821C243.638,157.988 241.073,160.555 237.909,160.555C234.745,160.555 232.181,157.988 232.181,154.821C232.181,151.654 234.745,149.087 237.909,149.087C241.073,149.087 243.638,151.654 243.638,154.821Z" fill="#D9D9D9"/>
<path d="M243.638,378.451C243.638,381.618 241.073,384.185 237.909,384.185C234.745,384.185 232.181,381.618 232.181,378.451C232.181,375.284 234.745,372.717 237.909,372.717C241.073,372.717 243.638,375.284 243.638,378.451Z" fill="#D9D9D9"/>
<path d="M541.528,117.549C541.528,120.716 538.963,123.283 535.799,123.283C532.635,123.283 530.07,120.716 530.07,117.549C530.07,114.382 532.635,111.815 535.799,111.815C538.963,111.815 541.528,114.382 541.528,117.549Z" fill="#D9D9D9"/>
<path d="M541.528,341.179C541.528,344.346 538.963,346.913 535.799,346.913C532.635,346.913 530.07,344.346 530.07,341.179C530.07,338.012 532.635,335.445 535.799,335.445C538.963,335.445 541.528,338.012 541.528,341.179Z" fill="#D9D9D9"/>
<path d="M541.528,266.636C541.528,269.803 538.963,272.37 535.799,272.37C532.635,272.37 530.07,269.803 530.07,266.636C530.07,263.469 532.635,260.902 535.799,260.902C538.963,260.902 541.528,263.469 541.528,266.636Z" fill="#D9D9D9"/>
<path d="M541.528,490.266C541.528,493.433 538.963,496 535.799,496C532.635,496 530.07,493.433 530.07,490.266C530.07,487.099 532.635,484.532 535.799,484.532C538.963,484.532 541.528,487.099 541.528,490.266Z" fill="#D9D9D9"/>
<path d="M243.638,117.549C243.638,120.716 241.073,123.283 237.909,123.283C234.745,123.283 232.181,120.716 232.181,117.549C232.181,114.382 234.745,111.815 237.909,111.815C241.073,111.815 243.638,114.382 243.638,117.549Z" fill="#D9D9D9"/>
<path d="M243.638,341.179C243.638,344.346 241.073,346.913 237.909,346.913C234.745,346.913 232.181,344.346 232.181,341.179C232.181,338.012 234.745,335.445 237.909,335.445C241.073,335.445 243.638,338.012 243.638,341.179Z" fill="#D9D9D9"/>
<path d="M243.638,266.636C243.638,269.803 241.073,272.37 237.909,272.37C234.745,272.37 232.181,269.803 232.181,266.636C232.181,263.469 234.745,260.902 237.909,260.902C241.073,260.902 243.638,263.469 243.638,266.636Z" fill="#D9D9D9"/>
<path d="M243.638,490.266C243.638,493.433 241.073,496 237.909,496C234.745,496 232.181,493.433 232.181,490.266C232.181,487.099 234.745,484.532 237.909,484.532C241.073,484.532 243.638,487.099 243.638,490.266Z" fill="#D9D9D9"/>
<path d="M541.528,43.006C541.528,46.173 538.963,48.74 535.799,48.74C532.635,48.74 530.07,46.173 530.07,43.006C530.07,39.839 532.635,37.272 535.799,37.272C538.963,37.272 541.528,39.839 541.528,43.006Z" fill="#D9D9D9"/>
<path d="M541.528,266.636C541.528,269.803 538.963,272.37 535.799,272.37C532.635,272.37 530.07,269.803 530.07,266.636C530.07,263.469 532.635,260.902 535.799,260.902C538.963,260.902 541.528,263.469 541.528,266.636Z" fill="#D9D9D9"/>
<path d="M541.528,192.092C541.528,195.259 538.963,197.827 535.799,197.827C532.635,197.827 530.07,195.259 530.07,192.092C530.07,188.926 532.635,186.358 535.799,186.358C538.963,186.358 541.528,188.926 541.528,192.092Z" fill="#D9D9D9"/>
<path d="M541.528,415.723C541.528,418.889 538.963,421.457 535.799,421.457C532.635,421.457 530.07,418.889 530.07,415.723C530.07,412.556 532.635,409.988 535.799,409.988C538.963,409.988 541.528,412.556 541.528,415.723Z" fill="#D9D9D9"/>
<path d="M243.638,43.006C243.638,46.173 241.073,48.74 237.909,48.74C234.745,48.74 232.181,46.173 232.181,43.006C232.181,39.839 234.745,37.272 237.909,37.272C241.073,37.272 243.638,39.839 243.638,43.006Z" fill="#D9D9D9"/>
<path d="M243.638,266.636C243.638,269.803 241.073,272.37 237.909,272.37C234.745,272.37 232.181,269.803 232.181,266.636C232.181,263.469 234.745,260.902 237.909,260.902C241.073,260.902 243.638,263.469 243.638,266.636Z" fill="#D9D9D9"/>
<path d="M243.638,192.092C243.638,195.259 241.073,197.827 237.909,197.827C234.745,197.827 232.181,195.259 232.181,192.092C232.181,188.926 234.745,186.358 237.909,186.358C241.073,186.358 243.638,188.926 243.638,192.092Z" fill="#D9D9D9"/>
<path d="M243.638,415.723C243.638,418.889 241.073,421.457 237.909,421.457C234.745,421.457 232.181,418.889 232.181,415.723C232.181,412.556 234.745,409.988 237.909,409.988C241.073,409.988 243.638,412.556 243.638,415.723Z" fill="#D9D9D9"/>
<path d="M392.583,80.277C392.583,83.444 390.018,86.012 386.854,86.012C383.69,86.012 381.125,83.444 381.125,80.277C381.125,77.111 383.69,74.543 386.854,74.543C390.018,74.543 392.583,77.111 392.583,80.277Z" fill="#D9D9D9"/>
<path d="M392.583,303.908C392.583,307.074 390.018,309.642 386.854,309.642C383.69,309.642 381.125,307.074 381.125,303.908C381.125,300.741 383.69,298.173 386.854,298.173C390.018,298.173 392.583,300.741 392.583,303.908Z" fill="#D9D9D9"/>
<path d="M392.583,229.364C392.583,232.531 390.018,235.098 386.854,235.098C383.69,235.098 381.125,232.531 381.125,229.364C381.125,226.197 383.69,223.63 386.854,223.63C390.018,223.63 392.583,226.197 392.583,229.364Z" fill="#D9D9D9"/>
<path d="M392.583,452.994C392.583,456.161 390.018,458.728 386.854,458.728C383.69,458.728 381.125,456.161 381.125,452.994C381.125,449.827 383.69,447.26 386.854,447.26C390.018,447.26 392.583,449.827 392.583,452.994Z" fill="#D9D9D9"/>
<path d="M94.694,80.277C94.694,83.444 92.129,86.012 88.965,86.012C85.801,86.012 83.236,83.444 83.236,80.277C83.236,77.111 85.801,74.543 88.965,74.543C92.129,74.543 94.694,77.111 94.694,80.277Z" fill="#D9D9D9"/>
<path d="M94.694,303.908C94.694,307.074 92.129,309.642 88.965,309.642C85.801,309.642 83.236,307.074 83.236,303.908C83.236,300.741 85.801,298.173 88.965,298.173C92.129,298.173 94.694,300.741 94.694,303.908Z" fill="#D9D9D9"/>
<path d="M94.694,229.364C94.694,232.531 92.129,235.098 88.965,235.098C85.801,235.098 83.236,232.531 83.236,229.364C83.236,226.197 85.801,223.63 88.965,223.63C92.129,223.63 94.694,226.197 94.694,229.364Z" fill="#D9D9D9"/>
<path d="M94.694,452.994C94.694,456.161 92.129,458.728 88.965,458.728C85.801,458.728 83.236,456.161 83.236,452.994C83.236,449.827 85.801,447.26 88.965,447.26C92.129,447.26 94.694,449.827 94.694,452.994Z" fill="#D9D9D9"/>
<path d="M392.583,5.734C392.583,8.901 390.018,11.468 386.854,11.468C383.69,11.468 381.125,8.901 381.125,5.734C381.125,2.567 383.69,0 386.854,0C390.018,0 392.583,2.567 392.583,5.734Z" fill="#D9D9D9"/>
<path d="M392.583,229.364C392.583,232.531 390.018,235.098 386.854,235.098C383.69,235.098 381.125,232.531 381.125,229.364C381.125,226.197 383.69,223.63 386.854,223.63C390.018,223.63 392.583,226.197 392.583,229.364Z" fill="#D9D9D9"/>
<path d="M392.583,154.821C392.583,157.988 390.018,160.555 386.854,160.555C383.69,160.555 381.125,157.988 381.125,154.821C381.125,151.654 383.69,149.087 386.854,149.087C390.018,149.087 392.583,151.654 392.583,154.821Z" fill="#D9D9D9"/>
<path d="M392.583,378.451C392.583,381.618 390.018,384.185 386.854,384.185C383.69,384.185 381.125,381.618 381.125,378.451C381.125,375.284 383.69,372.717 386.854,372.717C390.018,372.717 392.583,375.284 392.583,378.451Z" fill="#D9D9D9"/>
<path d="M94.694,5.734C94.694,8.901 92.129,11.468 88.965,11.468C85.801,11.468 83.236,8.901 83.236,5.734C83.236,2.567 85.801,0 88.965,0C92.129,0 94.694,2.567 94.694,5.734Z" fill="#D9D9D9"/>
<path d="M94.694,229.364C94.694,232.531 92.129,235.098 88.965,235.098C85.801,235.098 83.236,232.531 83.236,229.364C83.236,226.197 85.801,223.63 88.965,223.63C92.129,223.63 94.694,226.197 94.694,229.364Z" fill="#D9D9D9"/>
<path d="M94.694,154.821C94.694,157.988 92.129,160.555 88.965,160.555C85.801,160.555 83.236,157.988 83.236,154.821C83.236,151.654 85.801,149.087 88.965,149.087C92.129,149.087 94.694,151.654 94.694,154.821Z" fill="#D9D9D9"/>
<path d="M94.694,378.451C94.694,381.618 92.129,384.185 88.965,384.185C85.801,384.185 83.236,381.618 83.236,378.451C83.236,375.284 85.801,372.717 88.965,372.717C92.129,372.717 94.694,375.284 94.694,378.451Z" fill="#D9D9D9"/>
<path d="M392.583,117.549C392.583,120.716 390.018,123.283 386.854,123.283C383.69,123.283 381.125,120.716 381.125,117.549C381.125,114.382 383.69,111.815 386.854,111.815C390.018,111.815 392.583,114.382 392.583,117.549Z" fill="#D9D9D9"/>
<path d="M392.583,341.179C392.583,344.346 390.018,346.913 386.854,346.913C383.69,346.913 381.125,344.346 381.125,341.179C381.125,338.012 383.69,335.445 386.854,335.445C390.018,335.445 392.583,338.012 392.583,341.179Z" fill="#D9D9D9"/>
<path d="M392.583,266.636C392.583,269.803 390.018,272.37 386.854,272.37C383.69,272.37 381.125,269.803 381.125,266.636C381.125,263.469 383.69,260.902 386.854,260.902C390.018,260.902 392.583,263.469 392.583,266.636Z" fill="#D9D9D9"/>
<path d="M392.583,490.266C392.583,493.433 390.018,496 386.854,496C383.69,496 381.125,493.433 381.125,490.266C381.125,487.099 383.69,484.532 386.854,484.532C390.018,484.532 392.583,487.099 392.583,490.266Z" fill="#D9D9D9"/>
<path d="M94.694,117.549C94.694,120.716 92.129,123.283 88.965,123.283C85.801,123.283 83.236,120.716 83.236,117.549C83.236,114.382 85.801,111.815 88.965,111.815C92.129,111.815 94.694,114.382 94.694,117.549Z" fill="#D9D9D9"/>
<path d="M94.694,341.179C94.694,344.346 92.129,346.913 88.965,346.913C85.801,346.913 83.236,344.346 83.236,341.179C83.236,338.012 85.801,335.445 88.965,335.445C92.129,335.445 94.694,338.012 94.694,341.179Z" fill="#D9D9D9"/>
<path d="M94.694,266.636C94.694,269.803 92.129,272.37 88.965,272.37C85.801,272.37 83.236,269.803 83.236,266.636C83.236,263.469 85.801,260.902 88.965,260.902C92.129,260.902 94.694,263.469 94.694,266.636Z" fill="#D9D9D9"/>
<path d="M94.694,490.266C94.694,493.433 92.129,496 88.965,496C85.801,496 83.236,493.433 83.236,490.266C83.236,487.099 85.801,484.532 88.965,484.532C92.129,484.532 94.694,487.099 94.694,490.266Z" fill="#D9D9D9"/>
<path d="M392.583,43.006C392.583,46.173 390.018,48.74 386.854,48.74C383.69,48.74 381.125,46.173 381.125,43.006C381.125,39.839 383.69,37.272 386.854,37.272C390.018,37.272 392.583,39.839 392.583,43.006Z" fill="#D9D9D9"/>
<path d="M392.583,266.636C392.583,269.803 390.018,272.37 386.854,272.37C383.69,272.37 381.125,269.803 381.125,266.636C381.125,263.469 383.69,260.902 386.854,260.902C390.018,260.902 392.583,263.469 392.583,266.636Z" fill="#D9D9D9"/>
<path d="M392.583,192.092C392.583,195.259 390.018,197.827 386.854,197.827C383.69,197.827 381.125,195.259 381.125,192.092C381.125,188.926 383.69,186.358 386.854,186.358C390.018,186.358 392.583,188.926 392.583,192.092Z" fill="#D9D9D9"/>
<path d="M392.583,415.723C392.583,418.889 390.018,421.457 386.854,421.457C383.69,421.457 381.125,418.889 381.125,415.723C381.125,412.556 383.69,409.988 386.854,409.988C390.018,409.988 392.583,412.556 392.583,415.723Z" fill="#D9D9D9"/>
<path d="M94.694,43.006C94.694,46.173 92.129,48.74 88.965,48.74C85.801,48.74 83.236,46.173 83.236,43.006C83.236,39.839 85.801,37.272 88.965,37.272C92.129,37.272 94.694,39.839 94.694,43.006Z" fill="#D9D9D9"/>
<path d="M94.694,266.636C94.694,269.803 92.129,272.37 88.965,272.37C85.801,272.37 83.236,269.803 83.236,266.636C83.236,263.469 85.801,260.902 88.965,260.902C92.129,260.902 94.694,263.469 94.694,266.636Z" fill="#D9D9D9"/>
<path d="M94.694,192.092C94.694,195.259 92.129,197.827 88.965,197.827C85.801,197.827 83.236,195.259 83.236,192.092C83.236,188.926 85.801,186.358 88.965,186.358C92.129,186.358 94.694,188.926 94.694,192.092Z" fill="#D9D9D9"/>
<path d="M94.694,415.723C94.694,418.889 92.129,421.457 88.965,421.457C85.801,421.457 83.236,418.889 83.236,415.723C83.236,412.556 85.801,409.988 88.965,409.988C92.129,409.988 94.694,412.556 94.694,415.723Z" fill="#D9D9D9"/>
<path d="M616,80.277C616,83.444 613.435,86.012 610.272,86.012C607.108,86.012 604.543,83.444 604.543,80.277C604.543,77.111 607.108,74.543 610.272,74.543C613.435,74.543 616,77.111 616,80.277Z" fill="#D9D9D9"/>
<path d="M616,303.908C616,307.074 613.435,309.642 610.272,309.642C607.108,309.642 604.543,307.074 604.543,303.908C604.543,300.741 607.108,298.173 610.272,298.173C613.435,298.173 616,300.741 616,303.908Z" fill="#D9D9D9"/>
<path d="M616,229.364C616,232.531 613.435,235.098 610.272,235.098C607.108,235.098 604.543,232.531 604.543,229.364C604.543,226.197 607.108,223.63 610.272,223.63C613.435,223.63 616,226.197 616,229.364Z" fill="#D9D9D9"/>
<path d="M616,452.994C616,456.161 613.435,458.728 610.272,458.728C607.108,458.728 604.543,456.161 604.543,452.994C604.543,449.827 607.108,447.26 610.272,447.26C613.435,447.26 616,449.827 616,452.994Z" fill="#D9D9D9"/>
<path d="M318.111,80.277C318.111,83.444 315.546,86.012 312.382,86.012C309.218,86.012 306.653,83.444 306.653,80.277C306.653,77.111 309.218,74.543 312.382,74.543C315.546,74.543 318.111,77.111 318.111,80.277Z" fill="#D9D9D9"/>
<path d="M318.111,303.908C318.111,307.074 315.546,309.642 312.382,309.642C309.218,309.642 306.653,307.074 306.653,303.908C306.653,300.741 309.218,298.173 312.382,298.173C315.546,298.173 318.111,300.741 318.111,303.908Z" fill="#D9D9D9"/>
<path d="M318.111,229.364C318.111,232.531 315.546,235.098 312.382,235.098C309.218,235.098 306.653,232.531 306.653,229.364C306.653,226.197 309.218,223.63 312.382,223.63C315.546,223.63 318.111,226.197 318.111,229.364Z" fill="#D9D9D9"/>
<path d="M318.111,452.994C318.111,456.161 315.546,458.728 312.382,458.728C309.218,458.728 306.653,456.161 306.653,452.994C306.653,449.827 309.218,447.26 312.382,447.26C315.546,447.26 318.111,449.827 318.111,452.994Z" fill="#D9D9D9"/>
<path d="M616,5.734C616,8.901 613.435,11.468 610.272,11.468C607.108,11.468 604.543,8.901 604.543,5.734C604.543,2.567 607.108,0 610.272,0C613.435,0 616,2.567 616,5.734Z" fill="#D9D9D9"/>
<path d="M616,229.364C616,232.531 613.435,235.098 610.272,235.098C607.108,235.098 604.543,232.531 604.543,229.364C604.543,226.197 607.108,223.63 610.272,223.63C613.435,223.63 616,226.197 616,229.364Z" fill="#D9D9D9"/>
<path d="M616,154.821C616,157.988 613.435,160.555 610.272,160.555C607.108,160.555 604.543,157.988 604.543,154.821C604.543,151.654 607.108,149.087 610.272,149.087C613.435,149.087 616,151.654 616,154.821Z" fill="#D9D9D9"/>
<path d="M616,378.451C616,381.618 613.435,384.185 610.272,384.185C607.108,384.185 604.543,381.618 604.543,378.451C604.543,375.284 607.108,372.717 610.272,372.717C613.435,372.717 616,375.284 616,378.451Z" fill="#D9D9D9"/>
<path d="M318.111,5.734C318.111,8.901 315.546,11.468 312.382,11.468C309.218,11.468 306.653,8.901 306.653,5.734C306.653,2.567 309.218,0 312.382,0C315.546,0 318.111,2.567 318.111,5.734Z" fill="#D9D9D9"/>
<path d="M318.111,229.364C318.111,232.531 315.546,235.098 312.382,235.098C309.218,235.098 306.653,232.531 306.653,229.364C306.653,226.197 309.218,223.63 312.382,223.63C315.546,223.63 318.111,226.197 318.111,229.364Z" fill="#D9D9D9"/>
<path d="M318.111,154.821C318.111,157.988 315.546,160.555 312.382,160.555C309.218,160.555 306.653,157.988 306.653,154.821C306.653,151.654 309.218,149.087 312.382,149.087C315.546,149.087 318.111,151.654 318.111,154.821Z" fill="#D9D9D9"/>
<path d="M318.111,378.451C318.111,381.618 315.546,384.185 312.382,384.185C309.218,384.185 306.653,381.618 306.653,378.451C306.653,375.284 309.218,372.717 312.382,372.717C315.546,372.717 318.111,375.284 318.111,378.451Z" fill="#D9D9D9"/>
<path d="M616,117.549C616,120.716 613.435,123.283 610.272,123.283C607.108,123.283 604.543,120.716 604.543,117.549C604.543,114.382 607.108,111.815 610.272,111.815C613.435,111.815 616,114.382 616,117.549Z" fill="#D9D9D9"/>
<path d="M616,341.179C616,344.346 613.435,346.913 610.272,346.913C607.108,346.913 604.543,344.346 604.543,341.179C604.543,338.012 607.108,335.445 610.272,335.445C613.435,335.445 616,338.012 616,341.179Z" fill="#D9D9D9"/>
<path d="M616,266.636C616,269.803 613.435,272.37 610.272,272.37C607.108,272.37 604.543,269.803 604.543,266.636C604.543,263.469 607.108,260.902 610.272,260.902C613.435,260.902 616,263.469 616,266.636Z" fill="#D9D9D9"/>
<path d="M616,490.266C616,493.433 613.435,496 610.272,496C607.108,496 604.543,493.433 604.543,490.266C604.543,487.099 607.108,484.532 610.272,484.532C613.435,484.532 616,487.099 616,490.266Z" fill="#D9D9D9"/>
<path d="M318.111,117.549C318.111,120.716 315.546,123.283 312.382,123.283C309.218,123.283 306.653,120.716 306.653,117.549C306.653,114.382 309.218,111.815 312.382,111.815C315.546,111.815 318.111,114.382 318.111,117.549Z" fill="#D9D9D9"/>
<path d="M318.111,341.179C318.111,344.346 315.546,346.913 312.382,346.913C309.218,346.913 306.653,344.346 306.653,341.179C306.653,338.012 309.218,335.445 312.382,335.445C315.546,335.445 318.111,338.012 318.111,341.179Z" fill="#D9D9D9"/>
<path d="M318.111,266.636C318.111,269.803 315.546,272.37 312.382,272.37C309.218,272.37 306.653,269.803 306.653,266.636C306.653,263.469 309.218,260.902 312.382,260.902C315.546,260.902 318.111,263.469 318.111,266.636Z" fill="#D9D9D9"/>
<path d="M318.111,490.266C318.111,493.433 315.546,496 312.382,496C309.218,496 306.653,493.433 306.653,490.266C306.653,487.099 309.218,484.532 312.382,484.532C315.546,484.532 318.111,487.099 318.111,490.266Z" fill="#D9D9D9"/>
<path d="M616,43.006C616,46.173 613.435,48.74 610.272,48.74C607.108,48.74 604.543,46.173 604.543,43.006C604.543,39.839 607.108,37.272 610.272,37.272C613.435,37.272 616,39.839 616,43.006Z" fill="#D9D9D9"/>
<path d="M616,266.636C616,269.803 613.435,272.37 610.272,272.37C607.108,272.37 604.543,269.803 604.543,266.636C604.543,263.469 607.108,260.902 610.272,260.902C613.435,260.902 616,263.469 616,266.636Z" fill="#D9D9D9"/>
<path d="M616,192.092C616,195.259 613.435,197.827 610.272,197.827C607.108,197.827 604.543,195.259 604.543,192.092C604.543,188.926 607.108,186.358 610.272,186.358C613.435,186.358 616,188.926 616,192.092Z" fill="#D9D9D9"/>
<path d="M616,415.723C616,418.889 613.435,421.457 610.272,421.457C607.108,421.457 604.543,418.889 604.543,415.723C604.543,412.556 607.108,409.988 610.272,409.988C613.435,409.988 616,412.556 616,415.723Z" fill="#D9D9D9"/>
<path d="M318.111,43.006C318.111,46.173 315.546,48.74 312.382,48.74C309.218,48.74 306.653,46.173 306.653,43.006C306.653,39.839 309.218,37.272 312.382,37.272C315.546,37.272 318.111,39.839 318.111,43.006Z" fill="#D9D9D9"/>
<path d="M318.111,266.636C318.111,269.803 315.546,272.37 312.382,272.37C309.218,272.37 306.653,269.803 306.653,266.636C306.653,263.469 309.218,260.902 312.382,260.902C315.546,260.902 318.111,263.469 318.111,266.636Z" fill="#D9D9D9"/>
<path d="M318.111,192.092C318.111,195.259 315.546,197.827 312.382,197.827C309.218,197.827 306.653,195.259 306.653,192.092C306.653,188.926 309.218,186.358 312.382,186.358C315.546,186.358 318.111,188.926 318.111,192.092Z" fill="#D9D9D9"/>
<path d="M318.111,415.723C318.111,418.889 315.546,421.457 312.382,421.457C309.218,421.457 306.653,418.889 306.653,415.723C306.653,412.556 309.218,409.988 312.382,409.988C315.546,409.988 318.111,412.556 318.111,415.723Z" fill="#D9D9D9"/>
<path d="M467.055,80.277C467.055,83.444 464.491,86.012 461.327,86.012C458.163,86.012 455.598,83.444 455.598,80.277C455.598,77.111 458.163,74.543 461.327,74.543C464.491,74.543 467.055,77.111 467.055,80.277Z" fill="#D9D9D9"/>
<path d="M467.055,303.908C467.055,307.074 464.491,309.642 461.327,309.642C458.163,309.642 455.598,307.074 455.598,303.908C455.598,300.741 458.163,298.173 461.327,298.173C464.491,298.173 467.055,300.741 467.055,303.908Z" fill="#D9D9D9"/>
<path d="M467.055,229.364C467.055,232.531 464.491,235.098 461.327,235.098C458.163,235.098 455.598,232.531 455.598,229.364C455.598,226.197 458.163,223.63 461.327,223.63C464.491,223.63 467.055,226.197 467.055,229.364Z" fill="#D9D9D9"/>
<path d="M467.055,452.994C467.055,456.161 464.491,458.728 461.327,458.728C458.163,458.728 455.598,456.161 455.598,452.994C455.598,449.827 458.163,447.26 461.327,447.26C464.491,447.26 467.055,449.827 467.055,452.994Z" fill="#D9D9D9"/>
<path d="M169.166,80.277C169.166,83.444 166.601,86.012 163.437,86.012C160.273,86.012 157.708,83.444 157.708,80.277C157.708,77.111 160.273,74.543 163.437,74.543C166.601,74.543 169.166,77.111 169.166,80.277Z" fill="#D9D9D9"/>
<path d="M169.166,303.908C169.166,307.074 166.601,309.642 163.437,309.642C160.273,309.642 157.708,307.074 157.708,303.908C157.708,300.741 160.273,298.173 163.437,298.173C166.601,298.173 169.166,300.741 169.166,303.908Z" fill="#D9D9D9"/>
<path d="M169.166,229.364C169.166,232.531 166.601,235.098 163.437,235.098C160.273,235.098 157.708,232.531 157.708,229.364C157.708,226.197 160.273,223.63 163.437,223.63C166.601,223.63 169.166,226.197 169.166,229.364Z" fill="#D9D9D9"/>
<path d="M169.166,452.994C169.166,456.161 166.601,458.728 163.437,458.728C160.273,458.728 157.708,456.161 157.708,452.994C157.708,449.827 160.273,447.26 163.437,447.26C166.601,447.26 169.166,449.827 169.166,452.994Z" fill="#D9D9D9"/>
<path d="M467.055,5.734C467.055,8.901 464.491,11.468 461.327,11.468C458.163,11.468 455.598,8.901 455.598,5.734C455.598,2.567 458.163,0 461.327,0C464.491,0 467.055,2.567 467.055,5.734Z" fill="#D9D9D9"/>
<path d="M467.055,229.364C467.055,232.531 464.491,235.098 461.327,235.098C458.163,235.098 455.598,232.531 455.598,229.364C455.598,226.197 458.163,223.63 461.327,223.63C464.491,223.63 467.055,226.197 467.055,229.364Z" fill="#D9D9D9"/>
<path d="M467.055,154.821C467.055,157.988 464.491,160.555 461.327,160.555C458.163,160.555 455.598,157.988 455.598,154.821C455.598,151.654 458.163,149.087 461.327,149.087C464.491,149.087 467.055,151.654 467.055,154.821Z" fill="#D9D9D9"/>
<path d="M467.055,378.451C467.055,381.618 464.491,384.185 461.327,384.185C458.163,384.185 455.598,381.618 455.598,378.451C455.598,375.284 458.163,372.717 461.327,372.717C464.491,372.717 467.055,375.284 467.055,378.451Z" fill="#D9D9D9"/>
<path d="M169.166,5.734C169.166,8.901 166.601,11.468 163.437,11.468C160.273,11.468 157.708,8.901 157.708,5.734C157.708,2.567 160.273,0 163.437,0C166.601,0 169.166,2.567 169.166,5.734Z" fill="#D9D9D9"/>
<path d="M169.166,229.364C169.166,232.531 166.601,235.098 163.437,235.098C160.273,235.098 157.708,232.531 157.708,229.364C157.708,226.197 160.273,223.63 163.437,223.63C166.601,223.63 169.166,226.197 169.166,229.364Z" fill="#D9D9D9"/>
<path d="M169.166,154.821C169.166,157.988 166.601,160.555 163.437,160.555C160.273,160.555 157.708,157.988 157.708,154.821C157.708,151.654 160.273,149.087 163.437,149.087C166.601,149.087 169.166,151.654 169.166,154.821Z" fill="#D9D9D9"/>
<path d="M169.166,378.451C169.166,381.618 166.601,384.185 163.437,384.185C160.273,384.185 157.708,381.618 157.708,378.451C157.708,375.284 160.273,372.717 163.437,372.717C166.601,372.717 169.166,375.284 169.166,378.451Z" fill="#D9D9D9"/>
<path d="M467.055,117.549C467.055,120.716 464.491,123.283 461.327,123.283C458.163,123.283 455.598,120.716 455.598,117.549C455.598,114.382 458.163,111.815 461.327,111.815C464.491,111.815 467.055,114.382 467.055,117.549Z" fill="#D9D9D9"/>
<path d="M467.055,341.179C467.055,344.346 464.491,346.913 461.327,346.913C458.163,346.913 455.598,344.346 455.598,341.179C455.598,338.012 458.163,335.445 461.327,335.445C464.491,335.445 467.055,338.012 467.055,341.179Z" fill="#D9D9D9"/>
<path d="M467.055,266.636C467.055,269.803 464.491,272.37 461.327,272.37C458.163,272.37 455.598,269.803 455.598,266.636C455.598,263.469 458.163,260.902 461.327,260.902C464.491,260.902 467.055,263.469 467.055,266.636Z" fill="#D9D9D9"/>
<path d="M467.055,490.266C467.055,493.433 464.491,496 461.327,496C458.163,496 455.598,493.433 455.598,490.266C455.598,487.099 458.163,484.532 461.327,484.532C464.491,484.532 467.055,487.099 467.055,490.266Z" fill="#D9D9D9"/>
<path d="M169.166,117.549C169.166,120.716 166.601,123.283 163.437,123.283C160.273,123.283 157.708,120.716 157.708,117.549C157.708,114.382 160.273,111.815 163.437,111.815C166.601,111.815 169.166,114.382 169.166,117.549Z" fill="#D9D9D9"/>
<path d="M169.166,341.179C169.166,344.346 166.601,346.913 163.437,346.913C160.273,346.913 157.708,344.346 157.708,341.179C157.708,338.012 160.273,335.445 163.437,335.445C166.601,335.445 169.166,338.012 169.166,341.179Z" fill="#D9D9D9"/>
<path d="M169.166,266.636C169.166,269.803 166.601,272.37 163.437,272.37C160.273,272.37 157.708,269.803 157.708,266.636C157.708,263.469 160.273,260.902 163.437,260.902C166.601,260.902 169.166,263.469 169.166,266.636Z" fill="#D9D9D9"/>
<path d="M169.166,490.266C169.166,493.433 166.601,496 163.437,496C160.273,496 157.708,493.433 157.708,490.266C157.708,487.099 160.273,484.532 163.437,484.532C166.601,484.532 169.166,487.099 169.166,490.266Z" fill="#D9D9D9"/>
<path d="M467.055,43.006C467.055,46.173 464.491,48.74 461.327,48.74C458.163,48.74 455.598,46.173 455.598,43.006C455.598,39.839 458.163,37.272 461.327,37.272C464.491,37.272 467.055,39.839 467.055,43.006Z" fill="#D9D9D9"/>
<path d="M467.055,266.636C467.055,269.803 464.491,272.37 461.327,272.37C458.163,272.37 455.598,269.803 455.598,266.636C455.598,263.469 458.163,260.902 461.327,260.902C464.491,260.902 467.055,263.469 467.055,266.636Z" fill="#D9D9D9"/>
<path d="M467.055,192.092C467.055,195.259 464.491,197.827 461.327,197.827C458.163,197.827 455.598,195.259 455.598,192.092C455.598,188.926 458.163,186.358 461.327,186.358C464.491,186.358 467.055,188.926 467.055,192.092Z" fill="#D9D9D9"/>
<path d="M467.055,415.723C467.055,418.889 464.491,421.457 461.327,421.457C458.163,421.457 455.598,418.889 455.598,415.723C455.598,412.556 458.163,409.988 461.327,409.988C464.491,409.988 467.055,412.556 467.055,415.723Z" fill="#D9D9D9"/>
<path d="M169.166,43.006C169.166,46.173 166.601,48.74 163.437,48.74C160.273,48.74 157.708,46.173 157.708,43.006C157.708,39.839 160.273,37.272 163.437,37.272C166.601,37.272 169.166,39.839 169.166,43.006Z" fill="#D9D9D9"/>
<path d="M169.166,266.636C169.166,269.803 166.601,272.37 163.437,272.37C160.273,272.37 157.708,269.803 157.708,266.636C157.708,263.469 160.273,260.902 163.437,260.902C166.601,260.902 169.166,263.469 169.166,266.636Z" fill="#D9D9D9"/>
<path d="M169.166,192.092C169.166,195.259 166.601,197.827 163.437,197.827C160.273,197.827 157.708,195.259 157.708,192.092C157.708,188.926 160.273,186.358 163.437,186.358C166.601,186.358 169.166,188.926 169.166,192.092Z" fill="#D9D9D9"/>
<path d="M169.166,415.723C169.166,418.889 166.601,421.457 163.437,421.457C160.273,421.457 157.708,418.889 157.708,415.723C157.708,412.556 160.273,409.988 163.437,409.988C166.601,409.988 169.166,412.556 169.166,415.723Z" fill="#D9D9D9"/>
<defs>
<linearGradient id="pf_0_69_868" x1="536" y1="183" x2="782" y2="930" gradientUnits="userSpaceOnUse">
<stop offset="0.016" stop-color="#007AFF"/>
<stop offset="1" stop-color="#004999"/>
</linearGradient>
</defs>
</svg>
