<svg width="52" height="32" viewBox="0 0 52 32" fill="none" xmlns="http://www.w3.org/2000/svg" xmlns:xlink="http://www.w3.org/1999/xlink">
<path d="M3.363,18L40.596,18L24.329,27.76C23.029,28.54 23.029,29.82 24.329,30.6C25.629,31.38 27.729,31.38 29.029,30.6L50.996,17.42C52.296,16.64 52.296,15.38 50.996,14.6L29.063,1.4C28.44,1.025 27.594,0.815 26.713,0.815C25.831,0.815 24.985,1.025 24.363,1.4C23.063,2.18 23.063,3.44 24.363,4.22L40.596,14L3.363,14C1.529,14 0.029,14.9 0.029,16C0.029,17.1 1.529,18 3.363,18Z" fill="#6D7D8B"/>
</svg>
