<svg width="60" height="60" viewBox="0 0 60 60" fill="none" xmlns="http://www.w3.org/2000/svg" xmlns:xlink="http://www.w3.org/1999/xlink">
<path d="M0,29.167C0,13.067 13.067,0 29.167,0C45.267,0 58.333,13.067 58.333,29.167C58.333,45.267 45.267,58.333 29.167,58.333C13.067,58.333 0,45.267 0,29.167ZM10.792,31.208L21.263,41.679C22.4,42.817 24.267,42.817 25.375,41.679L47.513,19.542C48.65,18.404 48.65,16.567 47.513,15.429C46.375,14.292 44.538,14.292 43.4,15.429L23.333,35.496L14.904,27.096C13.767,25.958 11.929,25.958 10.792,27.096C10.246,27.641 9.939,28.381 9.939,29.152C9.939,29.924 10.246,30.663 10.792,31.208Z" clip-rule="evenodd" fill-rule="evenodd" fill="#FFCC00"/>
</svg>
