<svg width="80" height="80" viewBox="0 0 80 80" fill="none" xmlns="http://www.w3.org/2000/svg" xmlns:xlink="http://www.w3.org/1999/xlink">
<path d="M40,0C17.92,0 0,17.92 0,40C0,62.08 17.92,80 40,80C62.08,80 80,62.08 80,40C80,17.92 62.08,0 40,0ZM40,72C22.36,72 8,57.64 8,40C8,22.36 22.36,8 40,8C57.64,8 72,22.36 72,40C72,57.64 57.64,72 40,72ZM32,48.68L55.52,25.16C57.08,23.6 59.64,23.6 61.2,25.16C62.76,26.72 62.76,29.24 61.2,30.8L34.84,57.16C33.28,58.72 30.76,58.72 29.2,57.16L18.84,46.8C17.28,45.24 17.28,42.72 18.84,41.16C19.587,40.411 20.602,39.99 21.66,39.99C22.718,39.99 23.733,40.411 24.48,41.16L32,48.68Z" clip-rule="evenodd" fill-rule="evenodd" fill="#6D7D8B"/>
</svg>
