<svg width="68" height="64" viewBox="0 0 68 64" fill="none" xmlns="http://www.w3.org/2000/svg" xmlns:xlink="http://www.w3.org/1999/xlink">
<path d="M47.333,13.667L60.667,13.667C64.367,13.667 67.333,16.633 67.333,20.333L67.333,57C67.333,60.7 64.367,63.667 60.667,63.667L7.333,63.667C3.633,63.667 0.667,60.7 0.667,57L0.7,20.333C0.7,16.633 3.633,13.667 7.333,13.667L20.667,13.667L20.667,7C20.667,3.3 23.633,0.333 27.333,0.333L40.667,0.333C44.367,0.333 47.333,3.3 47.333,7L47.333,13.667ZM27.333,13.667L40.667,13.667L40.667,7L27.333,7L27.333,13.667Z" clip-rule="evenodd" fill-rule="evenodd" fill="#6D7D8B"/>
</svg>
