<svg width="40" height="40" viewBox="0 0 40 40" fill="none" xmlns="http://www.w3.org/2000/svg" xmlns:xlink="http://www.w3.org/1999/xlink">
<path d="M0,20C0,8.96 8.96,0 20,0C31.04,0 40,8.96 40,20C40,31.04 31.04,40 20,40C8.96,40 0,31.04 0,20ZM7.4,21.4L14.58,28.58C15.36,29.36 16.64,29.36 17.4,28.58L32.58,13.4C33.36,12.62 33.36,11.36 32.58,10.58C31.8,9.8 30.54,9.8 29.76,10.58L16,24.34L10.22,18.58C9.44,17.8 8.18,17.8 7.4,18.58C7.025,18.954 6.815,19.461 6.815,19.99C6.815,20.519 7.025,21.026 7.4,21.4Z" clip-rule="evenodd" fill-rule="evenodd" fill="#007AFF"/>
</svg>
